<svg xmlns="http://www.w3.org/2000/svg" xmlns:xlink="http://www.w3.org/1999/xlink" width="500" zoomAndPan="magnify" viewBox="0 0 375 374.999991" height="500" preserveAspectRatio="xMidYMid meet" version="1.0"><defs><clipPath id="fcdccb5f45"><path d="M 188 227 L 211 227 L 211 262.5 L 188 262.5 Z M 188 227 " clip-rule="nonzero"/></clipPath><clipPath id="cc1f958295"><path d="M 156 227 L 179 227 L 179 262.5 L 156 262.5 Z M 156 227 " clip-rule="nonzero"/></clipPath><clipPath id="2c89ff03ba"><path d="M 236 140 L 252.03125 140 L 252.03125 174 L 236 174 Z M 236 140 " clip-rule="nonzero"/></clipPath><clipPath id="b63edf9b73"><path d="M 134 112.5 L 238 112.5 L 238 202 L 134 202 Z M 134 112.5 " clip-rule="nonzero"/></clipPath><clipPath id="475e007d57"><path d="M 200 204.117188 L 203 204.117188 L 203 207 L 200 207 Z M 200 204.117188 " clip-rule="nonzero"/></clipPath><clipPath id="571022419c"><path d="M 197.144531 204.117188 L 203 204.117188 L 203 210 L 197.144531 210 Z M 197.144531 204.117188 " clip-rule="nonzero"/></clipPath><clipPath id="07bd90c97c"><path d="M 202.21875 204.21875 C 202.222656 204.550781 202.183594 205.648438 201.632812 206.722656 C 201.460938 207.058594 201.238281 207.394531 200.949219 207.703125 C 200.203125 208.5 199.019531 209.117188 197.144531 209.117188 L 197.144531 207.242188 C 198.527344 207.242188 199.535156 207.03125 200.265625 206.722656 C 200.527344 206.613281 200.753906 206.488281 200.949219 206.359375 C 202.105469 205.585938 202.214844 204.542969 202.21875 204.21875 Z M 202.21875 204.21875 " clip-rule="nonzero"/></clipPath><linearGradient x1="0.0000656606" gradientTransform="matrix(0.0211035, 0, 0, 0.0207987, 197.14398, 204.116055)" y1="122.636002" x2="240.600071" gradientUnits="userSpaceOnUse" y2="122.636002" id="0e61ca5d62"><stop stop-opacity="1" stop-color="rgb(23.919678%, 74.119568%, 92.549133%)" offset="0"/><stop stop-opacity="1" stop-color="rgb(23.919678%, 74.119568%, 92.549133%)" offset="0.03125"/><stop stop-opacity="1" stop-color="rgb(23.953247%, 74.008179%, 92.579651%)" offset="0.046875"/><stop stop-opacity="1" stop-color="rgb(24.01886%, 73.800659%, 92.637634%)" offset="0.0546875"/><stop stop-opacity="1" stop-color="rgb(24.079895%, 73.603821%, 92.692566%)" offset="0.0625"/><stop stop-opacity="1" stop-color="rgb(24.171448%, 73.310852%, 92.774963%)" offset="0.078125"/><stop stop-opacity="1" stop-color="rgb(24.263%, 73.016357%, 92.855835%)" offset="0.0859375"/><stop stop-opacity="1" stop-color="rgb(24.324036%, 72.821045%, 92.910767%)" offset="0.09375"/><stop stop-opacity="1" stop-color="rgb(24.385071%, 72.624207%, 92.965698%)" offset="0.101562"/><stop stop-opacity="1" stop-color="rgb(24.446106%, 72.428894%, 93.02063%)" offset="0.109375"/><stop stop-opacity="1" stop-color="rgb(24.507141%, 72.232056%, 93.075562%)" offset="0.117187"/><stop stop-opacity="1" stop-color="rgb(24.568176%, 72.036743%, 93.128967%)" offset="0.125"/><stop stop-opacity="1" stop-color="rgb(24.629211%, 71.841431%, 93.183899%)" offset="0.132812"/><stop stop-opacity="1" stop-color="rgb(24.690247%, 71.644592%, 93.238831%)" offset="0.140625"/><stop stop-opacity="1" stop-color="rgb(24.751282%, 71.44928%, 93.293762%)" offset="0.148437"/><stop stop-opacity="1" stop-color="rgb(24.812317%, 71.252441%, 93.348694%)" offset="0.15625"/><stop stop-opacity="1" stop-color="rgb(24.873352%, 71.057129%, 93.403625%)" offset="0.164062"/><stop stop-opacity="1" stop-color="rgb(24.934387%, 70.860291%, 93.457031%)" offset="0.171875"/><stop stop-opacity="1" stop-color="rgb(24.995422%, 70.664978%, 93.511963%)" offset="0.179688"/><stop stop-opacity="1" stop-color="rgb(25.056458%, 70.46814%, 93.566895%)" offset="0.1875"/><stop stop-opacity="1" stop-color="rgb(25.14801%, 70.175171%, 93.649292%)" offset="0.203125"/><stop stop-opacity="1" stop-color="rgb(25.239563%, 69.880676%, 93.730164%)" offset="0.210938"/><stop stop-opacity="1" stop-color="rgb(25.300598%, 69.685364%, 93.785095%)" offset="0.21875"/><stop stop-opacity="1" stop-color="rgb(25.361633%, 69.488525%, 93.840027%)" offset="0.226562"/><stop stop-opacity="1" stop-color="rgb(25.422668%, 69.293213%, 93.894958%)" offset="0.234375"/><stop stop-opacity="1" stop-color="rgb(25.483704%, 69.096375%, 93.94989%)" offset="0.242187"/><stop stop-opacity="1" stop-color="rgb(25.544739%, 68.901062%, 94.004822%)" offset="0.25"/><stop stop-opacity="1" stop-color="rgb(25.605774%, 68.70575%, 94.058228%)" offset="0.257812"/><stop stop-opacity="1" stop-color="rgb(25.666809%, 68.508911%, 94.113159%)" offset="0.265625"/><stop stop-opacity="1" stop-color="rgb(25.727844%, 68.313599%, 94.168091%)" offset="0.273437"/><stop stop-opacity="1" stop-color="rgb(25.788879%, 68.11676%, 94.223022%)" offset="0.28125"/><stop stop-opacity="1" stop-color="rgb(25.849915%, 67.921448%, 94.277954%)" offset="0.289062"/><stop stop-opacity="1" stop-color="rgb(25.91095%, 67.724609%, 94.33136%)" offset="0.296875"/><stop stop-opacity="1" stop-color="rgb(26.002502%, 67.431641%, 94.413757%)" offset="0.3125"/><stop stop-opacity="1" stop-color="rgb(26.094055%, 67.137146%, 94.496155%)" offset="0.320312"/><stop stop-opacity="1" stop-color="rgb(26.15509%, 66.941833%, 94.551086%)" offset="0.328125"/><stop stop-opacity="1" stop-color="rgb(26.216125%, 66.744995%, 94.604492%)" offset="0.335938"/><stop stop-opacity="1" stop-color="rgb(26.277161%, 66.549683%, 94.659424%)" offset="0.34375"/><stop stop-opacity="1" stop-color="rgb(26.338196%, 66.352844%, 94.714355%)" offset="0.351562"/><stop stop-opacity="1" stop-color="rgb(26.399231%, 66.157532%, 94.769287%)" offset="0.359375"/><stop stop-opacity="1" stop-color="rgb(26.460266%, 65.962219%, 94.824219%)" offset="0.367187"/><stop stop-opacity="1" stop-color="rgb(26.521301%, 65.765381%, 94.87915%)" offset="0.375"/><stop stop-opacity="1" stop-color="rgb(26.582336%, 65.570068%, 94.932556%)" offset="0.382812"/><stop stop-opacity="1" stop-color="rgb(26.643372%, 65.37323%, 94.987488%)" offset="0.390625"/><stop stop-opacity="1" stop-color="rgb(26.704407%, 65.177917%, 95.042419%)" offset="0.398437"/><stop stop-opacity="1" stop-color="rgb(26.765442%, 64.981079%, 95.097351%)" offset="0.40625"/><stop stop-opacity="1" stop-color="rgb(26.856995%, 64.68811%, 95.178223%)" offset="0.421875"/><stop stop-opacity="1" stop-color="rgb(26.948547%, 64.393616%, 95.26062%)" offset="0.429688"/><stop stop-opacity="1" stop-color="rgb(27.009583%, 64.198303%, 95.315552%)" offset="0.4375"/><stop stop-opacity="1" stop-color="rgb(27.070618%, 64.001465%, 95.370483%)" offset="0.445312"/><stop stop-opacity="1" stop-color="rgb(27.131653%, 63.806152%, 95.425415%)" offset="0.453125"/><stop stop-opacity="1" stop-color="rgb(27.192688%, 63.609314%, 95.478821%)" offset="0.460937"/><stop stop-opacity="1" stop-color="rgb(27.253723%, 63.414001%, 95.533752%)" offset="0.46875"/><stop stop-opacity="1" stop-color="rgb(27.314758%, 63.217163%, 95.588684%)" offset="0.476562"/><stop stop-opacity="1" stop-color="rgb(27.375793%, 63.021851%, 95.643616%)" offset="0.484375"/><stop stop-opacity="1" stop-color="rgb(27.436829%, 62.826538%, 95.698547%)" offset="0.492187"/><stop stop-opacity="1" stop-color="rgb(27.497864%, 62.6297%, 95.753479%)" offset="0.5"/><stop stop-opacity="1" stop-color="rgb(27.558899%, 62.434387%, 95.806885%)" offset="0.507812"/><stop stop-opacity="1" stop-color="rgb(27.619934%, 62.237549%, 95.861816%)" offset="0.515625"/><stop stop-opacity="1" stop-color="rgb(27.680969%, 62.042236%, 95.916748%)" offset="0.523437"/><stop stop-opacity="1" stop-color="rgb(27.742004%, 61.845398%, 95.97168%)" offset="0.53125"/><stop stop-opacity="1" stop-color="rgb(27.833557%, 61.552429%, 96.052551%)" offset="0.546875"/><stop stop-opacity="1" stop-color="rgb(27.92511%, 61.257935%, 96.134949%)" offset="0.554688"/><stop stop-opacity="1" stop-color="rgb(27.986145%, 61.062622%, 96.18988%)" offset="0.5625"/><stop stop-opacity="1" stop-color="rgb(28.04718%, 60.865784%, 96.244812%)" offset="0.570312"/><stop stop-opacity="1" stop-color="rgb(28.108215%, 60.670471%, 96.299744%)" offset="0.578125"/><stop stop-opacity="1" stop-color="rgb(28.16925%, 60.473633%, 96.353149%)" offset="0.585938"/><stop stop-opacity="1" stop-color="rgb(28.230286%, 60.27832%, 96.408081%)" offset="0.59375"/><stop stop-opacity="1" stop-color="rgb(28.291321%, 60.083008%, 96.463013%)" offset="0.601562"/><stop stop-opacity="1" stop-color="rgb(28.352356%, 59.886169%, 96.517944%)" offset="0.609375"/><stop stop-opacity="1" stop-color="rgb(28.413391%, 59.690857%, 96.572876%)" offset="0.617187"/><stop stop-opacity="1" stop-color="rgb(28.474426%, 59.494019%, 96.627808%)" offset="0.625"/><stop stop-opacity="1" stop-color="rgb(28.535461%, 59.298706%, 96.681213%)" offset="0.632812"/><stop stop-opacity="1" stop-color="rgb(28.596497%, 59.101868%, 96.736145%)" offset="0.640625"/><stop stop-opacity="1" stop-color="rgb(28.688049%, 58.808899%, 96.818542%)" offset="0.65625"/><stop stop-opacity="1" stop-color="rgb(28.779602%, 58.514404%, 96.90094%)" offset="0.664062"/><stop stop-opacity="1" stop-color="rgb(28.840637%, 58.319092%, 96.954346%)" offset="0.671875"/><stop stop-opacity="1" stop-color="rgb(28.901672%, 58.122253%, 97.009277%)" offset="0.679688"/><stop stop-opacity="1" stop-color="rgb(28.962708%, 57.926941%, 97.064209%)" offset="0.6875"/><stop stop-opacity="1" stop-color="rgb(29.023743%, 57.730103%, 97.119141%)" offset="0.695312"/><stop stop-opacity="1" stop-color="rgb(29.084778%, 57.53479%, 97.174072%)" offset="0.703125"/><stop stop-opacity="1" stop-color="rgb(29.145813%, 57.339478%, 97.227478%)" offset="0.710937"/><stop stop-opacity="1" stop-color="rgb(29.206848%, 57.142639%, 97.28241%)" offset="0.71875"/><stop stop-opacity="1" stop-color="rgb(29.267883%, 56.947327%, 97.337341%)" offset="0.726562"/><stop stop-opacity="1" stop-color="rgb(29.328918%, 56.750488%, 97.392273%)" offset="0.734375"/><stop stop-opacity="1" stop-color="rgb(29.389954%, 56.555176%, 97.447205%)" offset="0.742188"/><stop stop-opacity="1" stop-color="rgb(29.450989%, 56.358337%, 97.502136%)" offset="0.75"/><stop stop-opacity="1" stop-color="rgb(29.512024%, 56.163025%, 97.555542%)" offset="0.757812"/><stop stop-opacity="1" stop-color="rgb(29.573059%, 55.966187%, 97.610474%)" offset="0.765625"/><stop stop-opacity="1" stop-color="rgb(29.664612%, 55.673218%, 97.692871%)" offset="0.78125"/><stop stop-opacity="1" stop-color="rgb(29.756165%, 55.378723%, 97.775269%)" offset="0.789062"/><stop stop-opacity="1" stop-color="rgb(29.8172%, 55.183411%, 97.828674%)" offset="0.796875"/><stop stop-opacity="1" stop-color="rgb(29.878235%, 54.986572%, 97.883606%)" offset="0.804687"/><stop stop-opacity="1" stop-color="rgb(29.93927%, 54.79126%, 97.938538%)" offset="0.8125"/><stop stop-opacity="1" stop-color="rgb(30.000305%, 54.594421%, 97.993469%)" offset="0.820312"/><stop stop-opacity="1" stop-color="rgb(30.06134%, 54.399109%, 98.048401%)" offset="0.828125"/><stop stop-opacity="1" stop-color="rgb(30.122375%, 54.203796%, 98.101807%)" offset="0.835938"/><stop stop-opacity="1" stop-color="rgb(30.183411%, 54.006958%, 98.156738%)" offset="0.84375"/><stop stop-opacity="1" stop-color="rgb(30.244446%, 53.811646%, 98.21167%)" offset="0.851562"/><stop stop-opacity="1" stop-color="rgb(30.305481%, 53.614807%, 98.266602%)" offset="0.859375"/><stop stop-opacity="1" stop-color="rgb(30.366516%, 53.419495%, 98.321533%)" offset="0.867187"/><stop stop-opacity="1" stop-color="rgb(30.427551%, 53.222656%, 98.376465%)" offset="0.875"/><stop stop-opacity="1" stop-color="rgb(30.519104%, 52.929688%, 98.457336%)" offset="0.890625"/><stop stop-opacity="1" stop-color="rgb(30.610657%, 52.635193%, 98.539734%)" offset="0.898437"/><stop stop-opacity="1" stop-color="rgb(30.671692%, 52.43988%, 98.594666%)" offset="0.90625"/><stop stop-opacity="1" stop-color="rgb(30.732727%, 52.243042%, 98.649597%)" offset="0.914062"/><stop stop-opacity="1" stop-color="rgb(30.793762%, 52.047729%, 98.703003%)" offset="0.921875"/><stop stop-opacity="1" stop-color="rgb(30.854797%, 51.850891%, 98.757935%)" offset="0.929688"/><stop stop-opacity="1" stop-color="rgb(30.915833%, 51.655579%, 98.812866%)" offset="0.9375"/><stop stop-opacity="1" stop-color="rgb(30.976868%, 51.460266%, 98.867798%)" offset="0.945312"/><stop stop-opacity="1" stop-color="rgb(31.037903%, 51.263428%, 98.922729%)" offset="0.953125"/><stop stop-opacity="1" stop-color="rgb(31.098938%, 51.068115%, 98.976135%)" offset="0.960938"/><stop stop-opacity="1" stop-color="rgb(31.159973%, 50.871277%, 99.031067%)" offset="0.96875"/><stop stop-opacity="1" stop-color="rgb(31.221008%, 50.675964%, 99.085999%)" offset="0.976563"/><stop stop-opacity="1" stop-color="rgb(31.282043%, 50.479126%, 99.14093%)" offset="0.984375"/><stop stop-opacity="1" stop-color="rgb(31.340027%, 50.289917%, 99.19281%)" offset="1"/></linearGradient><clipPath id="2cb0616583"><path d="M 200 208 L 203 208 L 203 211.617188 L 200 211.617188 Z M 200 208 " clip-rule="nonzero"/></clipPath><clipPath id="e4e352ced3"><path d="M 200 206 L 205.394531 206 L 205.394531 211.617188 L 200 211.617188 Z M 200 206 " clip-rule="nonzero"/></clipPath><clipPath id="b9be847d1f"><path d="M 200.316406 211.515625 C 200.3125 211.179688 200.351562 210.082031 200.902344 209.007812 C 201.074219 208.671875 201.296875 208.335938 201.585938 208.027344 C 202.332031 207.230469 203.515625 206.617188 205.390625 206.617188 L 205.390625 208.492188 C 204.007812 208.492188 203 208.699219 202.269531 209.007812 C 202.007812 209.121094 201.78125 209.242188 201.582031 209.375 C 200.429688 210.144531 200.320312 211.1875 200.316406 211.515625 Z M 200.316406 211.515625 " clip-rule="nonzero"/></clipPath><linearGradient x1="167.431777" gradientTransform="matrix(-0.0211035, 0, 0, -0.0207987, 208.923979, 208.279445)" y1="-37.771" x2="408.041788" gradientUnits="userSpaceOnUse" y2="-37.771" id="a2b351f0b1"><stop stop-opacity="1" stop-color="rgb(23.919678%, 74.119568%, 92.549133%)" offset="0"/><stop stop-opacity="1" stop-color="rgb(23.919678%, 74.119568%, 92.549133%)" offset="0.03125"/><stop stop-opacity="1" stop-color="rgb(23.953247%, 74.009705%, 92.579651%)" offset="0.046875"/><stop stop-opacity="1" stop-color="rgb(24.01886%, 73.800659%, 92.637634%)" offset="0.0546875"/><stop stop-opacity="1" stop-color="rgb(24.079895%, 73.605347%, 92.692566%)" offset="0.0625"/><stop stop-opacity="1" stop-color="rgb(24.14093%, 73.408508%, 92.747498%)" offset="0.0703125"/><stop stop-opacity="1" stop-color="rgb(24.201965%, 73.213196%, 92.802429%)" offset="0.078125"/><stop stop-opacity="1" stop-color="rgb(24.263%, 73.016357%, 92.855835%)" offset="0.0859375"/><stop stop-opacity="1" stop-color="rgb(24.324036%, 72.821045%, 92.910767%)" offset="0.09375"/><stop stop-opacity="1" stop-color="rgb(24.385071%, 72.625732%, 92.965698%)" offset="0.101562"/><stop stop-opacity="1" stop-color="rgb(24.446106%, 72.428894%, 93.02063%)" offset="0.109375"/><stop stop-opacity="1" stop-color="rgb(24.507141%, 72.233582%, 93.075562%)" offset="0.117187"/><stop stop-opacity="1" stop-color="rgb(24.568176%, 72.036743%, 93.128967%)" offset="0.125"/><stop stop-opacity="1" stop-color="rgb(24.629211%, 71.841431%, 93.183899%)" offset="0.132812"/><stop stop-opacity="1" stop-color="rgb(24.690247%, 71.644592%, 93.238831%)" offset="0.140625"/><stop stop-opacity="1" stop-color="rgb(24.751282%, 71.44928%, 93.293762%)" offset="0.148437"/><stop stop-opacity="1" stop-color="rgb(24.812317%, 71.252441%, 93.348694%)" offset="0.15625"/><stop stop-opacity="1" stop-color="rgb(24.90387%, 70.959473%, 93.429565%)" offset="0.171875"/><stop stop-opacity="1" stop-color="rgb(24.995422%, 70.664978%, 93.511963%)" offset="0.179688"/><stop stop-opacity="1" stop-color="rgb(25.056458%, 70.469666%, 93.566895%)" offset="0.1875"/><stop stop-opacity="1" stop-color="rgb(25.117493%, 70.272827%, 93.621826%)" offset="0.195312"/><stop stop-opacity="1" stop-color="rgb(25.178528%, 70.077515%, 93.676758%)" offset="0.203125"/><stop stop-opacity="1" stop-color="rgb(25.239563%, 69.880676%, 93.730164%)" offset="0.210937"/><stop stop-opacity="1" stop-color="rgb(25.300598%, 69.685364%, 93.785095%)" offset="0.21875"/><stop stop-opacity="1" stop-color="rgb(25.361633%, 69.490051%, 93.840027%)" offset="0.226562"/><stop stop-opacity="1" stop-color="rgb(25.422668%, 69.293213%, 93.894958%)" offset="0.234375"/><stop stop-opacity="1" stop-color="rgb(25.483704%, 69.0979%, 93.94989%)" offset="0.242188"/><stop stop-opacity="1" stop-color="rgb(25.544739%, 68.901062%, 94.003296%)" offset="0.25"/><stop stop-opacity="1" stop-color="rgb(25.605774%, 68.70575%, 94.058228%)" offset="0.257812"/><stop stop-opacity="1" stop-color="rgb(25.666809%, 68.508911%, 94.113159%)" offset="0.265625"/><stop stop-opacity="1" stop-color="rgb(25.727844%, 68.313599%, 94.168091%)" offset="0.273437"/><stop stop-opacity="1" stop-color="rgb(25.788879%, 68.11676%, 94.223022%)" offset="0.28125"/><stop stop-opacity="1" stop-color="rgb(25.880432%, 67.823792%, 94.303894%)" offset="0.296875"/><stop stop-opacity="1" stop-color="rgb(25.971985%, 67.529297%, 94.386292%)" offset="0.304687"/><stop stop-opacity="1" stop-color="rgb(26.03302%, 67.333984%, 94.441223%)" offset="0.3125"/><stop stop-opacity="1" stop-color="rgb(26.094055%, 67.137146%, 94.496155%)" offset="0.320312"/><stop stop-opacity="1" stop-color="rgb(26.15509%, 66.941833%, 94.551086%)" offset="0.328125"/><stop stop-opacity="1" stop-color="rgb(26.216125%, 66.744995%, 94.604492%)" offset="0.335937"/><stop stop-opacity="1" stop-color="rgb(26.277161%, 66.549683%, 94.659424%)" offset="0.34375"/><stop stop-opacity="1" stop-color="rgb(26.338196%, 66.35437%, 94.714355%)" offset="0.351562"/><stop stop-opacity="1" stop-color="rgb(26.399231%, 66.157532%, 94.769287%)" offset="0.359375"/><stop stop-opacity="1" stop-color="rgb(26.460266%, 65.962219%, 94.824219%)" offset="0.367188"/><stop stop-opacity="1" stop-color="rgb(26.521301%, 65.765381%, 94.877625%)" offset="0.375"/><stop stop-opacity="1" stop-color="rgb(26.582336%, 65.570068%, 94.932556%)" offset="0.382812"/><stop stop-opacity="1" stop-color="rgb(26.643372%, 65.37323%, 94.987488%)" offset="0.390625"/><stop stop-opacity="1" stop-color="rgb(26.704407%, 65.177917%, 95.042419%)" offset="0.398437"/><stop stop-opacity="1" stop-color="rgb(26.765442%, 64.981079%, 95.097351%)" offset="0.40625"/><stop stop-opacity="1" stop-color="rgb(26.856995%, 64.68811%, 95.178223%)" offset="0.421875"/><stop stop-opacity="1" stop-color="rgb(26.948547%, 64.393616%, 95.26062%)" offset="0.429687"/><stop stop-opacity="1" stop-color="rgb(27.009583%, 64.198303%, 95.315552%)" offset="0.4375"/><stop stop-opacity="1" stop-color="rgb(27.070618%, 64.001465%, 95.370483%)" offset="0.445312"/><stop stop-opacity="1" stop-color="rgb(27.131653%, 63.806152%, 95.425415%)" offset="0.453125"/><stop stop-opacity="1" stop-color="rgb(27.192688%, 63.609314%, 95.478821%)" offset="0.460937"/><stop stop-opacity="1" stop-color="rgb(27.253723%, 63.414001%, 95.533752%)" offset="0.46875"/><stop stop-opacity="1" stop-color="rgb(27.314758%, 63.218689%, 95.588684%)" offset="0.476562"/><stop stop-opacity="1" stop-color="rgb(27.375793%, 63.021851%, 95.643616%)" offset="0.484375"/><stop stop-opacity="1" stop-color="rgb(27.436829%, 62.826538%, 95.698547%)" offset="0.492188"/><stop stop-opacity="1" stop-color="rgb(27.497864%, 62.6297%, 95.753479%)" offset="0.5"/><stop stop-opacity="1" stop-color="rgb(27.558899%, 62.434387%, 95.806885%)" offset="0.507812"/><stop stop-opacity="1" stop-color="rgb(27.619934%, 62.237549%, 95.861816%)" offset="0.515625"/><stop stop-opacity="1" stop-color="rgb(27.680969%, 62.042236%, 95.916748%)" offset="0.523437"/><stop stop-opacity="1" stop-color="rgb(27.742004%, 61.845398%, 95.97168%)" offset="0.53125"/><stop stop-opacity="1" stop-color="rgb(27.833557%, 61.552429%, 96.052551%)" offset="0.546875"/><stop stop-opacity="1" stop-color="rgb(27.92511%, 61.257935%, 96.134949%)" offset="0.554687"/><stop stop-opacity="1" stop-color="rgb(27.986145%, 61.062622%, 96.18988%)" offset="0.5625"/><stop stop-opacity="1" stop-color="rgb(28.04718%, 60.865784%, 96.244812%)" offset="0.570312"/><stop stop-opacity="1" stop-color="rgb(28.108215%, 60.670471%, 96.299744%)" offset="0.578125"/><stop stop-opacity="1" stop-color="rgb(28.16925%, 60.473633%, 96.353149%)" offset="0.585938"/><stop stop-opacity="1" stop-color="rgb(28.230286%, 60.27832%, 96.408081%)" offset="0.59375"/><stop stop-opacity="1" stop-color="rgb(28.291321%, 60.083008%, 96.463013%)" offset="0.601562"/><stop stop-opacity="1" stop-color="rgb(28.352356%, 59.886169%, 96.517944%)" offset="0.609375"/><stop stop-opacity="1" stop-color="rgb(28.413391%, 59.690857%, 96.572876%)" offset="0.617188"/><stop stop-opacity="1" stop-color="rgb(28.474426%, 59.494019%, 96.627808%)" offset="0.625"/><stop stop-opacity="1" stop-color="rgb(28.535461%, 59.298706%, 96.681213%)" offset="0.632812"/><stop stop-opacity="1" stop-color="rgb(28.596497%, 59.101868%, 96.736145%)" offset="0.640625"/><stop stop-opacity="1" stop-color="rgb(28.657532%, 58.906555%, 96.791077%)" offset="0.648437"/><stop stop-opacity="1" stop-color="rgb(28.718567%, 58.709717%, 96.846008%)" offset="0.65625"/><stop stop-opacity="1" stop-color="rgb(28.81012%, 58.416748%, 96.92688%)" offset="0.671875"/><stop stop-opacity="1" stop-color="rgb(28.901672%, 58.122253%, 97.009277%)" offset="0.679687"/><stop stop-opacity="1" stop-color="rgb(28.962708%, 57.926941%, 97.064209%)" offset="0.6875"/><stop stop-opacity="1" stop-color="rgb(29.023743%, 57.730103%, 97.119141%)" offset="0.695312"/><stop stop-opacity="1" stop-color="rgb(29.084778%, 57.53479%, 97.174072%)" offset="0.703125"/><stop stop-opacity="1" stop-color="rgb(29.145813%, 57.337952%, 97.227478%)" offset="0.710937"/><stop stop-opacity="1" stop-color="rgb(29.206848%, 57.142639%, 97.28241%)" offset="0.71875"/><stop stop-opacity="1" stop-color="rgb(29.267883%, 56.947327%, 97.337341%)" offset="0.726562"/><stop stop-opacity="1" stop-color="rgb(29.328918%, 56.750488%, 97.392273%)" offset="0.734375"/><stop stop-opacity="1" stop-color="rgb(29.389954%, 56.555176%, 97.447205%)" offset="0.742187"/><stop stop-opacity="1" stop-color="rgb(29.450989%, 56.358337%, 97.502136%)" offset="0.75"/><stop stop-opacity="1" stop-color="rgb(29.512024%, 56.163025%, 97.555542%)" offset="0.757812"/><stop stop-opacity="1" stop-color="rgb(29.573059%, 55.966187%, 97.610474%)" offset="0.765625"/><stop stop-opacity="1" stop-color="rgb(29.634094%, 55.770874%, 97.665405%)" offset="0.773437"/><stop stop-opacity="1" stop-color="rgb(29.695129%, 55.574036%, 97.720337%)" offset="0.78125"/><stop stop-opacity="1" stop-color="rgb(29.786682%, 55.281067%, 97.801208%)" offset="0.796875"/><stop stop-opacity="1" stop-color="rgb(29.878235%, 54.986572%, 97.883606%)" offset="0.804687"/><stop stop-opacity="1" stop-color="rgb(29.93927%, 54.79126%, 97.938538%)" offset="0.8125"/><stop stop-opacity="1" stop-color="rgb(30.000305%, 54.594421%, 97.993469%)" offset="0.820312"/><stop stop-opacity="1" stop-color="rgb(30.06134%, 54.399109%, 98.048401%)" offset="0.828125"/><stop stop-opacity="1" stop-color="rgb(30.122375%, 54.202271%, 98.103333%)" offset="0.835938"/><stop stop-opacity="1" stop-color="rgb(30.183411%, 54.006958%, 98.156738%)" offset="0.84375"/><stop stop-opacity="1" stop-color="rgb(30.244446%, 53.811646%, 98.21167%)" offset="0.851562"/><stop stop-opacity="1" stop-color="rgb(30.305481%, 53.614807%, 98.266602%)" offset="0.859375"/><stop stop-opacity="1" stop-color="rgb(30.366516%, 53.419495%, 98.321533%)" offset="0.867188"/><stop stop-opacity="1" stop-color="rgb(30.427551%, 53.222656%, 98.376465%)" offset="0.875"/><stop stop-opacity="1" stop-color="rgb(30.488586%, 53.027344%, 98.429871%)" offset="0.882812"/><stop stop-opacity="1" stop-color="rgb(30.549622%, 52.830505%, 98.484802%)" offset="0.890625"/><stop stop-opacity="1" stop-color="rgb(30.610657%, 52.635193%, 98.539734%)" offset="0.898437"/><stop stop-opacity="1" stop-color="rgb(30.671692%, 52.438354%, 98.594666%)" offset="0.90625"/><stop stop-opacity="1" stop-color="rgb(30.763245%, 52.145386%, 98.675537%)" offset="0.921875"/><stop stop-opacity="1" stop-color="rgb(30.854797%, 51.850891%, 98.757935%)" offset="0.929687"/><stop stop-opacity="1" stop-color="rgb(30.915833%, 51.655579%, 98.812866%)" offset="0.9375"/><stop stop-opacity="1" stop-color="rgb(30.976868%, 51.45874%, 98.867798%)" offset="0.945312"/><stop stop-opacity="1" stop-color="rgb(31.037903%, 51.263428%, 98.922729%)" offset="0.953125"/><stop stop-opacity="1" stop-color="rgb(31.098938%, 51.066589%, 98.977661%)" offset="0.960938"/><stop stop-opacity="1" stop-color="rgb(31.159973%, 50.871277%, 99.031067%)" offset="0.96875"/><stop stop-opacity="1" stop-color="rgb(31.221008%, 50.674438%, 99.085999%)" offset="0.976562"/><stop stop-opacity="1" stop-color="rgb(31.282043%, 50.479126%, 99.14093%)" offset="0.984375"/><stop stop-opacity="1" stop-color="rgb(31.340027%, 50.289917%, 99.19281%)" offset="1"/></linearGradient><clipPath id="7260049dc5"><path d="M 169 96 L 205 96 L 205 109 L 169 109 Z M 169 96 " clip-rule="nonzero"/></clipPath><clipPath id="f6f7662f15"><path d="M 163.28125 99.984375 L 208.769531 95.082031 L 211.742188 122.671875 L 166.253906 127.574219 Z M 163.28125 99.984375 " clip-rule="nonzero"/></clipPath><clipPath id="bd6da3d95c"><path d="M 163.28125 99.984375 L 208.769531 95.082031 L 211.742188 122.671875 L 166.253906 127.574219 Z M 163.28125 99.984375 " clip-rule="nonzero"/></clipPath><clipPath id="1e6277979a"><path d="M 169 103 L 205 103 L 205 116 L 169 116 Z M 169 103 " clip-rule="nonzero"/></clipPath><clipPath id="9dd7584f30"><path d="M 163.28125 99.984375 L 208.769531 95.082031 L 211.742188 122.671875 L 166.253906 127.574219 Z M 163.28125 99.984375 " clip-rule="nonzero"/></clipPath><clipPath id="a132d69096"><path d="M 163.28125 99.984375 L 208.769531 95.082031 L 211.742188 122.671875 L 166.253906 127.574219 Z M 163.28125 99.984375 " clip-rule="nonzero"/></clipPath><clipPath id="1f35f51b33"><path d="M 169 106 L 206 106 L 206 117 L 169 117 Z M 169 106 " clip-rule="nonzero"/></clipPath><clipPath id="cf266ee480"><path d="M 163.28125 99.984375 L 208.769531 95.082031 L 211.742188 122.671875 L 166.253906 127.574219 Z M 163.28125 99.984375 " clip-rule="nonzero"/></clipPath><clipPath id="f3e9968ccb"><path d="M 163.28125 99.984375 L 208.769531 95.082031 L 211.742188 122.671875 L 166.253906 127.574219 Z M 163.28125 99.984375 " clip-rule="nonzero"/></clipPath><clipPath id="8edd9d26a0"><path d="M 165 103 L 211 103 L 211 127 L 165 127 Z M 165 103 " clip-rule="nonzero"/></clipPath><clipPath id="383a7f00d6"><path d="M 163.28125 99.984375 L 208.769531 95.082031 L 211.742188 122.671875 L 166.253906 127.574219 Z M 163.28125 99.984375 " clip-rule="nonzero"/></clipPath><clipPath id="f242a506f6"><path d="M 163.28125 99.984375 L 208.769531 95.082031 L 211.742188 122.671875 L 166.253906 127.574219 Z M 163.28125 99.984375 " clip-rule="nonzero"/></clipPath><clipPath id="77c941006d"><path d="M 171 122 L 181 122 L 181 126 L 171 126 Z M 171 122 " clip-rule="nonzero"/></clipPath><clipPath id="7d84d2d0cb"><path d="M 163.28125 99.984375 L 208.769531 95.082031 L 211.742188 122.671875 L 166.253906 127.574219 Z M 163.28125 99.984375 " clip-rule="nonzero"/></clipPath><clipPath id="f6297544e3"><path d="M 163.28125 99.984375 L 208.769531 95.082031 L 211.742188 122.671875 L 166.253906 127.574219 Z M 163.28125 99.984375 " clip-rule="nonzero"/></clipPath></defs><path fill="#f6f6f6" d="M 157.171875 193.203125 C 156.980469 193.390625 151.585938 199.226562 151.203125 204.558594 C 150.824219 209.886719 153.933594 213.566406 154.503906 213.503906 C 155.074219 213.4375 163.136719 200.433594 162.4375 198.023438 C 161.742188 195.613281 157.296875 192.820312 156.851562 193.265625 " fill-opacity="1" fill-rule="nonzero"/><g clip-path="url(#fcdccb5f45)"><path fill="#f6f6f6" d="M 188.257812 243.078125 C 188.277344 244.246094 188.3125 245.4375 188.359375 246.621094 C 188.566406 251.753906 189.050781 256.660156 190.105469 258.402344 C 192.644531 262.585938 207.878906 264.109375 210.035156 260.304688 C 212.195312 256.496094 205.085938 252.816406 205.085938 252.816406 C 205.628906 251.339844 205.757812 248.75 205.65625 245.785156 C 205.617188 244.648438 205.542969 243.457031 205.445312 242.253906 L 205.445312 242.25 C 204.90625 235.546875 203.617188 228.410156 203.308594 227.949219 L 188.328125 231.757812 C 188.328125 231.757812 188.148438 237.109375 188.257812 243.078125 Z M 188.257812 243.078125 " fill-opacity="1" fill-rule="nonzero"/></g><path fill="#54a3e6" d="M 188.257812 243.078125 C 188.277344 244.246094 188.3125 245.4375 188.359375 246.621094 C 189.957031 247.039062 191.597656 247.304688 193.242188 247.453125 C 195.179688 247.625 197.132812 247.59375 199.058594 247.355469 C 201.132812 247.097656 203.167969 246.671875 205.136719 245.972656 C 205.3125 245.910156 205.484375 245.847656 205.65625 245.785156 C 205.617188 244.648438 205.542969 243.457031 205.445312 242.253906 L 205.445312 242.25 C 205.445312 242.25 205.445312 242.253906 205.445312 242.253906 C 205.441406 242.253906 205.441406 242.253906 205.4375 242.253906 C 203.410156 243.085938 201.28125 243.65625 199.113281 243.96875 C 198.664062 244.023438 198.210938 244.070312 197.757812 244.101562 C 195.929688 244.242188 194.085938 244.195312 192.265625 243.964844 C 190.90625 243.769531 189.566406 243.476562 188.257812 243.078125 Z M 188.257812 243.078125 " fill-opacity="1" fill-rule="nonzero"/><g clip-path="url(#cc1f958295)"><path fill="#f6f6f6" d="M 178.671875 243.078125 C 178.652344 244.246094 178.617188 245.4375 178.570312 246.621094 C 178.363281 251.753906 177.878906 256.660156 176.824219 258.402344 C 174.285156 262.585938 159.050781 264.109375 156.894531 260.304688 C 154.734375 256.496094 161.84375 252.816406 161.84375 252.816406 C 161.300781 251.339844 161.171875 248.75 161.273438 245.785156 C 161.3125 244.648438 161.386719 243.457031 161.484375 242.253906 L 161.484375 242.25 C 162.023438 235.546875 163.3125 228.410156 163.621094 227.949219 L 178.601562 231.757812 C 178.601562 231.757812 178.78125 237.109375 178.671875 243.078125 Z M 178.671875 243.078125 " fill-opacity="1" fill-rule="nonzero"/></g><path fill="#54a3e6" d="M 178.671875 243.078125 C 178.652344 244.246094 178.617188 245.4375 178.570312 246.621094 C 176.972656 247.039062 175.332031 247.304688 173.6875 247.453125 C 171.75 247.625 169.796875 247.59375 167.867188 247.355469 C 165.796875 247.097656 163.761719 246.671875 161.792969 245.972656 C 161.617188 245.910156 161.445312 245.847656 161.273438 245.785156 C 161.3125 244.648438 161.386719 243.457031 161.484375 242.253906 L 161.484375 242.25 C 161.484375 242.25 161.484375 242.253906 161.484375 242.253906 C 161.488281 242.253906 161.488281 242.253906 161.492188 242.253906 C 163.519531 243.085938 165.648438 243.65625 167.816406 243.96875 C 168.265625 244.023438 168.71875 244.070312 169.171875 244.101562 C 171 244.242188 172.84375 244.195312 174.664062 243.964844 C 176.019531 243.769531 177.363281 243.476562 178.671875 243.078125 Z M 178.671875 243.078125 " fill-opacity="1" fill-rule="nonzero"/><path fill="#54a3e6" d="M 185.734375 242.164062 C 185.867188 242.222656 186.003906 242.277344 186.136719 242.335938 C 186.078125 242.308594 186.019531 242.285156 185.957031 242.257812 C 185.882812 242.226562 185.808594 242.195312 185.734375 242.164062 Z M 185.734375 242.164062 " fill-opacity="1" fill-rule="nonzero"/><path fill="#f6f6f6" d="M 156.566406 224.847656 C 156.621094 226.839844 156.886719 228.652344 157.425781 230.1875 C 161.613281 242.113281 190.652344 247.695312 201.855469 239.195312 C 205.917969 236.113281 208.152344 231.875 209.222656 227.242188 C 209.53125 225.898438 209.746094 224.523438 209.875 223.132812 C 211.097656 210.035156 205.03125 195.675781 205.03125 195.675781 L 165.296875 190.09375 C 165.296875 190.089844 165.296875 190.089844 165.296875 190.085938 C 165.15625 190.390625 157.824219 207.769531 156.699219 220.878906 C 156.582031 222.257812 156.53125 223.585938 156.566406 224.847656 Z M 156.566406 224.847656 " fill-opacity="1" fill-rule="nonzero"/><path fill="#54a3e6" d="M 188.710938 193.472656 C 189.804688 193.546875 190.882812 193.652344 191.949219 193.789062 C 193.015625 193.925781 194.046875 194.089844 195.046875 194.285156 C 196.046875 194.480469 196.996094 194.699219 197.890625 194.945312 C 198.785156 195.1875 199.613281 195.453125 200.367188 195.738281 C 201.125 196.023438 201.796875 196.324219 202.382812 196.640625 C 202.972656 196.957031 203.464844 197.28125 203.859375 197.613281 C 204.257812 197.949219 204.550781 198.285156 204.742188 198.621094 C 204.933594 198.960938 205.019531 199.296875 204.996094 199.625 C 204.972656 199.957031 204.84375 200.277344 204.609375 200.585938 C 204.375 200.894531 204.039062 201.1875 203.601562 201.464844 C 203.164062 201.742188 202.632812 202 202.007812 202.230469 C 201.382812 202.464844 200.675781 202.675781 199.886719 202.855469 C 199.097656 203.035156 198.246094 203.1875 197.324219 203.3125 C 196.40625 203.433594 195.4375 203.523438 194.421875 203.582031 C 193.402344 203.640625 192.355469 203.667969 191.28125 203.660156 C 190.207031 203.652344 189.125 203.609375 188.03125 203.535156 C 186.941406 203.464844 185.863281 203.359375 184.796875 203.222656 C 183.730469 203.085938 182.695312 202.917969 181.695312 202.722656 C 180.695312 202.53125 179.75 202.308594 178.855469 202.066406 C 177.960938 201.820312 177.132812 201.554688 176.378906 201.269531 C 175.621094 200.984375 174.949219 200.683594 174.363281 200.367188 C 173.773438 200.050781 173.28125 199.726562 172.882812 199.394531 C 172.488281 199.0625 172.191406 198.726562 172 198.386719 C 171.8125 198.046875 171.726562 197.714844 171.75 197.382812 C 171.769531 197.054688 171.898438 196.734375 172.132812 196.421875 C 172.367188 196.113281 172.707031 195.820312 173.144531 195.542969 C 173.582031 195.265625 174.113281 195.011719 174.738281 194.777344 C 175.363281 194.542969 176.070312 194.335938 176.859375 194.152344 C 177.644531 193.972656 178.5 193.820312 179.417969 193.699219 C 180.339844 193.574219 181.308594 193.484375 182.324219 193.425781 C 183.339844 193.367188 184.386719 193.34375 185.460938 193.351562 C 186.539062 193.359375 187.621094 193.398438 188.710938 193.472656 Z M 188.710938 193.472656 " fill-opacity="1" fill-rule="nonzero"/><path fill="#54a3e6" d="M 156.566406 224.847656 C 159.613281 225.449219 162.667969 226.003906 165.734375 226.492188 C 169.015625 227.015625 172.308594 227.46875 175.609375 227.828125 C 178.738281 228.167969 181.875 228.421875 185.015625 228.566406 C 188.160156 228.710938 191.3125 228.75 194.460938 228.664062 C 197.613281 228.574219 200.765625 228.355469 203.898438 227.996094 C 205.675781 227.789062 207.457031 227.550781 209.222656 227.242188 C 209.53125 225.898438 209.742188 224.523438 209.875 223.132812 C 208.4375 223.429688 206.988281 223.667969 205.535156 223.867188 C 205.527344 223.867188 205.519531 223.871094 205.511719 223.871094 C 203.089844 224.1875 200.65625 224.421875 198.214844 224.570312 C 193.730469 224.84375 189.226562 224.847656 184.734375 224.628906 C 180.347656 224.414062 175.96875 223.992188 171.613281 223.421875 C 171.601562 223.417969 171.585938 223.417969 171.574219 223.414062 C 169.023438 223.070312 166.480469 222.675781 163.945312 222.238281 C 161.523438 221.820312 159.109375 221.363281 156.699219 220.878906 C 156.582031 222.257812 156.53125 223.585938 156.566406 224.847656 Z M 156.566406 224.847656 " fill-opacity="1" fill-rule="nonzero"/><path fill="#54a3e6" d="M 196.539062 215.914062 L 181.722656 215.914062 C 181.503906 215.914062 181.296875 215.871094 181.09375 215.789062 C 180.894531 215.703125 180.71875 215.585938 180.5625 215.433594 C 180.410156 215.28125 180.292969 215.101562 180.210938 214.902344 C 180.125 214.703125 180.085938 214.492188 180.085938 214.277344 L 180.085938 213.933594 C 180.085938 213.714844 180.125 213.507812 180.210938 213.304688 C 180.292969 213.105469 180.410156 212.929688 180.5625 212.777344 C 180.71875 212.621094 180.894531 212.503906 181.09375 212.421875 C 181.296875 212.339844 181.503906 212.296875 181.722656 212.296875 L 196.539062 212.296875 C 196.753906 212.296875 196.964844 212.339844 197.164062 212.421875 C 197.363281 212.503906 197.542969 212.621094 197.695312 212.777344 C 197.847656 212.929688 197.96875 213.105469 198.050781 213.304688 C 198.132812 213.507812 198.175781 213.714844 198.175781 213.933594 L 198.175781 214.277344 C 198.175781 214.492188 198.132812 214.703125 198.050781 214.902344 C 197.96875 215.101562 197.847656 215.28125 197.695312 215.433594 C 197.542969 215.585938 197.363281 215.703125 197.164062 215.789062 C 196.964844 215.871094 196.753906 215.914062 196.539062 215.914062 Z M 196.539062 215.914062 " fill-opacity="1" fill-rule="nonzero"/><g clip-path="url(#2c89ff03ba)"><path fill="#54a3e6" d="M 238.0625 141.34375 C 238.378906 141.210938 242.609375 138.214844 247.335938 141.988281 C 252.0625 145.757812 253.90625 159.933594 249.628906 168.4375 C 245.351562 176.9375 236.90625 172.867188 236.898438 172.382812 C 236.890625 171.898438 238.0625 141.34375 238.0625 141.34375 Z M 238.0625 141.34375 " fill-opacity="1" fill-rule="nonzero"/></g><path fill="#f6f6f6" d="M 241.105469 141.128906 C 241.351562 141.367188 248.375 146.339844 247.367188 158.632812 C 246.363281 170.929688 241.578125 174.308594 234.988281 172.226562 C 228.402344 170.144531 228.269531 156.667969 229.152344 151.894531 C 230.03125 147.125 233.144531 144.40625 233.144531 144.40625 L 229.675781 122.773438 L 234.191406 121.378906 Z M 241.105469 141.128906 " fill-opacity="1" fill-rule="nonzero"/><path fill="#f6f6f6" d="M 234.207031 115.980469 C 234.410156 116.1875 234.59375 116.410156 234.757812 116.652344 C 234.917969 116.894531 235.054688 117.148438 235.164062 117.417969 C 235.277344 117.6875 235.359375 117.960938 235.417969 118.246094 C 235.472656 118.53125 235.503906 118.820312 235.503906 119.109375 C 235.503906 119.402344 235.472656 119.6875 235.417969 119.972656 C 235.359375 120.257812 235.277344 120.535156 235.164062 120.804688 C 235.054688 121.074219 234.917969 121.328125 234.757812 121.570312 C 234.59375 121.8125 234.410156 122.035156 234.207031 122.238281 C 234 122.445312 233.777344 122.628906 233.535156 122.789062 C 233.292969 122.953125 233.039062 123.085938 232.769531 123.199219 C 232.5 123.308594 232.222656 123.394531 231.9375 123.449219 C 231.652344 123.507812 231.367188 123.535156 231.074219 123.535156 C 230.785156 123.535156 230.496094 123.507812 230.210938 123.449219 C 229.925781 123.394531 229.648438 123.308594 229.378906 123.199219 C 229.113281 123.085938 228.855469 122.953125 228.617188 122.789062 C 228.375 122.628906 228.148438 122.445312 227.945312 122.238281 C 227.738281 122.035156 227.554688 121.8125 227.394531 121.570312 C 227.230469 121.328125 227.097656 121.074219 226.984375 120.804688 C 226.875 120.535156 226.789062 120.257812 226.734375 119.972656 C 226.675781 119.6875 226.648438 119.402344 226.648438 119.109375 C 226.648438 118.820312 226.675781 118.53125 226.734375 118.246094 C 226.789062 117.960938 226.875 117.6875 226.984375 117.417969 C 227.097656 117.148438 227.230469 116.894531 227.394531 116.652344 C 227.554688 116.410156 227.738281 116.1875 227.945312 115.980469 C 228.148438 115.777344 228.375 115.59375 228.617188 115.429688 C 228.855469 115.269531 229.113281 115.132812 229.378906 115.023438 C 229.648438 114.910156 229.925781 114.828125 230.210938 114.769531 C 230.496094 114.714844 230.785156 114.6875 231.074219 114.6875 C 231.367188 114.6875 231.652344 114.714844 231.9375 114.769531 C 232.222656 114.828125 232.5 114.910156 232.769531 115.023438 C 233.039062 115.132812 233.292969 115.269531 233.535156 115.429688 C 233.777344 115.59375 234 115.777344 234.207031 115.980469 Z M 234.207031 115.980469 " fill-opacity="1" fill-rule="nonzero"/><path fill="#4ac95b" d="M 139.480469 142.742188 C 139.410156 142.730469 139.429688 142.621094 139.5 142.632812 C 139.570312 142.648438 139.550781 142.753906 139.480469 142.742188 Z M 139.480469 142.742188 " fill-opacity="1" fill-rule="nonzero"/><g clip-path="url(#b63edf9b73)"><path fill="#f6f6f6" d="M 234.4375 182.058594 C 234.449219 182.042969 234.511719 181.878906 234.609375 181.585938 C 236.003906 177.476562 244.726562 147.480469 225.496094 128.292969 C 204.886719 107.730469 172.589844 109.269531 153.953125 121.449219 C 135.316406 133.632812 126.007812 164.558594 143.414062 184.273438 C 160.824219 203.992188 200.410156 203.113281 213.347656 199.851562 C 232.570312 195.003906 234.4375 182.058594 234.4375 182.058594 Z M 234.4375 182.058594 " fill-opacity="1" fill-rule="nonzero"/></g><path fill="#1e1915" d="M 231.519531 181.777344 C 234.300781 176.484375 239.671875 146.640625 226.492188 139.699219 C 213.3125 132.757812 177.292969 130.003906 168.9375 138.914062 C 160.585938 147.828125 158.34375 180.3125 171.714844 186.902344 C 185.089844 193.492188 222.855469 198.261719 231.519531 181.777344 Z M 231.519531 181.777344 " fill-opacity="1" fill-rule="nonzero"/><path fill="#54a3e6" d="M 192.445312 146.101562 C 192.289062 145.878906 192.167969 145.730469 191.960938 145.5 C 191.773438 145.296875 191.574219 145.105469 191.367188 144.925781 C 191.316406 144.882812 191.265625 144.839844 191.210938 144.796875 C 191.128906 144.730469 191.167969 144.761719 191.1875 144.777344 C 191.15625 144.753906 191.128906 144.730469 191.097656 144.710938 C 190.980469 144.625 190.863281 144.542969 190.746094 144.46875 C 190.511719 144.320312 190.273438 144.1875 190.023438 144.070312 C 190 144.058594 189.832031 143.988281 189.890625 144.011719 C 189.832031 143.984375 189.769531 143.960938 189.707031 143.9375 C 189.574219 143.890625 189.4375 143.84375 189.300781 143.804688 C 189.164062 143.765625 189.039062 143.734375 188.910156 143.707031 C 188.84375 143.695312 188.773438 143.679688 188.707031 143.667969 C 188.667969 143.664062 188.628906 143.65625 188.589844 143.652344 C 188.484375 143.636719 188.71875 143.664062 188.535156 143.644531 C 188.25 143.613281 187.96875 143.605469 187.683594 143.617188 C 187.546875 143.621094 187.414062 143.632812 187.277344 143.648438 C 187.179688 143.660156 187.34375 143.636719 187.246094 143.652344 C 187.21875 143.660156 187.1875 143.664062 187.160156 143.667969 C 187.074219 143.683594 186.988281 143.699219 186.902344 143.71875 C 186.25 143.863281 185.757812 144.078125 185.203125 144.46875 C 184.964844 144.640625 184.597656 144.511719 184.457031 144.273438 C 184.296875 144 184.414062 143.699219 184.65625 143.527344 C 185.714844 142.773438 187.066406 142.4375 188.359375 142.539062 C 189.683594 142.640625 190.902344 143.171875 191.9375 143.992188 C 192.5 144.4375 192.976562 144.96875 193.390625 145.554688 C 193.558594 145.792969 193.433594 146.160156 193.191406 146.296875 C 192.921875 146.457031 192.617188 146.34375 192.445312 146.101562 Z M 192.445312 146.101562 " fill-opacity="1" fill-rule="nonzero"/><path fill="#54a3e6" d="M 211.492188 147.433594 C 211.648438 147.210938 211.769531 147.0625 211.976562 146.832031 C 212.164062 146.628906 212.363281 146.4375 212.574219 146.257812 C 212.625 146.214844 212.675781 146.171875 212.726562 146.128906 C 212.8125 146.0625 212.769531 146.09375 212.75 146.109375 C 212.78125 146.085938 212.8125 146.0625 212.839844 146.042969 C 212.957031 145.957031 213.074219 145.875 213.195312 145.800781 C 213.425781 145.652344 213.667969 145.519531 213.917969 145.402344 C 213.9375 145.390625 214.105469 145.320312 214.046875 145.34375 C 214.105469 145.316406 214.167969 145.292969 214.230469 145.269531 C 214.363281 145.222656 214.5 145.175781 214.636719 145.136719 C 214.773438 145.097656 214.898438 145.066406 215.03125 145.039062 C 215.097656 145.027344 215.164062 145.011719 215.230469 145 C 215.269531 144.996094 215.308594 144.988281 215.347656 144.984375 C 215.453125 144.96875 215.21875 144.996094 215.40625 144.976562 C 215.6875 144.945312 215.96875 144.9375 216.253906 144.949219 C 216.390625 144.953125 216.527344 144.964844 216.664062 144.980469 C 216.757812 144.992188 216.59375 144.96875 216.691406 144.984375 C 216.71875 144.992188 216.75 144.996094 216.777344 145 C 216.863281 145.015625 216.949219 145.03125 217.035156 145.050781 C 217.691406 145.195312 218.183594 145.410156 218.734375 145.800781 C 218.972656 145.972656 219.339844 145.84375 219.480469 145.605469 C 219.640625 145.332031 219.523438 145.03125 219.285156 144.859375 C 218.226562 144.105469 216.871094 143.769531 215.582031 143.871094 C 214.253906 143.972656 213.035156 144.503906 212 145.324219 C 211.4375 145.769531 210.960938 146.300781 210.550781 146.886719 C 210.378906 147.125 210.507812 147.492188 210.746094 147.628906 C 211.019531 147.789062 211.320312 147.675781 211.492188 147.433594 Z M 211.492188 147.433594 " fill-opacity="1" fill-rule="nonzero"/><path fill="#54a3e6" d="M 186.238281 148.808594 C 186.691406 148.820312 187.136719 148.894531 187.578125 149.027344 C 188.019531 149.160156 188.445312 149.351562 188.859375 149.601562 C 189.269531 149.851562 189.660156 150.15625 190.027344 150.511719 C 190.394531 150.871094 190.734375 151.273438 191.042969 151.722656 C 191.351562 152.171875 191.625 152.660156 191.863281 153.1875 C 192.101562 153.710938 192.296875 154.265625 192.457031 154.847656 C 192.613281 155.425781 192.730469 156.027344 192.800781 156.640625 C 192.875 157.253906 192.902344 157.875 192.886719 158.496094 C 192.867188 159.121094 192.808594 159.738281 192.703125 160.347656 C 192.597656 160.957031 192.453125 161.550781 192.261719 162.121094 C 192.074219 162.695312 191.847656 163.234375 191.582031 163.75 C 191.316406 164.261719 191.019531 164.734375 190.6875 165.164062 C 190.351562 165.597656 189.996094 165.984375 189.609375 166.320312 C 189.222656 166.65625 188.816406 166.941406 188.390625 167.167969 C 187.96875 167.394531 187.53125 167.5625 187.082031 167.671875 C 186.636719 167.785156 186.183594 167.832031 185.730469 167.820312 C 185.277344 167.808594 184.832031 167.734375 184.390625 167.601562 C 183.949219 167.46875 183.523438 167.277344 183.109375 167.027344 C 182.699219 166.777344 182.308594 166.472656 181.941406 166.117188 C 181.574219 165.761719 181.234375 165.355469 180.925781 164.90625 C 180.617188 164.457031 180.34375 163.96875 180.105469 163.445312 C 179.867188 162.917969 179.671875 162.363281 179.511719 161.785156 C 179.355469 161.203125 179.238281 160.605469 179.167969 159.988281 C 179.09375 159.375 179.066406 158.757812 179.082031 158.132812 C 179.101562 157.507812 179.160156 156.890625 179.265625 156.28125 C 179.371094 155.671875 179.515625 155.082031 179.707031 154.507812 C 179.894531 153.9375 180.121094 153.394531 180.386719 152.882812 C 180.652344 152.371094 180.949219 151.898438 181.28125 151.464844 C 181.617188 151.03125 181.972656 150.644531 182.359375 150.308594 C 182.746094 149.972656 183.152344 149.691406 183.578125 149.460938 C 184 149.234375 184.4375 149.066406 184.886719 148.957031 C 185.332031 148.847656 185.785156 148.796875 186.238281 148.808594 Z M 186.238281 148.808594 " fill-opacity="1" fill-rule="nonzero"/><path fill="#54a3e6" d="M 218.824219 150.410156 C 219.265625 150.421875 219.703125 150.496094 220.132812 150.632812 C 220.5625 150.769531 220.976562 150.960938 221.378906 151.214844 C 221.78125 151.464844 222.160156 151.769531 222.515625 152.128906 C 222.871094 152.488281 223.199219 152.894531 223.496094 153.34375 C 223.796875 153.796875 224.058594 154.285156 224.289062 154.8125 C 224.519531 155.339844 224.707031 155.890625 224.859375 156.472656 C 225.011719 157.054688 225.117188 157.65625 225.183594 158.269531 C 225.253906 158.882812 225.277344 159.503906 225.253906 160.128906 C 225.234375 160.75 225.171875 161.367188 225.066406 161.976562 C 224.960938 162.585938 224.8125 163.175781 224.625 163.75 C 224.4375 164.320312 224.214844 164.859375 223.953125 165.371094 C 223.6875 165.882812 223.394531 166.355469 223.066406 166.785156 C 222.742188 167.214844 222.386719 167.601562 222.011719 167.933594 C 221.632812 168.269531 221.234375 168.550781 220.816406 168.777344 C 220.402344 169 219.972656 169.167969 219.535156 169.277344 C 219.097656 169.382812 218.660156 169.429688 218.21875 169.417969 C 217.773438 169.402344 217.339844 169.328125 216.910156 169.191406 C 216.480469 169.058594 216.0625 168.863281 215.664062 168.609375 C 215.261719 168.359375 214.882812 168.054688 214.527344 167.695312 C 214.171875 167.335938 213.84375 166.933594 213.542969 166.480469 C 213.246094 166.03125 212.980469 165.539062 212.753906 165.015625 C 212.523438 164.488281 212.332031 163.933594 212.183594 163.351562 C 212.03125 162.769531 211.921875 162.171875 211.855469 161.554688 C 211.789062 160.941406 211.765625 160.320312 211.785156 159.699219 C 211.804688 159.074219 211.871094 158.457031 211.976562 157.847656 C 212.082031 157.238281 212.226562 156.648438 212.414062 156.078125 C 212.601562 155.507812 212.828125 154.964844 213.089844 154.453125 C 213.351562 153.941406 213.648438 153.472656 213.972656 153.039062 C 214.300781 152.609375 214.652344 152.226562 215.03125 151.890625 C 215.410156 151.554688 215.808594 151.277344 216.222656 151.050781 C 216.640625 150.824219 217.066406 150.65625 217.503906 150.550781 C 217.941406 150.441406 218.382812 150.394531 218.824219 150.410156 Z M 218.824219 150.410156 " fill-opacity="1" fill-rule="nonzero"/><path fill="#54a3e6" d="M 136.28125 141.710938 C 136.597656 141.574219 140.828125 138.582031 145.554688 142.351562 C 150.28125 146.125 152.121094 160.300781 147.847656 168.800781 C 143.570312 177.304688 135.121094 173.234375 135.113281 172.75 C 135.105469 172.265625 136.28125 141.710938 136.28125 141.710938 Z M 136.28125 141.710938 " fill-opacity="1" fill-rule="nonzero"/><path fill="#f6f6f6" d="M 139.320312 141.496094 C 139.570312 141.734375 146.589844 146.703125 145.585938 159 C 144.578125 171.296875 139.792969 174.675781 133.207031 172.589844 C 126.621094 170.507812 126.488281 157.035156 127.367188 152.261719 C 128.246094 147.488281 131.359375 144.773438 131.359375 144.773438 L 127.890625 123.136719 L 132.410156 121.742188 Z M 139.320312 141.496094 " fill-opacity="1" fill-rule="nonzero"/><path fill="#f6f6f6" d="M 132.421875 116.347656 C 132.628906 116.554688 132.8125 116.777344 132.972656 117.019531 C 133.136719 117.261719 133.269531 117.515625 133.382812 117.785156 C 133.492188 118.050781 133.578125 118.328125 133.632812 118.613281 C 133.691406 118.898438 133.71875 119.1875 133.71875 119.476562 C 133.71875 119.769531 133.691406 120.054688 133.632812 120.339844 C 133.578125 120.625 133.492188 120.902344 133.382812 121.171875 C 133.269531 121.4375 133.136719 121.695312 132.972656 121.933594 C 132.8125 122.175781 132.628906 122.402344 132.421875 122.605469 C 132.21875 122.8125 131.992188 122.996094 131.753906 123.15625 C 131.511719 123.316406 131.253906 123.453125 130.988281 123.566406 C 130.71875 123.675781 130.441406 123.761719 130.15625 123.816406 C 129.871094 123.875 129.582031 123.902344 129.292969 123.902344 C 129 123.902344 128.714844 123.875 128.429688 123.816406 C 128.144531 123.761719 127.867188 123.675781 127.597656 123.566406 C 127.328125 123.453125 127.074219 123.316406 126.832031 123.15625 C 126.589844 122.996094 126.367188 122.8125 126.160156 122.605469 C 125.957031 122.402344 125.773438 122.175781 125.609375 121.933594 C 125.449219 121.695312 125.3125 121.4375 125.203125 121.171875 C 125.089844 120.902344 125.007812 120.625 124.949219 120.339844 C 124.894531 120.054688 124.863281 119.769531 124.863281 119.476562 C 124.863281 119.1875 124.894531 118.898438 124.949219 118.613281 C 125.007812 118.328125 125.089844 118.050781 125.203125 117.785156 C 125.3125 117.515625 125.449219 117.261719 125.609375 117.019531 C 125.773438 116.777344 125.957031 116.554688 126.160156 116.347656 C 126.367188 116.144531 126.589844 115.960938 126.832031 115.796875 C 127.074219 115.636719 127.328125 115.5 127.597656 115.390625 C 127.867188 115.277344 128.144531 115.195312 128.429688 115.136719 C 128.714844 115.082031 129 115.050781 129.292969 115.050781 C 129.582031 115.050781 129.871094 115.082031 130.15625 115.136719 C 130.441406 115.195312 130.71875 115.277344 130.988281 115.390625 C 131.253906 115.5 131.511719 115.636719 131.753906 115.796875 C 131.992188 115.960938 132.21875 116.144531 132.421875 116.347656 Z M 132.421875 116.347656 " fill-opacity="1" fill-rule="nonzero"/><path fill="#f6f6f6" d="M 175.960938 197.386719 C 176.148438 197.324219 181.480469 192.1875 178.054688 187.175781 C 174.625 182.164062 171.644531 182.671875 171.261719 177.59375 C 170.882812 172.519531 167.261719 167.253906 160.980469 169.855469 C 154.695312 172.457031 154.570312 179.941406 155.710938 184.511719 C 156.855469 189.078125 160.789062 193.835938 161.105469 193.964844 C 161.425781 194.089844 158.882812 200.179688 155.585938 202.273438 C 152.285156 204.367188 150.824219 210.648438 155.140625 214.265625 C 159.457031 217.878906 167.199219 215.976562 171.390625 210.457031 C 175.578125 204.9375 175.832031 197.707031 175.832031 197.707031 " fill-opacity="1" fill-rule="nonzero"/><path fill="#1e1915" d="M 171.625 210.636719 L 171.152344 210.277344 C 173.28125 207.472656 174.359375 204.207031 174.890625 201.957031 C 175.464844 199.515625 175.535156 197.714844 175.535156 197.695312 L 176.128906 197.714844 C 176.125 197.789062 176.054688 199.582031 175.46875 202.078125 C 174.925781 204.386719 173.820312 207.742188 171.625 210.636719 Z M 171.625 210.636719 " fill-opacity="1" fill-rule="nonzero"/><path fill="#1e1915" d="M 155.742188 202.523438 L 155.425781 202.023438 C 158.421875 200.121094 160.664062 194.980469 160.828125 194.121094 C 160.695312 194.007812 160.46875 193.769531 160.058594 193.261719 C 159.546875 192.625 158.984375 191.847656 158.46875 191.0625 C 157.417969 189.464844 156.039062 187.042969 155.421875 184.582031 C 154.730469 181.8125 154.675781 178.824219 155.273438 176.375 C 155.644531 174.851562 156.261719 173.519531 157.109375 172.421875 C 158.074219 171.171875 159.335938 170.214844 160.867188 169.582031 C 162.132812 169.058594 163.355469 168.824219 164.496094 168.882812 C 165.558594 168.9375 166.550781 169.246094 167.445312 169.796875 C 169.726562 171.199219 171.300781 174.179688 171.558594 177.574219 C 171.777344 180.519531 172.871094 181.46875 174.523438 182.910156 C 175.589844 183.839844 176.921875 184.996094 178.296875 187.007812 C 178.980469 188.007812 179.375 189.085938 179.472656 190.214844 C 179.554688 191.164062 179.421875 192.152344 179.085938 193.15625 C 178.632812 194.503906 177.886719 195.625 177.34375 196.328125 C 176.882812 196.921875 176.253906 197.601562 176.050781 197.667969 L 175.863281 197.109375 C 175.832031 197.117188 175.8125 197.132812 175.808594 197.132812 C 175.957031 197.03125 177.277344 195.769531 178.15625 193.882812 C 179.265625 191.5 179.148438 189.300781 177.808594 187.339844 C 176.476562 185.390625 175.230469 184.308594 174.132812 183.355469 C 173.292969 182.621094 172.566406 181.992188 172.011719 181.132812 C 171.410156 180.203125 171.078125 179.085938 170.964844 177.617188 C 170.726562 174.410156 169.257812 171.605469 167.136719 170.300781 C 165.414062 169.238281 163.378906 169.183594 161.09375 170.128906 C 155.289062 172.53125 154.722656 179.339844 155.996094 184.4375 C 157.101562 188.84375 160.828125 193.390625 161.242188 193.699219 C 161.308594 193.734375 161.410156 193.8125 161.425781 193.988281 C 161.46875 194.453125 160.734375 196.1875 159.816406 197.777344 C 158.921875 199.332031 157.488281 201.414062 155.742188 202.523438 Z M 161.214844 193.6875 Z M 161.214844 193.6875 " fill-opacity="1" fill-rule="nonzero"/><path fill="#f6f6f6" d="M 234.035156 173.15625 C 233.414062 172.980469 229.53125 171.316406 227.054688 174.867188 C 224.578125 178.421875 226.609375 181.972656 223.691406 184.953125 C 220.769531 187.9375 217.46875 190.09375 217.027344 193.265625 C 216.582031 196.4375 218.105469 199.226562 218.484375 199.292969 C 218.867188 199.355469 217.152344 202.335938 214.359375 202.589844 C 211.566406 202.84375 205.664062 203.160156 205.664062 203.160156 C 205.664062 203.160156 208.964844 215.40625 209.027344 216.101562 C 209.09375 216.800781 218.359375 217.433594 225.40625 214.898438 C 232.449219 212.359375 235.371094 203.921875 233.464844 198.785156 C 233.464844 198.785156 236.703125 197.070312 239.367188 188.761719 C 242.035156 180.449219 236.511719 173.851562 234.035156 173.15625 Z M 234.035156 173.15625 " fill-opacity="1" fill-rule="nonzero"/><path fill="#1e1915" d="M 205.679688 203.457031 L 205.648438 202.867188 C 205.707031 202.863281 211.578125 202.546875 214.332031 202.296875 C 215.601562 202.179688 216.578125 201.472656 217.171875 200.898438 C 217.789062 200.300781 218.125 199.726562 218.214844 199.480469 C 218.101562 199.390625 217.960938 199.226562 217.78125 198.917969 C 217.558594 198.546875 217.339844 198.054688 217.164062 197.539062 C 216.832031 196.550781 216.484375 194.996094 216.734375 193.222656 C 216.894531 192.074219 217.40625 190.988281 218.347656 189.816406 C 219.171875 188.792969 220.222656 187.820312 221.335938 186.796875 C 222.042969 186.144531 222.773438 185.46875 223.480469 184.746094 C 224.941406 183.253906 225.101562 181.589844 225.269531 179.828125 C 225.429688 178.164062 225.59375 176.445312 226.8125 174.699219 C 227.835938 173.226562 229.210938 172.429688 230.898438 172.328125 C 232.238281 172.246094 233.421875 172.640625 233.925781 172.808594 C 234.003906 172.835938 234.074219 172.859375 234.117188 172.871094 C 235.28125 173.199219 237.191406 174.777344 238.640625 177.472656 C 239.496094 179.070312 240.042969 180.777344 240.265625 182.554688 C 240.527344 184.648438 240.320312 186.765625 239.648438 188.851562 C 238.257812 193.183594 236.707031 195.714844 235.652344 197.070312 C 234.484375 198.570312 233.640625 199.027344 233.601562 199.046875 L 233.324219 198.523438 C 233.332031 198.519531 234.121094 198.082031 235.222656 196.65625 C 236.238281 195.339844 237.734375 192.882812 239.085938 188.671875 C 240.679688 183.703125 239.164062 179.699219 238.117188 177.753906 C 236.8125 175.324219 235.035156 173.746094 233.957031 173.441406 C 233.898438 173.425781 233.828125 173.398438 233.738281 173.371094 C 232.679688 173.015625 229.453125 171.945312 227.296875 175.035156 C 226.167969 176.65625 226.011719 178.296875 225.859375 179.886719 C 225.6875 181.671875 225.511719 183.519531 223.902344 185.160156 C 223.183594 185.894531 222.449219 186.574219 221.734375 187.230469 C 219.539062 189.261719 217.640625 191.011719 217.316406 193.304688 C 217.09375 194.894531 217.390625 196.300781 217.675781 197.199219 C 218.019531 198.273438 218.4375 198.902344 218.574219 199.007812 C 218.714844 199.050781 218.839844 199.179688 218.832031 199.402344 C 218.816406 199.820312 218.285156 200.640625 217.589844 201.3125 C 216.925781 201.957031 215.832031 202.753906 214.386719 202.886719 C 211.621094 203.136719 205.738281 203.453125 205.679688 203.457031 Z M 218.585938 199.015625 Z M 218.535156 199 Z M 218.535156 199 " fill-opacity="1" fill-rule="nonzero"/><path fill="#54a3e6" d="M 206.472656 178.59375 C 206.472656 179.078125 206.441406 179.558594 206.375 180.035156 C 206.3125 180.507812 206.21875 180.96875 206.09375 181.417969 C 205.964844 181.863281 205.8125 182.289062 205.628906 182.691406 C 205.449219 183.09375 205.242188 183.46875 205.007812 183.808594 C 204.777344 184.152344 204.523438 184.457031 204.25 184.726562 C 203.980469 184.996094 203.691406 185.222656 203.386719 185.410156 C 203.085938 185.59375 202.773438 185.734375 202.449219 185.828125 C 202.128906 185.921875 201.804688 185.96875 201.476562 185.96875 C 201.148438 185.96875 200.820312 185.921875 200.5 185.828125 C 200.179688 185.734375 199.867188 185.59375 199.5625 185.410156 C 199.257812 185.222656 198.972656 184.996094 198.699219 184.726562 C 198.425781 184.457031 198.171875 184.152344 197.941406 183.808594 C 197.710938 183.46875 197.503906 183.09375 197.320312 182.691406 C 197.136719 182.289062 196.984375 181.863281 196.859375 181.417969 C 196.734375 180.96875 196.636719 180.507812 196.574219 180.035156 C 196.511719 179.558594 196.476562 179.078125 196.476562 178.59375 C 196.476562 178.109375 196.511719 177.632812 196.574219 177.15625 C 196.636719 176.679688 196.734375 176.21875 196.859375 175.773438 C 196.984375 175.324219 197.136719 174.898438 197.320312 174.496094 C 197.503906 174.09375 197.710938 173.722656 197.941406 173.378906 C 198.171875 173.039062 198.425781 172.730469 198.699219 172.464844 C 198.972656 172.195312 199.257812 171.96875 199.5625 171.78125 C 199.867188 171.597656 200.179688 171.457031 200.5 171.363281 C 200.820312 171.265625 201.148438 171.21875 201.476562 171.21875 C 201.804688 171.21875 202.128906 171.265625 202.449219 171.363281 C 202.773438 171.457031 203.085938 171.597656 203.386719 171.78125 C 203.691406 171.96875 203.980469 172.195312 204.25 172.464844 C 204.523438 172.730469 204.777344 173.039062 205.007812 173.378906 C 205.242188 173.722656 205.449219 174.09375 205.628906 174.496094 C 205.8125 174.898438 205.964844 175.324219 206.09375 175.773438 C 206.21875 176.21875 206.3125 176.679688 206.375 177.15625 C 206.441406 177.632812 206.472656 178.109375 206.472656 178.59375 Z M 206.472656 178.59375 " fill-opacity="1" fill-rule="nonzero"/><g clip-path="url(#475e007d57)"><path fill="#1f2b5b" d="M 200.316406 206.804688 L 200.316406 204.117188 L 202.21875 204.117188 C 202.21875 204.117188 202.246094 205.375 201.757812 205.882812 C 201.269531 206.390625 200.316406 206.804688 200.316406 206.804688 Z M 200.316406 206.804688 " fill-opacity="1" fill-rule="nonzero"/></g><g clip-path="url(#571022419c)"><g clip-path="url(#07bd90c97c)"><path fill="url(#0e61ca5d62)" d="M 197.144531 204.21875 L 197.144531 209.117188 L 202.222656 209.117188 L 202.222656 204.21875 Z M 197.144531 204.21875 " fill-rule="nonzero"/></g></g><g clip-path="url(#2cb0616583)"><path fill="#1f2b5b" d="M 202.21875 208.925781 L 202.21875 211.617188 L 200.316406 211.617188 C 200.316406 211.617188 200.289062 210.355469 200.777344 209.847656 C 201.261719 209.34375 202.21875 208.925781 202.21875 208.925781 Z M 202.21875 208.925781 " fill-opacity="1" fill-rule="nonzero"/></g><g clip-path="url(#e4e352ced3)"><g clip-path="url(#b9be847d1f)"><path fill="url(#a2b351f0b1)" d="M 205.390625 211.515625 L 205.390625 206.617188 L 200.3125 206.617188 L 200.3125 211.515625 Z M 205.390625 211.515625 " fill-rule="nonzero"/></g></g><g clip-path="url(#7260049dc5)"><g clip-path="url(#f6f7662f15)"><g clip-path="url(#bd6da3d95c)"><path fill="#002d75" d="M 204.402344 104.039062 C 204.441406 104.375 204.457031 104.710938 204.453125 105.042969 C 203.550781 104.527344 202.597656 104.105469 201.609375 103.789062 C 196.652344 102.195312 191.578125 101.664062 186.527344 102.210938 C 181.476562 102.753906 176.632812 104.355469 172.128906 106.964844 C 171.226562 107.488281 170.386719 108.101562 169.617188 108.796875 C 169.542969 108.472656 169.484375 108.144531 169.449219 107.808594 C 168.949219 103.179688 172.308594 99.007812 176.9375 98.507812 L 195.105469 96.550781 C 199.734375 96.050781 203.90625 99.410156 204.402344 104.039062 Z M 204.402344 104.039062 " fill-opacity="1" fill-rule="nonzero"/></g></g></g><g clip-path="url(#1e6277979a)"><g clip-path="url(#9dd7584f30)"><g clip-path="url(#a132d69096)"><path fill="#002d75" d="M 204.320312 106.433594 C 203.394531 105.855469 202.359375 105.363281 201.21875 104.996094 C 196.433594 103.460938 191.535156 102.949219 186.664062 103.472656 C 181.789062 104 177.113281 105.542969 172.765625 108.066406 C 171.730469 108.664062 170.824219 109.363281 170.042969 110.128906 C 169.875 110.285156 169.710938 110.453125 169.558594 110.617188 C 171.121094 114.113281 174.804688 116.363281 178.816406 115.929688 L 186.0625 115.148438 L 185.957031 114.195312 L 183.664062 114.445312 C 182.730469 114.542969 181.882812 113.800781 181.773438 112.785156 C 181.664062 111.769531 182.332031 110.867188 183.265625 110.765625 L 185.5625 110.519531 L 185.316406 108.222656 C 185.214844 107.289062 185.957031 106.445312 186.96875 106.335938 C 187.984375 106.226562 188.890625 106.894531 188.992188 107.828125 L 189.238281 110.121094 L 191.535156 109.875 C 192.46875 109.773438 193.3125 110.515625 193.421875 111.53125 C 193.53125 112.546875 192.863281 113.453125 191.929688 113.550781 L 189.636719 113.800781 L 189.738281 114.753906 L 196.984375 113.972656 C 200.996094 113.539062 204.113281 110.554688 204.898438 106.808594 C 204.710938 106.675781 204.515625 106.550781 204.320312 106.433594 Z M 204.320312 106.433594 " fill-opacity="1" fill-rule="nonzero"/></g></g></g><g clip-path="url(#1f35f51b33)"><g clip-path="url(#cf266ee480)"><g clip-path="url(#f3e9968ccb)"><path fill="#ffffff" d="M 204.898438 106.808594 C 204.710938 106.675781 204.515625 106.550781 204.320312 106.433594 C 203.675781 110.027344 200.726562 112.929688 196.914062 113.339844 L 189.671875 114.121094 L 189.804688 115.386719 L 197.050781 114.605469 C 201.238281 114.152344 204.523438 111.089844 205.457031 107.214844 C 205.273438 107.074219 205.089844 106.941406 204.898438 106.808594 Z M 178.75 115.296875 C 174.9375 115.710938 171.4375 113.503906 170.039062 110.128906 C 169.875 110.285156 169.710938 110.453125 169.558594 110.617188 C 169.398438 110.789062 169.246094 110.957031 169.097656 111.132812 C 170.835938 114.722656 174.699219 117.015625 178.882812 116.5625 L 186.128906 115.78125 L 185.992188 114.519531 L 178.75 115.300781 Z M 178.75 115.296875 " fill-opacity="1" fill-rule="nonzero"/></g></g></g><g clip-path="url(#8edd9d26a0)"><g clip-path="url(#383a7f00d6)"><g clip-path="url(#f242a506f6)"><path fill="#002d75" d="M 210.089844 113.386719 C 209.355469 111.371094 207.824219 109.023438 205.457031 107.214844 C 205.273438 107.074219 205.089844 106.941406 204.898438 106.808594 C 204.710938 106.675781 204.515625 106.550781 204.320312 106.433594 C 203.394531 105.855469 202.359375 105.363281 201.21875 104.996094 C 196.433594 103.460938 191.535156 102.949219 186.664062 103.472656 C 181.789062 104 177.113281 105.542969 172.765625 108.066406 C 171.730469 108.667969 170.824219 109.363281 170.042969 110.128906 C 169.875 110.285156 169.710938 110.453125 169.558594 110.617188 C 169.398438 110.789062 169.246094 110.957031 169.097656 111.132812 C 167.171875 113.40625 166.175781 116.027344 165.886719 118.148438 C 165.539062 120.703125 166.070312 122.914062 167.347656 124.21875 C 168.070312 124.976562 168.855469 125.515625 169.65625 125.890625 C 169.859375 125.902344 170.351562 125.917969 171.019531 125.890625 C 171.398438 125.878906 171.835938 125.847656 172.308594 125.796875 C 174.707031 125.539062 178.085938 124.707031 180.039062 122.15625 C 180.21875 121.917969 180.390625 121.667969 180.546875 121.398438 C 180.722656 121.097656 181.109375 120.992188 181.414062 121.167969 C 181.71875 121.34375 181.820312 121.734375 181.644531 122.039062 C 180.238281 124.46875 177.898438 125.765625 175.644531 126.445312 C 177.011719 126.175781 178.394531 125.664062 179.695312 124.949219 C 182.488281 123.332031 185.507812 122.335938 188.660156 121.996094 C 191.808594 121.65625 194.972656 121.988281 198.0625 122.980469 C 199.847656 123.503906 201.707031 123.6875 203.421875 123.503906 C 205.457031 123.285156 208.246094 122.433594 209.953125 119.628906 C 210.921875 118.078125 210.96875 115.804688 210.089844 113.386719 Z M 183.777344 119.476562 C 183.261719 120.117188 182.324219 120.21875 181.683594 119.703125 C 181.042969 119.183594 180.941406 118.246094 181.460938 117.609375 C 181.976562 116.96875 182.914062 116.867188 183.554688 117.382812 C 184.195312 117.898438 184.296875 118.835938 183.777344 119.476562 Z M 189.882812 116.097656 C 189.984375 117.027344 189.242188 117.871094 188.226562 117.980469 C 187.210938 118.089844 186.308594 117.425781 186.207031 116.492188 L 185.957031 114.195312 L 183.664062 114.445312 C 182.730469 114.542969 181.882812 113.800781 181.773438 112.785156 C 181.664062 111.769531 182.332031 110.867188 183.265625 110.765625 L 185.5625 110.519531 L 185.316406 108.222656 C 185.214844 107.292969 185.957031 106.445312 186.96875 106.335938 C 187.984375 106.226562 188.890625 106.894531 188.992188 107.828125 L 189.238281 110.125 L 191.535156 109.875 C 192.46875 109.773438 193.3125 110.515625 193.421875 111.53125 C 193.53125 112.546875 192.863281 113.453125 191.929688 113.550781 L 189.636719 113.800781 Z M 189.882812 116.097656 " fill-opacity="1" fill-rule="nonzero"/><path fill="#002d75" d="M 210.089844 113.386719 C 209.355469 111.371094 207.824219 109.023438 205.457031 107.214844 C 205.273438 107.074219 205.089844 106.941406 204.898438 106.808594 C 204.710938 106.675781 204.515625 106.550781 204.320312 106.433594 C 203.394531 105.855469 202.359375 105.363281 201.21875 104.996094 C 196.433594 103.460938 191.535156 102.949219 186.664062 103.472656 C 181.789062 104 177.113281 105.542969 172.765625 108.066406 C 171.730469 108.667969 170.824219 109.363281 170.042969 110.128906 C 169.875 110.285156 169.710938 110.453125 169.558594 110.617188 C 169.398438 110.789062 169.246094 110.957031 169.097656 111.132812 C 167.171875 113.40625 166.175781 116.027344 165.886719 118.148438 C 165.539062 120.703125 166.070312 122.914062 167.347656 124.21875 C 168.070312 124.976562 168.855469 125.515625 169.65625 125.890625 C 169.859375 125.902344 170.351562 125.917969 171.019531 125.890625 C 171.398438 125.878906 171.835938 125.847656 172.308594 125.796875 C 174.707031 125.539062 178.085938 124.707031 180.039062 122.15625 C 180.21875 121.917969 180.390625 121.667969 180.546875 121.398438 C 180.722656 121.097656 181.109375 120.992188 181.414062 121.167969 C 181.71875 121.34375 181.820312 121.734375 181.644531 122.039062 C 180.238281 124.46875 177.898438 125.765625 175.644531 126.445312 C 177.011719 126.175781 178.394531 125.664062 179.695312 124.949219 C 182.488281 123.332031 185.507812 122.335938 188.660156 121.996094 C 191.808594 121.65625 194.972656 121.988281 198.0625 122.980469 C 199.847656 123.503906 201.707031 123.6875 203.421875 123.503906 C 205.457031 123.285156 208.246094 122.433594 209.953125 119.628906 C 210.921875 118.078125 210.96875 115.804688 210.089844 113.386719 Z M 183.777344 119.476562 C 183.261719 120.117188 182.324219 120.21875 181.683594 119.703125 C 181.042969 119.183594 180.941406 118.246094 181.460938 117.609375 C 181.976562 116.96875 182.914062 116.867188 183.554688 117.382812 C 184.195312 117.898438 184.296875 118.835938 183.777344 119.476562 Z M 189.882812 116.097656 C 189.984375 117.027344 189.242188 117.871094 188.226562 117.980469 C 187.210938 118.089844 186.308594 117.425781 186.207031 116.492188 L 185.957031 114.195312 L 183.664062 114.445312 C 182.730469 114.542969 181.882812 113.800781 181.773438 112.785156 C 181.664062 111.769531 182.332031 110.867188 183.265625 110.765625 L 185.5625 110.519531 L 185.316406 108.222656 C 185.214844 107.292969 185.957031 106.445312 186.96875 106.335938 C 187.984375 106.226562 188.890625 106.894531 188.992188 107.828125 L 189.238281 110.125 L 191.535156 109.875 C 192.46875 109.773438 193.3125 110.515625 193.421875 111.53125 C 193.53125 112.546875 192.863281 113.453125 191.929688 113.550781 L 189.636719 113.800781 Z M 189.882812 116.097656 " fill-opacity="1" fill-rule="nonzero"/></g></g></g><g clip-path="url(#77c941006d)"><g clip-path="url(#7d84d2d0cb)"><g clip-path="url(#f6297544e3)"><path fill="#002d75" d="M 180.039062 122.15625 C 178.085938 124.707031 174.703125 125.539062 172.308594 125.796875 C 171.835938 125.847656 171.398438 125.875 171.019531 125.890625 Z M 180.039062 122.15625 " fill-opacity="1" fill-rule="nonzero"/></g></g></g></svg>