<svg xmlns="http://www.w3.org/2000/svg" xmlns:xlink="http://www.w3.org/1999/xlink" width="500" zoomAndPan="magnify" viewBox="0 0 375 374.999991" height="500" preserveAspectRatio="xMidYMid meet" version="1.0"><defs><clipPath id="cf61c738e0"><path d="M 156 229 L 184 229 L 184 262.5 L 156 262.5 Z M 156 229 " clip-rule="nonzero"/></clipPath><clipPath id="6c2bb89d4d"><path d="M 234 137 L 248.8125 137 L 248.8125 169 L 234 169 Z M 234 137 " clip-rule="nonzero"/></clipPath><clipPath id="6331b30385"><path d="M 201 202.171875 L 204 202.171875 L 204 206 L 201 206 Z M 201 202.171875 " clip-rule="nonzero"/></clipPath><clipPath id="f9dd74a42f"><path d="M 197.96875 202.171875 L 204 202.171875 L 204 209 L 197.96875 209 Z M 197.96875 202.171875 " clip-rule="nonzero"/></clipPath><clipPath id="ff5db8cb48"><path d="M 203.96875 202.304688 C 203.972656 202.703125 203.925781 204.019531 203.277344 205.304688 C 203.074219 205.707031 202.808594 206.109375 202.46875 206.476562 C 201.585938 207.433594 200.1875 208.167969 197.96875 208.167969 L 197.96875 205.925781 C 199.605469 205.925781 200.796875 205.675781 201.660156 205.304688 C 201.96875 205.171875 202.238281 205.023438 202.46875 204.867188 C 203.832031 203.945312 203.964844 202.695312 203.96875 202.304688 Z M 203.96875 202.304688 " clip-rule="nonzero"/></clipPath><linearGradient x1="-0.0000901342" gradientTransform="matrix(0.0249488, 0, 0, 0.0249079, 197.96979, 202.182265)" y1="122.636002" x2="240.599916" gradientUnits="userSpaceOnUse" y2="122.636002" id="a3d14e52a9"><stop stop-opacity="1" stop-color="rgb(23.919678%, 74.119568%, 92.549133%)" offset="0"/><stop stop-opacity="1" stop-color="rgb(23.919678%, 74.119568%, 92.549133%)" offset="0.03125"/><stop stop-opacity="1" stop-color="rgb(23.953247%, 74.008179%, 92.579651%)" offset="0.046875"/><stop stop-opacity="1" stop-color="rgb(24.01886%, 73.800659%, 92.637634%)" offset="0.0546875"/><stop stop-opacity="1" stop-color="rgb(24.079895%, 73.603821%, 92.692566%)" offset="0.0625"/><stop stop-opacity="1" stop-color="rgb(24.171448%, 73.310852%, 92.774963%)" offset="0.078125"/><stop stop-opacity="1" stop-color="rgb(24.263%, 73.016357%, 92.855835%)" offset="0.0859375"/><stop stop-opacity="1" stop-color="rgb(24.324036%, 72.821045%, 92.910767%)" offset="0.09375"/><stop stop-opacity="1" stop-color="rgb(24.385071%, 72.624207%, 92.965698%)" offset="0.101563"/><stop stop-opacity="1" stop-color="rgb(24.446106%, 72.428894%, 93.02063%)" offset="0.109375"/><stop stop-opacity="1" stop-color="rgb(24.507141%, 72.232056%, 93.075562%)" offset="0.117188"/><stop stop-opacity="1" stop-color="rgb(24.568176%, 72.036743%, 93.128967%)" offset="0.125"/><stop stop-opacity="1" stop-color="rgb(24.629211%, 71.841431%, 93.183899%)" offset="0.132812"/><stop stop-opacity="1" stop-color="rgb(24.690247%, 71.644592%, 93.238831%)" offset="0.140625"/><stop stop-opacity="1" stop-color="rgb(24.751282%, 71.44928%, 93.293762%)" offset="0.148438"/><stop stop-opacity="1" stop-color="rgb(24.812317%, 71.252441%, 93.348694%)" offset="0.15625"/><stop stop-opacity="1" stop-color="rgb(24.873352%, 71.057129%, 93.403625%)" offset="0.164063"/><stop stop-opacity="1" stop-color="rgb(24.934387%, 70.860291%, 93.457031%)" offset="0.171875"/><stop stop-opacity="1" stop-color="rgb(24.995422%, 70.664978%, 93.511963%)" offset="0.179688"/><stop stop-opacity="1" stop-color="rgb(25.056458%, 70.46814%, 93.566895%)" offset="0.1875"/><stop stop-opacity="1" stop-color="rgb(25.14801%, 70.175171%, 93.649292%)" offset="0.203125"/><stop stop-opacity="1" stop-color="rgb(25.239563%, 69.880676%, 93.730164%)" offset="0.210938"/><stop stop-opacity="1" stop-color="rgb(25.300598%, 69.685364%, 93.785095%)" offset="0.21875"/><stop stop-opacity="1" stop-color="rgb(25.361633%, 69.488525%, 93.840027%)" offset="0.226563"/><stop stop-opacity="1" stop-color="rgb(25.422668%, 69.293213%, 93.894958%)" offset="0.234375"/><stop stop-opacity="1" stop-color="rgb(25.483704%, 69.096375%, 93.94989%)" offset="0.242188"/><stop stop-opacity="1" stop-color="rgb(25.544739%, 68.901062%, 94.003296%)" offset="0.25"/><stop stop-opacity="1" stop-color="rgb(25.605774%, 68.70575%, 94.058228%)" offset="0.257813"/><stop stop-opacity="1" stop-color="rgb(25.666809%, 68.508911%, 94.113159%)" offset="0.265625"/><stop stop-opacity="1" stop-color="rgb(25.727844%, 68.313599%, 94.168091%)" offset="0.273438"/><stop stop-opacity="1" stop-color="rgb(25.788879%, 68.11676%, 94.223022%)" offset="0.28125"/><stop stop-opacity="1" stop-color="rgb(25.849915%, 67.921448%, 94.277954%)" offset="0.289063"/><stop stop-opacity="1" stop-color="rgb(25.91095%, 67.724609%, 94.33136%)" offset="0.296875"/><stop stop-opacity="1" stop-color="rgb(26.002502%, 67.431641%, 94.413757%)" offset="0.3125"/><stop stop-opacity="1" stop-color="rgb(26.094055%, 67.137146%, 94.496155%)" offset="0.320313"/><stop stop-opacity="1" stop-color="rgb(26.15509%, 66.941833%, 94.551086%)" offset="0.328125"/><stop stop-opacity="1" stop-color="rgb(26.216125%, 66.744995%, 94.604492%)" offset="0.335938"/><stop stop-opacity="1" stop-color="rgb(26.277161%, 66.549683%, 94.659424%)" offset="0.34375"/><stop stop-opacity="1" stop-color="rgb(26.338196%, 66.352844%, 94.714355%)" offset="0.351563"/><stop stop-opacity="1" stop-color="rgb(26.399231%, 66.157532%, 94.769287%)" offset="0.359375"/><stop stop-opacity="1" stop-color="rgb(26.460266%, 65.962219%, 94.824219%)" offset="0.367188"/><stop stop-opacity="1" stop-color="rgb(26.521301%, 65.765381%, 94.87915%)" offset="0.375"/><stop stop-opacity="1" stop-color="rgb(26.582336%, 65.570068%, 94.932556%)" offset="0.382813"/><stop stop-opacity="1" stop-color="rgb(26.643372%, 65.37323%, 94.987488%)" offset="0.390625"/><stop stop-opacity="1" stop-color="rgb(26.704407%, 65.177917%, 95.042419%)" offset="0.398438"/><stop stop-opacity="1" stop-color="rgb(26.765442%, 64.981079%, 95.097351%)" offset="0.40625"/><stop stop-opacity="1" stop-color="rgb(26.856995%, 64.68811%, 95.178223%)" offset="0.421875"/><stop stop-opacity="1" stop-color="rgb(26.948547%, 64.393616%, 95.26062%)" offset="0.429688"/><stop stop-opacity="1" stop-color="rgb(27.009583%, 64.198303%, 95.315552%)" offset="0.4375"/><stop stop-opacity="1" stop-color="rgb(27.070618%, 64.001465%, 95.370483%)" offset="0.445313"/><stop stop-opacity="1" stop-color="rgb(27.131653%, 63.806152%, 95.425415%)" offset="0.453125"/><stop stop-opacity="1" stop-color="rgb(27.192688%, 63.609314%, 95.478821%)" offset="0.460938"/><stop stop-opacity="1" stop-color="rgb(27.253723%, 63.414001%, 95.533752%)" offset="0.46875"/><stop stop-opacity="1" stop-color="rgb(27.314758%, 63.217163%, 95.588684%)" offset="0.476563"/><stop stop-opacity="1" stop-color="rgb(27.375793%, 63.021851%, 95.643616%)" offset="0.484375"/><stop stop-opacity="1" stop-color="rgb(27.436829%, 62.826538%, 95.698547%)" offset="0.492188"/><stop stop-opacity="1" stop-color="rgb(27.497864%, 62.6297%, 95.753479%)" offset="0.5"/><stop stop-opacity="1" stop-color="rgb(27.558899%, 62.434387%, 95.806885%)" offset="0.507812"/><stop stop-opacity="1" stop-color="rgb(27.619934%, 62.237549%, 95.861816%)" offset="0.515625"/><stop stop-opacity="1" stop-color="rgb(27.680969%, 62.042236%, 95.916748%)" offset="0.523438"/><stop stop-opacity="1" stop-color="rgb(27.742004%, 61.845398%, 95.97168%)" offset="0.53125"/><stop stop-opacity="1" stop-color="rgb(27.833557%, 61.552429%, 96.052551%)" offset="0.546875"/><stop stop-opacity="1" stop-color="rgb(27.92511%, 61.257935%, 96.134949%)" offset="0.554688"/><stop stop-opacity="1" stop-color="rgb(27.986145%, 61.062622%, 96.18988%)" offset="0.5625"/><stop stop-opacity="1" stop-color="rgb(28.04718%, 60.865784%, 96.244812%)" offset="0.570312"/><stop stop-opacity="1" stop-color="rgb(28.108215%, 60.670471%, 96.299744%)" offset="0.578125"/><stop stop-opacity="1" stop-color="rgb(28.16925%, 60.473633%, 96.353149%)" offset="0.585938"/><stop stop-opacity="1" stop-color="rgb(28.230286%, 60.27832%, 96.408081%)" offset="0.59375"/><stop stop-opacity="1" stop-color="rgb(28.291321%, 60.083008%, 96.463013%)" offset="0.601562"/><stop stop-opacity="1" stop-color="rgb(28.352356%, 59.886169%, 96.517944%)" offset="0.609375"/><stop stop-opacity="1" stop-color="rgb(28.413391%, 59.690857%, 96.572876%)" offset="0.617188"/><stop stop-opacity="1" stop-color="rgb(28.474426%, 59.494019%, 96.627808%)" offset="0.625"/><stop stop-opacity="1" stop-color="rgb(28.535461%, 59.298706%, 96.681213%)" offset="0.632812"/><stop stop-opacity="1" stop-color="rgb(28.596497%, 59.101868%, 96.736145%)" offset="0.640625"/><stop stop-opacity="1" stop-color="rgb(28.688049%, 58.808899%, 96.818542%)" offset="0.65625"/><stop stop-opacity="1" stop-color="rgb(28.779602%, 58.514404%, 96.90094%)" offset="0.664062"/><stop stop-opacity="1" stop-color="rgb(28.840637%, 58.319092%, 96.954346%)" offset="0.671875"/><stop stop-opacity="1" stop-color="rgb(28.901672%, 58.122253%, 97.009277%)" offset="0.679688"/><stop stop-opacity="1" stop-color="rgb(28.962708%, 57.926941%, 97.064209%)" offset="0.6875"/><stop stop-opacity="1" stop-color="rgb(29.023743%, 57.730103%, 97.119141%)" offset="0.695312"/><stop stop-opacity="1" stop-color="rgb(29.084778%, 57.53479%, 97.174072%)" offset="0.703125"/><stop stop-opacity="1" stop-color="rgb(29.145813%, 57.339478%, 97.227478%)" offset="0.710938"/><stop stop-opacity="1" stop-color="rgb(29.206848%, 57.142639%, 97.28241%)" offset="0.71875"/><stop stop-opacity="1" stop-color="rgb(29.267883%, 56.947327%, 97.337341%)" offset="0.726562"/><stop stop-opacity="1" stop-color="rgb(29.328918%, 56.750488%, 97.392273%)" offset="0.734375"/><stop stop-opacity="1" stop-color="rgb(29.389954%, 56.555176%, 97.447205%)" offset="0.742188"/><stop stop-opacity="1" stop-color="rgb(29.450989%, 56.358337%, 97.502136%)" offset="0.75"/><stop stop-opacity="1" stop-color="rgb(29.512024%, 56.163025%, 97.555542%)" offset="0.757812"/><stop stop-opacity="1" stop-color="rgb(29.573059%, 55.966187%, 97.610474%)" offset="0.765625"/><stop stop-opacity="1" stop-color="rgb(29.664612%, 55.673218%, 97.692871%)" offset="0.78125"/><stop stop-opacity="1" stop-color="rgb(29.756165%, 55.378723%, 97.775269%)" offset="0.789062"/><stop stop-opacity="1" stop-color="rgb(29.8172%, 55.183411%, 97.828674%)" offset="0.796875"/><stop stop-opacity="1" stop-color="rgb(29.878235%, 54.986572%, 97.883606%)" offset="0.804688"/><stop stop-opacity="1" stop-color="rgb(29.93927%, 54.79126%, 97.938538%)" offset="0.8125"/><stop stop-opacity="1" stop-color="rgb(30.000305%, 54.594421%, 97.993469%)" offset="0.820312"/><stop stop-opacity="1" stop-color="rgb(30.06134%, 54.399109%, 98.048401%)" offset="0.828125"/><stop stop-opacity="1" stop-color="rgb(30.122375%, 54.203796%, 98.101807%)" offset="0.835938"/><stop stop-opacity="1" stop-color="rgb(30.183411%, 54.006958%, 98.156738%)" offset="0.84375"/><stop stop-opacity="1" stop-color="rgb(30.244446%, 53.811646%, 98.21167%)" offset="0.851562"/><stop stop-opacity="1" stop-color="rgb(30.305481%, 53.614807%, 98.266602%)" offset="0.859375"/><stop stop-opacity="1" stop-color="rgb(30.366516%, 53.419495%, 98.321533%)" offset="0.867188"/><stop stop-opacity="1" stop-color="rgb(30.427551%, 53.222656%, 98.376465%)" offset="0.875"/><stop stop-opacity="1" stop-color="rgb(30.519104%, 52.929688%, 98.457336%)" offset="0.890625"/><stop stop-opacity="1" stop-color="rgb(30.610657%, 52.635193%, 98.539734%)" offset="0.898438"/><stop stop-opacity="1" stop-color="rgb(30.671692%, 52.43988%, 98.594666%)" offset="0.90625"/><stop stop-opacity="1" stop-color="rgb(30.732727%, 52.243042%, 98.649597%)" offset="0.914062"/><stop stop-opacity="1" stop-color="rgb(30.793762%, 52.047729%, 98.703003%)" offset="0.921875"/><stop stop-opacity="1" stop-color="rgb(30.854797%, 51.850891%, 98.757935%)" offset="0.929688"/><stop stop-opacity="1" stop-color="rgb(30.915833%, 51.655579%, 98.812866%)" offset="0.9375"/><stop stop-opacity="1" stop-color="rgb(30.976868%, 51.460266%, 98.867798%)" offset="0.945312"/><stop stop-opacity="1" stop-color="rgb(31.037903%, 51.263428%, 98.922729%)" offset="0.953125"/><stop stop-opacity="1" stop-color="rgb(31.098938%, 51.068115%, 98.976135%)" offset="0.960938"/><stop stop-opacity="1" stop-color="rgb(31.159973%, 50.871277%, 99.031067%)" offset="0.96875"/><stop stop-opacity="1" stop-color="rgb(31.221008%, 50.675964%, 99.085999%)" offset="0.976563"/><stop stop-opacity="1" stop-color="rgb(31.282043%, 50.479126%, 99.14093%)" offset="0.984375"/><stop stop-opacity="1" stop-color="rgb(31.340027%, 50.289917%, 99.19281%)" offset="1"/></linearGradient><clipPath id="8dc9c91130"><path d="M 201 207 L 204 207 L 204 211.171875 L 201 211.171875 Z M 201 207 " clip-rule="nonzero"/></clipPath><clipPath id="3a9b2d356f"><path d="M 201 205 L 207.71875 205 L 207.71875 211.171875 L 201 211.171875 Z M 201 205 " clip-rule="nonzero"/></clipPath><clipPath id="8b8a549f1b"><path d="M 201.71875 211.042969 C 201.714844 210.644531 201.761719 209.328125 202.410156 208.042969 C 202.613281 207.636719 202.878906 207.234375 203.21875 206.867188 C 204.101562 205.910156 205.503906 205.175781 207.71875 205.175781 L 207.71875 207.421875 C 206.085938 207.421875 204.894531 207.671875 204.027344 208.042969 C 203.71875 208.175781 203.449219 208.320312 203.21875 208.476562 C 201.855469 209.402344 201.722656 210.652344 201.71875 211.042969 Z M 201.71875 211.042969 " clip-rule="nonzero"/></clipPath><linearGradient x1="167.431938" gradientTransform="matrix(-0.0249488, 0, 0, -0.0249079, 211.896269, 207.168225)" y1="-37.771" x2="408.04195" gradientUnits="userSpaceOnUse" y2="-37.771" id="f9407999e5"><stop stop-opacity="1" stop-color="rgb(23.919678%, 74.119568%, 92.549133%)" offset="0"/><stop stop-opacity="1" stop-color="rgb(23.919678%, 74.119568%, 92.549133%)" offset="0.03125"/><stop stop-opacity="1" stop-color="rgb(23.953247%, 74.009705%, 92.579651%)" offset="0.046875"/><stop stop-opacity="1" stop-color="rgb(24.01886%, 73.800659%, 92.637634%)" offset="0.0546875"/><stop stop-opacity="1" stop-color="rgb(24.079895%, 73.605347%, 92.692566%)" offset="0.0625"/><stop stop-opacity="1" stop-color="rgb(24.14093%, 73.408508%, 92.747498%)" offset="0.0703125"/><stop stop-opacity="1" stop-color="rgb(24.201965%, 73.213196%, 92.802429%)" offset="0.078125"/><stop stop-opacity="1" stop-color="rgb(24.263%, 73.016357%, 92.855835%)" offset="0.0859375"/><stop stop-opacity="1" stop-color="rgb(24.324036%, 72.821045%, 92.910767%)" offset="0.09375"/><stop stop-opacity="1" stop-color="rgb(24.385071%, 72.625732%, 92.965698%)" offset="0.101562"/><stop stop-opacity="1" stop-color="rgb(24.446106%, 72.428894%, 93.02063%)" offset="0.109375"/><stop stop-opacity="1" stop-color="rgb(24.507141%, 72.233582%, 93.075562%)" offset="0.117187"/><stop stop-opacity="1" stop-color="rgb(24.568176%, 72.036743%, 93.128967%)" offset="0.125"/><stop stop-opacity="1" stop-color="rgb(24.629211%, 71.841431%, 93.183899%)" offset="0.132812"/><stop stop-opacity="1" stop-color="rgb(24.690247%, 71.644592%, 93.238831%)" offset="0.140625"/><stop stop-opacity="1" stop-color="rgb(24.751282%, 71.44928%, 93.293762%)" offset="0.148438"/><stop stop-opacity="1" stop-color="rgb(24.812317%, 71.252441%, 93.348694%)" offset="0.15625"/><stop stop-opacity="1" stop-color="rgb(24.90387%, 70.959473%, 93.429565%)" offset="0.171875"/><stop stop-opacity="1" stop-color="rgb(24.995422%, 70.664978%, 93.511963%)" offset="0.179688"/><stop stop-opacity="1" stop-color="rgb(25.056458%, 70.469666%, 93.566895%)" offset="0.1875"/><stop stop-opacity="1" stop-color="rgb(25.117493%, 70.272827%, 93.621826%)" offset="0.195312"/><stop stop-opacity="1" stop-color="rgb(25.178528%, 70.077515%, 93.676758%)" offset="0.203125"/><stop stop-opacity="1" stop-color="rgb(25.239563%, 69.880676%, 93.730164%)" offset="0.210937"/><stop stop-opacity="1" stop-color="rgb(25.300598%, 69.685364%, 93.785095%)" offset="0.21875"/><stop stop-opacity="1" stop-color="rgb(25.361633%, 69.490051%, 93.840027%)" offset="0.226562"/><stop stop-opacity="1" stop-color="rgb(25.422668%, 69.293213%, 93.894958%)" offset="0.234375"/><stop stop-opacity="1" stop-color="rgb(25.483704%, 69.0979%, 93.94989%)" offset="0.242187"/><stop stop-opacity="1" stop-color="rgb(25.544739%, 68.901062%, 94.003296%)" offset="0.25"/><stop stop-opacity="1" stop-color="rgb(25.605774%, 68.70575%, 94.058228%)" offset="0.257812"/><stop stop-opacity="1" stop-color="rgb(25.666809%, 68.508911%, 94.113159%)" offset="0.265625"/><stop stop-opacity="1" stop-color="rgb(25.727844%, 68.313599%, 94.168091%)" offset="0.273438"/><stop stop-opacity="1" stop-color="rgb(25.788879%, 68.11676%, 94.223022%)" offset="0.28125"/><stop stop-opacity="1" stop-color="rgb(25.880432%, 67.823792%, 94.303894%)" offset="0.296875"/><stop stop-opacity="1" stop-color="rgb(25.971985%, 67.529297%, 94.386292%)" offset="0.304688"/><stop stop-opacity="1" stop-color="rgb(26.03302%, 67.333984%, 94.441223%)" offset="0.3125"/><stop stop-opacity="1" stop-color="rgb(26.094055%, 67.137146%, 94.496155%)" offset="0.320312"/><stop stop-opacity="1" stop-color="rgb(26.15509%, 66.941833%, 94.551086%)" offset="0.328125"/><stop stop-opacity="1" stop-color="rgb(26.216125%, 66.744995%, 94.604492%)" offset="0.335938"/><stop stop-opacity="1" stop-color="rgb(26.277161%, 66.549683%, 94.659424%)" offset="0.34375"/><stop stop-opacity="1" stop-color="rgb(26.338196%, 66.35437%, 94.714355%)" offset="0.351563"/><stop stop-opacity="1" stop-color="rgb(26.399231%, 66.157532%, 94.769287%)" offset="0.359375"/><stop stop-opacity="1" stop-color="rgb(26.460266%, 65.962219%, 94.824219%)" offset="0.367188"/><stop stop-opacity="1" stop-color="rgb(26.521301%, 65.765381%, 94.877625%)" offset="0.375"/><stop stop-opacity="1" stop-color="rgb(26.582336%, 65.570068%, 94.932556%)" offset="0.382812"/><stop stop-opacity="1" stop-color="rgb(26.643372%, 65.37323%, 94.987488%)" offset="0.390625"/><stop stop-opacity="1" stop-color="rgb(26.704407%, 65.177917%, 95.042419%)" offset="0.398438"/><stop stop-opacity="1" stop-color="rgb(26.765442%, 64.981079%, 95.097351%)" offset="0.40625"/><stop stop-opacity="1" stop-color="rgb(26.856995%, 64.68811%, 95.178223%)" offset="0.421875"/><stop stop-opacity="1" stop-color="rgb(26.948547%, 64.393616%, 95.26062%)" offset="0.429688"/><stop stop-opacity="1" stop-color="rgb(27.009583%, 64.198303%, 95.315552%)" offset="0.4375"/><stop stop-opacity="1" stop-color="rgb(27.070618%, 64.001465%, 95.370483%)" offset="0.445312"/><stop stop-opacity="1" stop-color="rgb(27.131653%, 63.806152%, 95.425415%)" offset="0.453125"/><stop stop-opacity="1" stop-color="rgb(27.192688%, 63.609314%, 95.478821%)" offset="0.460938"/><stop stop-opacity="1" stop-color="rgb(27.253723%, 63.414001%, 95.533752%)" offset="0.46875"/><stop stop-opacity="1" stop-color="rgb(27.314758%, 63.218689%, 95.588684%)" offset="0.476562"/><stop stop-opacity="1" stop-color="rgb(27.375793%, 63.021851%, 95.643616%)" offset="0.484375"/><stop stop-opacity="1" stop-color="rgb(27.436829%, 62.826538%, 95.698547%)" offset="0.492187"/><stop stop-opacity="1" stop-color="rgb(27.497864%, 62.6297%, 95.753479%)" offset="0.5"/><stop stop-opacity="1" stop-color="rgb(27.558899%, 62.434387%, 95.806885%)" offset="0.507812"/><stop stop-opacity="1" stop-color="rgb(27.619934%, 62.237549%, 95.861816%)" offset="0.515625"/><stop stop-opacity="1" stop-color="rgb(27.680969%, 62.042236%, 95.916748%)" offset="0.523438"/><stop stop-opacity="1" stop-color="rgb(27.742004%, 61.845398%, 95.97168%)" offset="0.53125"/><stop stop-opacity="1" stop-color="rgb(27.833557%, 61.552429%, 96.052551%)" offset="0.546875"/><stop stop-opacity="1" stop-color="rgb(27.92511%, 61.257935%, 96.134949%)" offset="0.554687"/><stop stop-opacity="1" stop-color="rgb(27.986145%, 61.062622%, 96.18988%)" offset="0.5625"/><stop stop-opacity="1" stop-color="rgb(28.04718%, 60.865784%, 96.244812%)" offset="0.570312"/><stop stop-opacity="1" stop-color="rgb(28.108215%, 60.670471%, 96.299744%)" offset="0.578125"/><stop stop-opacity="1" stop-color="rgb(28.16925%, 60.473633%, 96.353149%)" offset="0.585938"/><stop stop-opacity="1" stop-color="rgb(28.230286%, 60.27832%, 96.408081%)" offset="0.59375"/><stop stop-opacity="1" stop-color="rgb(28.291321%, 60.081482%, 96.463013%)" offset="0.601562"/><stop stop-opacity="1" stop-color="rgb(28.352356%, 59.886169%, 96.517944%)" offset="0.609375"/><stop stop-opacity="1" stop-color="rgb(28.413391%, 59.690857%, 96.572876%)" offset="0.617188"/><stop stop-opacity="1" stop-color="rgb(28.474426%, 59.494019%, 96.627808%)" offset="0.625"/><stop stop-opacity="1" stop-color="rgb(28.535461%, 59.298706%, 96.681213%)" offset="0.632812"/><stop stop-opacity="1" stop-color="rgb(28.596497%, 59.101868%, 96.736145%)" offset="0.640625"/><stop stop-opacity="1" stop-color="rgb(28.657532%, 58.906555%, 96.791077%)" offset="0.648437"/><stop stop-opacity="1" stop-color="rgb(28.718567%, 58.709717%, 96.846008%)" offset="0.65625"/><stop stop-opacity="1" stop-color="rgb(28.81012%, 58.416748%, 96.92688%)" offset="0.671875"/><stop stop-opacity="1" stop-color="rgb(28.901672%, 58.122253%, 97.009277%)" offset="0.679688"/><stop stop-opacity="1" stop-color="rgb(28.962708%, 57.926941%, 97.064209%)" offset="0.6875"/><stop stop-opacity="1" stop-color="rgb(29.023743%, 57.730103%, 97.119141%)" offset="0.695312"/><stop stop-opacity="1" stop-color="rgb(29.084778%, 57.53479%, 97.174072%)" offset="0.703125"/><stop stop-opacity="1" stop-color="rgb(29.145813%, 57.337952%, 97.229004%)" offset="0.710938"/><stop stop-opacity="1" stop-color="rgb(29.206848%, 57.142639%, 97.28241%)" offset="0.71875"/><stop stop-opacity="1" stop-color="rgb(29.267883%, 56.945801%, 97.337341%)" offset="0.726562"/><stop stop-opacity="1" stop-color="rgb(29.328918%, 56.750488%, 97.392273%)" offset="0.734375"/><stop stop-opacity="1" stop-color="rgb(29.389954%, 56.555176%, 97.447205%)" offset="0.742187"/><stop stop-opacity="1" stop-color="rgb(29.450989%, 56.358337%, 97.502136%)" offset="0.75"/><stop stop-opacity="1" stop-color="rgb(29.512024%, 56.163025%, 97.555542%)" offset="0.757812"/><stop stop-opacity="1" stop-color="rgb(29.573059%, 55.966187%, 97.610474%)" offset="0.765625"/><stop stop-opacity="1" stop-color="rgb(29.634094%, 55.770874%, 97.665405%)" offset="0.773438"/><stop stop-opacity="1" stop-color="rgb(29.695129%, 55.574036%, 97.720337%)" offset="0.78125"/><stop stop-opacity="1" stop-color="rgb(29.786682%, 55.281067%, 97.801208%)" offset="0.796875"/><stop stop-opacity="1" stop-color="rgb(29.878235%, 54.986572%, 97.883606%)" offset="0.804688"/><stop stop-opacity="1" stop-color="rgb(29.93927%, 54.79126%, 97.938538%)" offset="0.8125"/><stop stop-opacity="1" stop-color="rgb(30.000305%, 54.594421%, 97.993469%)" offset="0.820312"/><stop stop-opacity="1" stop-color="rgb(30.06134%, 54.399109%, 98.048401%)" offset="0.828125"/><stop stop-opacity="1" stop-color="rgb(30.122375%, 54.202271%, 98.103333%)" offset="0.835937"/><stop stop-opacity="1" stop-color="rgb(30.183411%, 54.006958%, 98.156738%)" offset="0.84375"/><stop stop-opacity="1" stop-color="rgb(30.244446%, 53.81012%, 98.21167%)" offset="0.851562"/><stop stop-opacity="1" stop-color="rgb(30.305481%, 53.614807%, 98.266602%)" offset="0.859375"/><stop stop-opacity="1" stop-color="rgb(30.366516%, 53.419495%, 98.321533%)" offset="0.867187"/><stop stop-opacity="1" stop-color="rgb(30.427551%, 53.222656%, 98.376465%)" offset="0.875"/><stop stop-opacity="1" stop-color="rgb(30.488586%, 53.027344%, 98.429871%)" offset="0.882812"/><stop stop-opacity="1" stop-color="rgb(30.549622%, 52.830505%, 98.484802%)" offset="0.890625"/><stop stop-opacity="1" stop-color="rgb(30.610657%, 52.635193%, 98.539734%)" offset="0.898438"/><stop stop-opacity="1" stop-color="rgb(30.671692%, 52.438354%, 98.594666%)" offset="0.90625"/><stop stop-opacity="1" stop-color="rgb(30.763245%, 52.145386%, 98.675537%)" offset="0.921875"/><stop stop-opacity="1" stop-color="rgb(30.854797%, 51.850891%, 98.757935%)" offset="0.929687"/><stop stop-opacity="1" stop-color="rgb(30.915833%, 51.655579%, 98.812866%)" offset="0.9375"/><stop stop-opacity="1" stop-color="rgb(30.976868%, 51.45874%, 98.867798%)" offset="0.945312"/><stop stop-opacity="1" stop-color="rgb(31.037903%, 51.263428%, 98.922729%)" offset="0.953125"/><stop stop-opacity="1" stop-color="rgb(31.098938%, 51.066589%, 98.977661%)" offset="0.960937"/><stop stop-opacity="1" stop-color="rgb(31.159973%, 50.871277%, 99.031067%)" offset="0.96875"/><stop stop-opacity="1" stop-color="rgb(31.221008%, 50.674438%, 99.085999%)" offset="0.976562"/><stop stop-opacity="1" stop-color="rgb(31.282043%, 50.479126%, 99.14093%)" offset="0.984375"/><stop stop-opacity="1" stop-color="rgb(31.340027%, 50.289917%, 99.19281%)" offset="1"/></linearGradient><clipPath id="665ce761f9"><path d="M 165 99 L 201 99 L 201 111 L 165 111 Z M 165 99 " clip-rule="nonzero"/></clipPath><clipPath id="f99e246818"><path d="M 159.570312 100.976562 L 205.253906 98.472656 L 206.769531 126.183594 L 161.089844 128.6875 Z M 159.570312 100.976562 " clip-rule="nonzero"/></clipPath><clipPath id="8d7e22fb95"><path d="M 159.570312 100.976562 L 205.253906 98.472656 L 206.769531 126.183594 L 161.089844 128.6875 Z M 159.570312 100.976562 " clip-rule="nonzero"/></clipPath><clipPath id="1b006b9261"><path d="M 165 105 L 201 105 L 201 118 L 165 118 Z M 165 105 " clip-rule="nonzero"/></clipPath><clipPath id="8c745e83e8"><path d="M 159.570312 100.976562 L 205.253906 98.472656 L 206.769531 126.183594 L 161.089844 128.6875 Z M 159.570312 100.976562 " clip-rule="nonzero"/></clipPath><clipPath id="ecd5287afb"><path d="M 159.570312 100.976562 L 205.253906 98.472656 L 206.769531 126.183594 L 161.089844 128.6875 Z M 159.570312 100.976562 " clip-rule="nonzero"/></clipPath><clipPath id="a1b19eed47"><path d="M 164 109 L 202 109 L 202 119 L 164 119 Z M 164 109 " clip-rule="nonzero"/></clipPath><clipPath id="bef2d811eb"><path d="M 159.570312 100.976562 L 205.253906 98.472656 L 206.769531 126.183594 L 161.089844 128.6875 Z M 159.570312 100.976562 " clip-rule="nonzero"/></clipPath><clipPath id="4c92861f4d"><path d="M 159.570312 100.976562 L 205.253906 98.472656 L 206.769531 126.183594 L 161.089844 128.6875 Z M 159.570312 100.976562 " clip-rule="nonzero"/></clipPath><clipPath id="a98ae6f66e"><path d="M 161 105 L 207 105 L 207 129 L 161 129 Z M 161 105 " clip-rule="nonzero"/></clipPath><clipPath id="734f3df5a4"><path d="M 159.570312 100.976562 L 205.253906 98.472656 L 206.769531 126.183594 L 161.089844 128.6875 Z M 159.570312 100.976562 " clip-rule="nonzero"/></clipPath><clipPath id="dcb181c43f"><path d="M 159.570312 100.976562 L 205.253906 98.472656 L 206.769531 126.183594 L 161.089844 128.6875 Z M 159.570312 100.976562 " clip-rule="nonzero"/></clipPath><clipPath id="45b46e3d17"><path d="M 165 124 L 176 124 L 176 128 L 165 128 Z M 165 124 " clip-rule="nonzero"/></clipPath><clipPath id="689a78fb6c"><path d="M 159.570312 100.976562 L 205.253906 98.472656 L 206.769531 126.183594 L 161.089844 128.6875 Z M 159.570312 100.976562 " clip-rule="nonzero"/></clipPath><clipPath id="c8154f19e5"><path d="M 159.570312 100.976562 L 205.253906 98.472656 L 206.769531 126.183594 L 161.089844 128.6875 Z M 159.570312 100.976562 " clip-rule="nonzero"/></clipPath></defs><g clip-path="url(#cf61c738e0)"><path fill="#f6f6f6" d="M 183.808594 244.519531 C 183.765625 245.695312 183.683594 246.898438 183.574219 248.09375 C 183.003906 254.34375 181.644531 260.363281 180.796875 261.207031 C 179.199219 262.804688 158.21875 263.15625 156.972656 260.851562 C 155.726562 258.546875 156.972656 252.875 160.261719 251.015625 C 163.550781 249.152344 166.753906 249.417969 166.753906 249.417969 C 166.753906 249.417969 166.507812 247.785156 166.226562 245.460938 C 166.089844 244.34375 165.949219 243.066406 165.820312 241.734375 C 165.421875 237.613281 165.160156 232.964844 165.730469 230.917969 C 165.8125 230.613281 165.917969 230.363281 166.039062 230.1875 C 167.820312 227.617188 179.882812 230.808594 182.308594 234.351562 C 183.035156 235.410156 183.464844 237.105469 183.679688 239.140625 C 183.847656 240.765625 183.878906 242.605469 183.808594 244.519531 Z M 183.808594 244.519531 " fill-opacity="1" fill-rule="nonzero"/></g><path fill="#f6f6f6" d="M 218.042969 259.964844 C 216.796875 262.269531 195.816406 261.917969 194.214844 260.320312 C 193.421875 259.527344 192.171875 254.15625 191.550781 248.320312 C 191.425781 247.15625 191.324219 245.96875 191.261719 244.800781 C 191.152344 242.90625 191.136719 241.046875 191.242188 239.363281 C 191.40625 236.835938 191.851562 234.710938 192.703125 233.464844 C 195.128906 229.921875 207.195312 226.730469 208.972656 229.300781 C 209.222656 229.660156 209.390625 230.296875 209.488281 231.125 C 209.503906 231.253906 209.519531 231.386719 209.53125 231.523438 C 209.621094 232.527344 209.632812 233.761719 209.589844 235.097656 C 209.503906 237.960938 209.171875 241.316406 208.863281 243.953125 C 208.679688 245.5 208.507812 246.800781 208.394531 247.617188 C 208.3125 248.199219 208.261719 248.535156 208.261719 248.535156 C 208.261719 248.535156 211.464844 248.269531 214.753906 250.128906 C 218.042969 251.992188 219.289062 257.664062 218.042969 259.96875 Z M 218.042969 259.964844 " fill-opacity="1" fill-rule="nonzero"/><path fill="#f6f6f6" d="M 227.136719 227.757812 C 226.855469 242.695312 221.628906 243.609375 218.757812 241.984375 C 218.445312 241.808594 218.164062 241.601562 217.917969 241.378906 C 217.871094 241.335938 217.824219 241.292969 217.777344 241.25 C 215.378906 238.90625 215.980469 234.570312 215.992188 234.503906 C 215.960938 234.554688 214.390625 237.0625 212.207031 234.28125 C 212.203125 234.277344 212.199219 234.273438 212.199219 234.269531 C 211.429688 233.289062 211.421875 232.347656 211.722656 231.324219 C 211.820312 230.992188 211.949219 230.652344 212.097656 230.300781 C 212.585938 229.125 213.273438 227.804688 213.601562 226.1875 C 213.742188 225.496094 213.816406 224.75 213.78125 223.9375 C 213.765625 223.527344 213.757812 223.109375 213.753906 222.683594 C 213.71875 217.847656 214.304688 211.960938 209.472656 204.933594 C 204.214844 197.289062 202.425781 190.769531 205.582031 190.09375 C 205.867188 190.03125 206.929688 190.226562 208.378906 190.835938 C 210.636719 191.78125 213.828125 193.734375 216.515625 197.289062 C 220.441406 202.488281 225.335938 208.371094 226.75 219.75 C 226.886719 220.863281 226.992188 222.03125 227.058594 223.253906 C 227.140625 224.675781 227.167969 226.175781 227.136719 227.757812 Z M 227.136719 227.757812 " fill-opacity="1" fill-rule="nonzero"/><path fill="#f6f6f6" d="M 159.816406 219.085938 C 159.726562 220.355469 159.722656 221.574219 159.726562 222.738281 C 159.730469 223.96875 159.746094 225.140625 159.699219 226.257812 C 159.460938 231.574219 163.964844 234.175781 161.476562 237.128906 C 158.988281 240.082031 157.210938 237.363281 157.210938 237.363281 C 157.210938 237.363281 157.921875 241.972656 155.195312 244.457031 C 152.46875 246.9375 145 248 144.644531 230.273438 C 144.535156 224.824219 145.117188 220.328125 146.132812 216.515625 C 146.449219 215.324219 146.808594 214.203125 147.203125 213.136719 C 149.648438 206.523438 153.417969 202.199219 156.617188 198.25 C 161.59375 192.101562 168.121094 190.519531 168.945312 190.683594 C 172.5 191.394531 170.484375 198.25 164.558594 206.285156 C 161.050781 211.039062 160.078125 215.296875 159.816406 219.085938 Z M 159.816406 219.085938 " fill-opacity="1" fill-rule="nonzero"/><path fill="#f6f6f6" d="M 212.6875 219.757812 C 212.617188 220.996094 212.503906 222.179688 212.335938 223.304688 C 212.148438 224.585938 211.890625 225.792969 211.558594 226.921875 C 209.109375 235.277344 202.640625 239.46875 189.6875 239.375 C 175.535156 239.273438 166.242188 236.746094 162.363281 223.734375 C 161.992188 222.488281 161.667969 221.144531 161.398438 219.699219 C 161.25 218.921875 161.121094 218.113281 161.003906 217.273438 C 158.394531 198.601562 167.523438 187.730469 168.589844 186.667969 C 169.65625 185.605469 204.625 191.15625 205.335938 191.15625 C 206.046875 191.15625 213.398438 206.640625 212.6875 219.757812 Z M 212.6875 219.757812 " fill-opacity="1" fill-rule="nonzero"/><path fill="#54a3e6" d="M 159.816406 219.085938 C 159.726562 220.355469 159.722656 221.574219 159.726562 222.738281 C 158.164062 222.132812 156.613281 221.496094 155.070312 220.835938 C 152.957031 219.933594 150.867188 218.980469 148.816406 217.945312 C 147.914062 217.488281 147.011719 217.015625 146.132812 216.515625 C 146.449219 215.324219 146.808594 214.203125 147.199219 213.136719 C 147.378906 213.242188 147.558594 213.347656 147.738281 213.449219 C 149.191406 214.28125 150.683594 215.039062 152.1875 215.761719 C 153.847656 216.558594 155.527344 217.308594 157.222656 218.027344 C 158.082031 218.386719 158.945312 218.742188 159.816406 219.085938 Z M 159.816406 219.085938 " fill-opacity="1" fill-rule="nonzero"/><path fill="#54a3e6" d="M 227.058594 223.253906 C 226.738281 223.34375 226.414062 223.433594 226.089844 223.523438 C 222.859375 224.398438 219.589844 225.132812 216.296875 225.730469 C 215.585938 225.859375 214.878906 225.980469 214.164062 226.097656 C 213.976562 226.125 213.789062 226.15625 213.601562 226.1875 C 213.742188 225.496094 213.816406 224.75 213.78125 223.9375 C 213.765625 223.527344 213.757812 223.109375 213.753906 222.683594 C 213.777344 222.679688 213.800781 222.675781 213.820312 222.671875 C 214.195312 222.609375 214.570312 222.542969 214.945312 222.476562 C 216.882812 222.132812 218.816406 221.742188 220.734375 221.300781 C 222.753906 220.839844 224.757812 220.320312 226.75 219.75 C 226.886719 220.863281 226.992188 222.03125 227.058594 223.253906 Z M 227.058594 223.253906 " fill-opacity="1" fill-rule="nonzero"/><path fill="#54a3e6" d="M 212.335938 223.304688 C 212.148438 224.585938 211.890625 225.792969 211.558594 226.921875 C 211.371094 226.953125 211.183594 226.984375 210.992188 227.011719 C 208.445312 227.417969 205.882812 227.742188 203.3125 227.992188 C 199.96875 228.316406 196.609375 228.503906 193.246094 228.566406 C 189.894531 228.625 186.542969 228.558594 183.195312 228.363281 C 180.597656 228.214844 177.988281 228.050781 175.425781 227.566406 C 173.347656 227.171875 171.296875 226.628906 169.269531 226.03125 C 166.945312 225.34375 164.648438 224.570312 162.375 223.738281 C 162.371094 223.738281 162.367188 223.734375 162.363281 223.734375 C 161.992188 222.488281 161.667969 221.144531 161.398438 219.699219 C 161.59375 219.773438 161.789062 219.847656 161.988281 219.921875 C 164.851562 221.003906 167.753906 221.996094 170.699219 222.847656 C 173.035156 223.527344 175.410156 224.140625 177.820312 224.484375 C 178.539062 224.574219 179.261719 224.628906 179.980469 224.6875 C 181.117188 224.78125 182.25 224.859375 183.386719 224.921875 C 187.441406 225.152344 191.507812 225.195312 195.566406 225.050781 C 199.5625 224.90625 203.546875 224.578125 207.511719 224.058594 C 208.726562 223.894531 209.9375 223.710938 211.144531 223.507812 C 211.167969 223.503906 211.191406 223.5 211.214844 223.496094 C 211.589844 223.433594 211.960938 223.371094 212.335938 223.304688 Z M 212.335938 223.304688 " fill-opacity="1" fill-rule="nonzero"/><path fill="#54a3e6" d="M 183.808594 244.519531 C 183.765625 245.695312 183.683594 246.898438 183.574219 248.09375 C 182.726562 248.230469 181.855469 248.265625 181 248.242188 C 179.242188 248.191406 177.484375 247.964844 175.75 247.695312 C 174.101562 247.4375 172.46875 247.097656 170.847656 246.707031 C 169.296875 246.332031 167.757812 245.910156 166.226562 245.460938 C 166.089844 244.34375 165.949219 243.066406 165.820312 241.734375 C 169.648438 242.890625 173.527344 243.933594 177.492188 244.488281 C 177.496094 244.488281 177.5 244.488281 177.507812 244.488281 C 178.445312 244.609375 179.390625 244.703125 180.335938 244.757812 C 181.179688 244.808594 182.03125 244.816406 182.871094 244.726562 C 183.1875 244.675781 183.5 244.605469 183.808594 244.519531 Z M 183.808594 244.519531 " fill-opacity="1" fill-rule="nonzero"/><path fill="#54a3e6" d="M 208.863281 243.953125 C 208.679688 245.5 208.507812 246.800781 208.394531 247.617188 C 205.210938 248.332031 201.941406 248.71875 198.683594 248.769531 C 196.300781 248.804688 193.910156 248.652344 191.546875 248.320312 C 191.425781 247.15625 191.324219 245.96875 191.261719 244.800781 C 191.585938 244.855469 191.914062 244.902344 192.238281 244.949219 C 193.046875 245.054688 193.859375 245.136719 194.671875 245.195312 C 197.710938 245.421875 200.773438 245.335938 203.800781 244.949219 C 204.542969 244.847656 205.28125 244.726562 206.019531 244.585938 C 206.972656 244.40625 207.921875 244.195312 208.859375 243.953125 Z M 208.863281 243.953125 " fill-opacity="1" fill-rule="nonzero"/><path fill="#54a3e6" d="M 216.148438 242.808594 C 215.839844 242.632812 215.554688 242.429688 215.308594 242.207031 C 215.425781 242.246094 215.535156 242.296875 215.636719 242.347656 C 215.84375 242.457031 216.015625 242.621094 216.148438 242.808594 Z M 216.148438 242.808594 " fill-opacity="1" fill-rule="nonzero"/><path fill="#54a3e6" d="M 190.867188 186.964844 C 192.019531 186.996094 193.15625 187.066406 194.285156 187.179688 C 195.414062 187.289062 196.503906 187.4375 197.566406 187.621094 C 198.625 187.808594 199.628906 188.027344 200.582031 188.285156 C 201.53125 188.539062 202.410156 188.820312 203.21875 189.132812 C 204.023438 189.445312 204.742188 189.78125 205.375 190.140625 C 206.003906 190.5 206.535156 190.875 206.964844 191.265625 C 207.394531 191.660156 207.71875 192.058594 207.929688 192.46875 C 208.144531 192.878906 208.246094 193.289062 208.234375 193.699219 C 208.222656 194.109375 208.101562 194.515625 207.863281 194.910156 C 207.628906 195.308594 207.285156 195.691406 206.835938 196.058594 C 206.382812 196.425781 205.832031 196.773438 205.183594 197.097656 C 204.535156 197.421875 203.800781 197.71875 202.976562 197.988281 C 202.15625 198.257812 201.261719 198.492188 200.300781 198.695312 C 199.335938 198.898438 198.320312 199.0625 197.25 199.191406 C 196.183594 199.320312 195.082031 199.410156 193.953125 199.460938 C 192.820312 199.507812 191.679688 199.519531 190.527344 199.488281 C 189.375 199.457031 188.234375 199.386719 187.109375 199.273438 C 185.980469 199.164062 184.886719 199.015625 183.828125 198.828125 C 182.769531 198.644531 181.761719 198.421875 180.8125 198.167969 C 179.859375 197.914062 178.980469 197.632812 178.175781 197.320312 C 177.371094 197.007812 176.652344 196.671875 176.019531 196.3125 C 175.390625 195.953125 174.859375 195.578125 174.429688 195.183594 C 174 194.792969 173.675781 194.394531 173.464844 193.984375 C 173.25 193.574219 173.148438 193.164062 173.160156 192.753906 C 173.171875 192.34375 173.292969 191.9375 173.53125 191.539062 C 173.765625 191.144531 174.109375 190.761719 174.558594 190.394531 C 175.011719 190.023438 175.558594 189.679688 176.210938 189.355469 C 176.859375 189.03125 177.59375 188.734375 178.417969 188.464844 C 179.238281 188.195312 180.132812 187.960938 181.09375 187.757812 C 182.058594 187.554688 183.074219 187.390625 184.144531 187.261719 C 185.210938 187.132812 186.3125 187.042969 187.441406 186.992188 C 188.574219 186.945312 189.714844 186.933594 190.867188 186.964844 Z M 190.867188 186.964844 " fill-opacity="1" fill-rule="nonzero"/><g clip-path="url(#6c2bb89d4d)"><path fill="#54a3e6" d="M 234.949219 138.65625 C 235.234375 138.511719 239.027344 135.511719 243.625 138.777344 C 248.226562 142.046875 250.671875 155.132812 247.121094 163.257812 C 243.566406 171.386719 235.484375 168.03125 235.453125 167.582031 C 235.417969 167.128906 234.949219 138.65625 234.949219 138.65625 Z M 234.949219 138.65625 " fill-opacity="1" fill-rule="nonzero"/></g><path fill="#f6f6f6" d="M 237.773438 138.300781 C 238.015625 138.511719 244.816406 142.773438 244.507812 154.261719 C 244.203125 165.746094 239.914062 169.132812 233.664062 167.53125 C 227.417969 165.933594 226.601562 153.40625 227.179688 148.925781 C 227.753906 144.441406 230.515625 141.753906 230.515625 141.753906 L 226.171875 121.8125 L 230.3125 120.285156 Z M 237.773438 138.300781 " fill-opacity="1" fill-rule="nonzero"/><path fill="#f6f6f6" d="M 230.214844 115.421875 C 230.40625 115.613281 230.578125 115.820312 230.726562 116.042969 C 230.878906 116.269531 231.007812 116.507812 231.109375 116.757812 C 231.214844 117.007812 231.292969 117.265625 231.34375 117.53125 C 231.398438 117.796875 231.425781 118.0625 231.425781 118.335938 C 231.425781 118.605469 231.398438 118.875 231.34375 119.136719 C 231.292969 119.402344 231.214844 119.660156 231.109375 119.910156 C 231.007812 120.160156 230.878906 120.398438 230.726562 120.625 C 230.578125 120.847656 230.40625 121.058594 230.214844 121.25 C 230.023438 121.441406 229.8125 121.609375 229.585938 121.761719 C 229.363281 121.910156 229.125 122.039062 228.871094 122.140625 C 228.621094 122.246094 228.363281 122.324219 228.097656 122.375 C 227.832031 122.429688 227.5625 122.457031 227.289062 122.457031 C 227.019531 122.457031 226.75 122.429688 226.484375 122.375 C 226.21875 122.324219 225.960938 122.246094 225.707031 122.140625 C 225.457031 122.039062 225.21875 121.910156 224.992188 121.761719 C 224.769531 121.609375 224.558594 121.441406 224.367188 121.25 C 224.175781 121.058594 224.003906 120.847656 223.851562 120.625 C 223.703125 120.398438 223.574219 120.160156 223.472656 119.910156 C 223.367188 119.660156 223.289062 119.402344 223.234375 119.136719 C 223.183594 118.875 223.15625 118.605469 223.15625 118.335938 C 223.15625 118.0625 223.183594 117.796875 223.234375 117.53125 C 223.289062 117.265625 223.367188 117.007812 223.472656 116.757812 C 223.574219 116.507812 223.703125 116.269531 223.851562 116.042969 C 224.003906 115.820312 224.175781 115.613281 224.367188 115.421875 C 224.558594 115.230469 224.769531 115.058594 224.992188 114.90625 C 225.21875 114.757812 225.457031 114.628906 225.707031 114.527344 C 225.960938 114.421875 226.21875 114.34375 226.484375 114.292969 C 226.75 114.238281 227.019531 114.214844 227.289062 114.214844 C 227.5625 114.214844 227.832031 114.238281 228.097656 114.292969 C 228.363281 114.34375 228.621094 114.421875 228.871094 114.527344 C 229.125 114.628906 229.363281 114.757812 229.585938 114.90625 C 229.8125 115.058594 230.023438 115.230469 230.214844 115.421875 Z M 230.214844 115.421875 " fill-opacity="1" fill-rule="nonzero"/><path fill="#4ac95b" d="M 143.101562 144.992188 C 143.035156 144.984375 143.050781 144.882812 143.113281 144.890625 C 143.179688 144.898438 143.167969 145 143.101562 144.992188 Z M 143.101562 144.992188 " fill-opacity="1" fill-rule="nonzero"/><path fill="#f6f6f6" d="M 233.65625 176.703125 C 233.664062 176.691406 233.714844 176.535156 233.792969 176.257812 C 234.878906 172.363281 241.472656 144.019531 222.558594 127.160156 C 202.289062 109.085938 172.257812 112.171875 155.503906 124.453125 C 138.753906 136.734375 131.660156 165.972656 148.902344 183.417969 C 166.144531 200.863281 203.007812 198.027344 214.902344 194.328125 C 232.578125 188.839844 233.65625 176.703125 233.65625 176.703125 Z M 233.65625 176.703125 " fill-opacity="1" fill-rule="nonzero"/><path fill="#1e1915" d="M 224.726562 179.300781 C 226.859375 174.152344 229.277344 146.007812 216.425781 140.703125 C 203.574219 135.398438 169.84375 135.933594 162.84375 144.917969 C 155.847656 153.898438 156.5625 184.222656 169.5625 189.183594 C 182.566406 194.144531 218.09375 195.332031 224.726562 179.296875 Z M 224.726562 179.300781 " fill-opacity="1" fill-rule="nonzero"/><path fill="#54a3e6" d="M 189.082031 179.878906 C 189.144531 179.789062 189.210938 179.695312 189.277344 179.605469 C 189.40625 179.4375 189.191406 179.710938 189.285156 179.59375 C 189.332031 179.539062 189.375 179.488281 189.417969 179.433594 C 189.570312 179.253906 189.726562 179.078125 189.890625 178.910156 C 190.054688 178.746094 190.242188 178.570312 190.425781 178.414062 C 190.511719 178.339844 190.597656 178.265625 190.6875 178.195312 C 190.707031 178.179688 190.726562 178.164062 190.746094 178.148438 C 190.832031 178.078125 190.605469 178.253906 190.695312 178.1875 C 190.746094 178.152344 190.792969 178.113281 190.84375 178.078125 C 191.238281 177.792969 191.65625 177.535156 192.089844 177.316406 C 192.191406 177.265625 192.292969 177.214844 192.394531 177.167969 C 192.449219 177.144531 192.507812 177.117188 192.5625 177.09375 C 192.695312 177.035156 192.390625 177.164062 192.570312 177.089844 C 192.796875 177 193.027344 176.917969 193.261719 176.84375 C 193.722656 176.699219 194.1875 176.613281 194.660156 176.527344 C 194.667969 176.523438 194.460938 176.550781 194.558594 176.539062 C 194.59375 176.535156 194.628906 176.53125 194.664062 176.527344 C 194.714844 176.523438 194.765625 176.515625 194.820312 176.511719 C 194.957031 176.5 195.089844 176.488281 195.226562 176.484375 C 195.472656 176.472656 195.71875 176.472656 195.960938 176.480469 C 196.207031 176.492188 196.46875 176.515625 196.722656 176.542969 C 196.820312 176.554688 196.621094 176.53125 196.625 176.53125 C 196.652344 176.535156 196.679688 176.539062 196.707031 176.542969 C 196.769531 176.554688 196.832031 176.5625 196.894531 176.574219 C 197.019531 176.59375 197.144531 176.621094 197.269531 176.648438 C 197.757812 176.753906 198.238281 176.898438 198.703125 177.082031 C 198.734375 177.09375 198.769531 177.109375 198.800781 177.121094 C 198.910156 177.164062 198.640625 177.050781 198.746094 177.097656 C 198.8125 177.128906 198.878906 177.15625 198.945312 177.1875 C 199.070312 177.242188 199.191406 177.304688 199.3125 177.367188 C 199.5625 177.492188 199.808594 177.632812 200.042969 177.785156 C 200.164062 177.863281 200.285156 177.945312 200.40625 178.027344 C 200.457031 178.066406 200.507812 178.101562 200.558594 178.140625 C 200.570312 178.148438 200.625 178.199219 200.644531 178.207031 C 200.613281 178.199219 200.503906 178.097656 200.597656 178.171875 C 200.824219 178.355469 201.042969 178.542969 201.253906 178.746094 C 201.578125 179.0625 202.15625 179.09375 202.476562 178.746094 C 202.789062 178.40625 202.824219 177.863281 202.476562 177.523438 C 200.828125 175.929688 198.652344 174.976562 196.371094 174.78125 C 194.230469 174.597656 192.023438 175.199219 190.246094 176.394531 C 189.199219 177.097656 188.304688 177.972656 187.585938 179.007812 C 187.328125 179.382812 187.503906 179.984375 187.894531 180.191406 C 188.335938 180.421875 188.804688 180.277344 189.082031 179.882812 Z M 189.082031 179.878906 " fill-opacity="1" fill-rule="nonzero"/><path fill="#54a3e6" d="M 184.6875 165.40625 C 184.761719 165.984375 184.792969 166.558594 184.78125 167.136719 C 184.769531 167.710938 184.714844 168.277344 184.621094 168.832031 C 184.527344 169.382812 184.394531 169.914062 184.21875 170.421875 C 184.046875 170.933594 183.835938 171.410156 183.589844 171.855469 C 183.34375 172.296875 183.066406 172.703125 182.757812 173.066406 C 182.445312 173.429688 182.113281 173.746094 181.75 174.015625 C 181.390625 174.285156 181.011719 174.5 180.613281 174.664062 C 180.214844 174.828125 179.808594 174.9375 179.386719 174.988281 C 178.96875 175.039062 178.542969 175.035156 178.117188 174.972656 C 177.691406 174.914062 177.269531 174.796875 176.855469 174.621094 C 176.441406 174.449219 176.039062 174.222656 175.648438 173.945312 C 175.257812 173.667969 174.890625 173.34375 174.542969 172.972656 C 174.195312 172.601562 173.875 172.191406 173.582031 171.742188 C 173.289062 171.289062 173.027344 170.808594 172.800781 170.292969 C 172.574219 169.78125 172.382812 169.246094 172.230469 168.691406 C 172.078125 168.132812 171.96875 167.566406 171.894531 166.992188 C 171.824219 166.414062 171.792969 165.835938 171.804688 165.261719 C 171.816406 164.683594 171.867188 164.121094 171.964844 163.566406 C 172.058594 163.015625 172.191406 162.484375 172.363281 161.972656 C 172.539062 161.464844 172.75 160.988281 172.996094 160.542969 C 173.242188 160.097656 173.519531 159.695312 173.828125 159.332031 C 174.136719 158.964844 174.472656 158.648438 174.832031 158.382812 C 175.191406 158.113281 175.570312 157.894531 175.96875 157.734375 C 176.367188 157.570312 176.777344 157.460938 177.195312 157.410156 C 177.617188 157.355469 178.039062 157.363281 178.464844 157.421875 C 178.890625 157.484375 179.3125 157.601562 179.726562 157.773438 C 180.144531 157.949219 180.546875 158.171875 180.9375 158.449219 C 181.324219 158.726562 181.691406 159.050781 182.042969 159.421875 C 182.390625 159.792969 182.710938 160.207031 183.003906 160.65625 C 183.296875 161.109375 183.554688 161.589844 183.78125 162.101562 C 184.011719 162.617188 184.199219 163.152344 184.351562 163.707031 C 184.503906 164.261719 184.617188 164.828125 184.6875 165.40625 Z M 184.6875 165.40625 " fill-opacity="1" fill-rule="nonzero"/><path fill="#54a3e6" d="M 218.488281 165.0625 C 218.503906 165.640625 218.476562 166.21875 218.410156 166.792969 C 218.339844 167.363281 218.234375 167.917969 218.089844 168.460938 C 217.941406 169 217.761719 169.515625 217.542969 170.003906 C 217.324219 170.492188 217.074219 170.945312 216.792969 171.363281 C 216.507812 171.78125 216.199219 172.15625 215.863281 172.488281 C 215.527344 172.816406 215.171875 173.097656 214.792969 173.332031 C 214.417969 173.5625 214.027344 173.738281 213.625 173.859375 C 213.222656 173.984375 212.816406 174.050781 212.402344 174.058594 C 211.988281 174.070312 211.578125 174.019531 211.171875 173.917969 C 210.765625 173.8125 210.367188 173.652344 209.980469 173.441406 C 209.59375 173.226562 209.226562 172.960938 208.875 172.648438 C 208.523438 172.332031 208.195312 171.972656 207.894531 171.566406 C 207.59375 171.164062 207.324219 170.722656 207.082031 170.242188 C 206.84375 169.765625 206.636719 169.257812 206.464844 168.726562 C 206.296875 168.191406 206.164062 167.640625 206.070312 167.074219 C 205.976562 166.503906 205.921875 165.929688 205.910156 165.347656 C 205.898438 164.765625 205.921875 164.191406 205.992188 163.617188 C 206.058594 163.046875 206.164062 162.488281 206.3125 161.949219 C 206.457031 161.40625 206.640625 160.894531 206.855469 160.40625 C 207.074219 159.914062 207.324219 159.460938 207.609375 159.042969 C 207.890625 158.625 208.199219 158.253906 208.535156 157.921875 C 208.871094 157.589844 209.230469 157.308594 209.605469 157.078125 C 209.980469 156.847656 210.371094 156.671875 210.773438 156.546875 C 211.175781 156.425781 211.582031 156.359375 211.996094 156.351562 C 212.410156 156.339844 212.820312 156.386719 213.226562 156.492188 C 213.636719 156.597656 214.03125 156.753906 214.417969 156.96875 C 214.804688 157.183594 215.175781 157.445312 215.527344 157.761719 C 215.875 158.078125 216.203125 158.4375 216.503906 158.84375 C 216.804688 159.246094 217.078125 159.6875 217.316406 160.164062 C 217.558594 160.644531 217.761719 161.148438 217.933594 161.683594 C 218.105469 162.21875 218.234375 162.769531 218.328125 163.335938 C 218.421875 163.90625 218.476562 164.480469 218.488281 165.0625 Z M 218.488281 165.0625 " fill-opacity="1" fill-rule="nonzero"/><path fill="#54a3e6" d="M 140.066406 144.199219 C 140.355469 144.054688 144.144531 141.054688 148.746094 144.320312 C 153.347656 147.585938 155.789062 160.675781 152.238281 168.800781 C 148.6875 176.925781 140.601562 173.574219 140.570312 173.121094 C 140.539062 172.671875 140.066406 144.199219 140.066406 144.199219 Z M 140.066406 144.199219 " fill-opacity="1" fill-rule="nonzero"/><path fill="#f6f6f6" d="M 142.890625 143.84375 C 143.132812 144.050781 149.9375 148.3125 149.628906 159.800781 C 149.320312 171.289062 145.03125 174.675781 138.785156 173.074219 C 132.535156 171.472656 131.722656 158.949219 132.296875 154.464844 C 132.871094 149.980469 135.636719 147.296875 135.636719 147.296875 L 131.292969 127.351562 L 135.429688 125.824219 Z M 142.890625 143.84375 " fill-opacity="1" fill-rule="nonzero"/><path fill="#f6f6f6" d="M 135.332031 120.960938 C 135.527344 121.152344 135.695312 121.363281 135.847656 121.585938 C 136 121.8125 136.125 122.050781 136.230469 122.300781 C 136.332031 122.550781 136.414062 122.808594 136.464844 123.074219 C 136.519531 123.339844 136.542969 123.605469 136.542969 123.875 C 136.542969 124.148438 136.519531 124.414062 136.464844 124.679688 C 136.414062 124.945312 136.332031 125.203125 136.230469 125.453125 C 136.125 125.703125 136 125.941406 135.847656 126.167969 C 135.695312 126.390625 135.527344 126.601562 135.332031 126.792969 C 135.140625 126.984375 134.933594 127.152344 134.707031 127.304688 C 134.480469 127.453125 134.242188 127.582031 133.992188 127.683594 C 133.742188 127.789062 133.484375 127.867188 133.21875 127.917969 C 132.949219 127.972656 132.683594 128 132.410156 128 C 132.140625 128 131.871094 127.972656 131.605469 127.917969 C 131.335938 127.867188 131.078125 127.789062 130.828125 127.683594 C 130.578125 127.582031 130.339844 127.453125 130.113281 127.304688 C 129.886719 127.152344 129.679688 126.984375 129.488281 126.792969 C 129.296875 126.601562 129.125 126.390625 128.972656 126.167969 C 128.820312 125.941406 128.695312 125.703125 128.589844 125.453125 C 128.488281 125.203125 128.410156 124.945312 128.355469 124.679688 C 128.300781 124.414062 128.277344 124.148438 128.277344 123.875 C 128.277344 123.605469 128.300781 123.339844 128.355469 123.074219 C 128.410156 122.808594 128.488281 122.550781 128.589844 122.300781 C 128.695312 122.050781 128.820312 121.8125 128.972656 121.585938 C 129.125 121.363281 129.296875 121.152344 129.488281 120.960938 C 129.679688 120.769531 129.886719 120.601562 130.113281 120.449219 C 130.339844 120.300781 130.578125 120.171875 130.828125 120.070312 C 131.078125 119.964844 131.335938 119.886719 131.605469 119.835938 C 131.871094 119.78125 132.140625 119.753906 132.410156 119.753906 C 132.683594 119.753906 132.949219 119.78125 133.21875 119.835938 C 133.484375 119.886719 133.742188 119.964844 133.992188 120.070312 C 134.242188 120.171875 134.480469 120.300781 134.707031 120.449219 C 134.933594 120.601562 135.140625 120.769531 135.332031 120.960938 Z M 135.332031 120.960938 " fill-opacity="1" fill-rule="nonzero"/><path fill="#1e1915" d="M 165.863281 162.648438 C 165.847656 163.640625 171.910156 167.523438 179.375 164.863281 C 186.84375 162.203125 186.398438 154.226562 186.132812 154.316406 C 185.867188 154.40625 165.953125 156.355469 165.863281 162.648438 Z M 165.863281 162.648438 " fill-opacity="1" fill-rule="nonzero"/><path fill="#1e1915" d="M 224.035156 162.472656 C 224.046875 163.460938 217.988281 167.347656 210.519531 164.6875 C 203.054688 162.027344 203.496094 154.050781 203.765625 154.140625 C 204.03125 154.226562 223.945312 156.179688 224.035156 162.472656 Z M 224.035156 162.472656 " fill-opacity="1" fill-rule="nonzero"/><g clip-path="url(#6331b30385)"><path fill="#1f2b5b" d="M 201.71875 205.40625 L 201.71875 202.183594 L 203.96875 202.183594 C 203.96875 202.183594 204 203.691406 203.425781 204.296875 C 202.847656 204.90625 201.71875 205.40625 201.71875 205.40625 Z M 201.71875 205.40625 " fill-opacity="1" fill-rule="nonzero"/></g><g clip-path="url(#f9dd74a42f)"><g clip-path="url(#ff5db8cb48)"><path fill="url(#a3d14e52a9)" d="M 197.96875 202.304688 L 197.96875 208.167969 L 203.972656 208.167969 L 203.972656 202.304688 Z M 197.96875 202.304688 " fill-rule="nonzero"/></g></g><g clip-path="url(#8dc9c91130)"><path fill="#1f2b5b" d="M 203.96875 207.941406 L 203.96875 211.164062 L 201.71875 211.164062 C 201.71875 211.164062 201.6875 209.65625 202.265625 209.046875 C 202.839844 208.441406 203.96875 207.941406 203.96875 207.941406 Z M 203.96875 207.941406 " fill-opacity="1" fill-rule="nonzero"/></g><g clip-path="url(#3a9b2d356f)"><g clip-path="url(#8b8a549f1b)"><path fill="url(#f9407999e5)" d="M 207.71875 211.042969 L 207.71875 205.175781 L 201.714844 205.175781 L 201.714844 211.042969 Z M 207.71875 211.042969 " fill-rule="nonzero"/></g></g><g clip-path="url(#665ce761f9)"><g clip-path="url(#f99e246818)"><g clip-path="url(#8d7e22fb95)"><path fill="#002d75" d="M 200.421875 107.1875 C 200.441406 107.527344 200.441406 107.863281 200.417969 108.191406 C 199.542969 107.632812 198.613281 107.160156 197.644531 106.789062 C 192.777344 104.941406 187.738281 104.144531 182.667969 104.421875 C 177.59375 104.699219 172.671875 106.042969 168.039062 108.414062 C 167.113281 108.886719 166.238281 109.457031 165.433594 110.109375 C 165.375 109.785156 165.335938 109.449219 165.320312 109.113281 C 165.0625 104.464844 168.636719 100.476562 173.285156 100.222656 L 191.53125 99.222656 C 196.179688 98.964844 200.167969 102.539062 200.421875 107.1875 Z M 200.421875 107.1875 " fill-opacity="1" fill-rule="nonzero"/></g></g></g><g clip-path="url(#1b006b9261)"><g clip-path="url(#8c745e83e8)"><g clip-path="url(#ecd5287afb)"><path fill="#002d75" d="M 200.214844 109.574219 C 199.316406 108.949219 198.3125 108.402344 197.191406 107.976562 C 192.492188 106.191406 187.628906 105.421875 182.738281 105.691406 C 177.84375 105.960938 173.089844 107.253906 168.617188 109.542969 C 167.550781 110.089844 166.609375 110.742188 165.789062 111.460938 C 165.613281 111.609375 165.441406 111.765625 165.277344 111.925781 C 166.65625 115.496094 170.21875 117.9375 174.246094 117.71875 L 181.523438 117.320312 L 181.46875 116.359375 L 179.164062 116.488281 C 178.226562 116.539062 177.421875 115.753906 177.367188 114.734375 C 177.308594 113.714844 178.023438 112.847656 178.960938 112.796875 L 181.265625 112.667969 L 181.140625 110.363281 C 181.089844 109.425781 181.875 108.621094 182.894531 108.566406 C 183.914062 108.507812 184.78125 109.222656 184.832031 110.160156 L 184.960938 112.464844 L 187.265625 112.339844 C 188.203125 112.289062 189.003906 113.074219 189.0625 114.09375 C 189.117188 115.113281 188.402344 115.980469 187.46875 116.03125 L 185.160156 116.160156 L 185.214844 117.117188 L 192.492188 116.71875 C 196.519531 116.496094 199.789062 113.679688 200.769531 109.976562 C 200.589844 109.839844 200.402344 109.703125 200.214844 109.574219 Z M 200.214844 109.574219 " fill-opacity="1" fill-rule="nonzero"/></g></g></g><g clip-path="url(#a1b19eed47)"><g clip-path="url(#bef2d811eb)"><g clip-path="url(#4c92861f4d)"><path fill="#ffffff" d="M 200.769531 109.976562 C 200.589844 109.839844 200.402344 109.703125 200.214844 109.574219 C 199.382812 113.128906 196.285156 115.875 192.457031 116.082031 L 185.179688 116.480469 L 185.25 117.75 L 192.523438 117.351562 C 196.730469 117.121094 200.171875 114.238281 201.304688 110.414062 C 201.132812 110.265625 200.953125 110.121094 200.769531 109.976562 Z M 174.210938 117.082031 C 170.382812 117.292969 167.003906 114.90625 165.789062 111.460938 C 165.613281 111.609375 165.441406 111.765625 165.277344 111.925781 C 165.109375 112.085938 164.949219 112.25 164.792969 112.417969 C 166.339844 116.089844 170.078125 118.582031 174.28125 118.351562 L 181.554688 117.953125 L 181.488281 116.683594 Z M 174.210938 117.082031 " fill-opacity="1" fill-rule="nonzero"/></g></g></g><g clip-path="url(#a98ae6f66e)"><g clip-path="url(#734f3df5a4)"><g clip-path="url(#dcb181c43f)"><path fill="#002d75" d="M 205.609375 116.820312 C 204.980469 114.773438 203.574219 112.34375 201.304688 110.414062 C 201.132812 110.265625 200.953125 110.121094 200.769531 109.976562 C 200.589844 109.839844 200.402344 109.703125 200.214844 109.574219 C 199.316406 108.949219 198.3125 108.40625 197.191406 107.976562 C 192.492188 106.191406 187.628906 105.421875 182.738281 105.691406 C 177.84375 105.960938 173.089844 107.253906 168.617188 109.542969 C 167.550781 110.089844 166.609375 110.742188 165.789062 111.460938 C 165.613281 111.609375 165.441406 111.769531 165.277344 111.925781 C 165.109375 112.085938 164.949219 112.25 164.792969 112.417969 C 162.75 114.582031 161.617188 117.148438 161.21875 119.253906 C 160.738281 121.785156 161.152344 124.019531 162.355469 125.390625 C 163.035156 126.183594 163.792969 126.765625 164.574219 127.183594 C 164.777344 127.203125 165.265625 127.246094 165.933594 127.253906 L 165.9375 127.253906 C 166.316406 127.261719 166.75 127.253906 167.230469 127.226562 C 169.636719 127.097656 173.054688 126.441406 175.136719 124 C 175.332031 123.773438 175.515625 123.527344 175.683594 123.269531 C 175.875 122.976562 176.269531 122.894531 176.5625 123.085938 C 176.859375 123.277344 176.941406 123.671875 176.75 123.964844 C 175.214844 126.320312 172.8125 127.488281 170.523438 128.050781 C 171.902344 127.851562 173.3125 127.417969 174.648438 126.773438 C 177.523438 125.300781 180.59375 124.464844 183.753906 124.292969 C 186.917969 124.117188 190.058594 124.613281 193.09375 125.769531 C 194.851562 126.386719 196.695312 126.667969 198.417969 126.574219 C 200.464844 126.460938 203.292969 125.757812 205.144531 123.050781 C 206.195312 121.550781 206.363281 119.285156 205.609375 116.820312 Z M 179.015625 121.519531 C 178.464844 122.132812 177.523438 122.183594 176.910156 121.636719 C 176.296875 121.085938 176.246094 120.144531 176.796875 119.53125 C 177.34375 118.917969 178.285156 118.867188 178.898438 119.414062 C 179.511719 119.964844 179.5625 120.910156 179.015625 121.519531 Z M 185.289062 118.464844 C 185.339844 119.402344 184.554688 120.207031 183.535156 120.261719 C 182.515625 120.316406 181.648438 119.605469 181.59375 118.667969 L 181.46875 116.363281 L 179.164062 116.488281 C 178.226562 116.539062 177.421875 115.753906 177.367188 114.734375 C 177.308594 113.714844 178.023438 112.847656 178.960938 112.796875 L 181.265625 112.667969 L 181.140625 110.363281 C 181.089844 109.425781 181.875 108.621094 182.894531 108.566406 C 183.914062 108.507812 184.78125 109.222656 184.832031 110.160156 L 184.960938 112.464844 L 187.265625 112.339844 C 188.203125 112.289062 189.003906 113.074219 189.0625 114.09375 C 189.117188 115.113281 188.402344 115.980469 187.46875 116.03125 L 185.160156 116.160156 Z M 185.289062 118.464844 " fill-opacity="1" fill-rule="nonzero"/><path fill="#002d75" d="M 205.609375 116.820312 C 204.980469 114.773438 203.574219 112.34375 201.304688 110.414062 C 201.132812 110.265625 200.953125 110.121094 200.769531 109.976562 C 200.589844 109.839844 200.402344 109.703125 200.214844 109.574219 C 199.316406 108.949219 198.3125 108.40625 197.191406 107.976562 C 192.492188 106.191406 187.628906 105.421875 182.738281 105.691406 C 177.84375 105.960938 173.089844 107.253906 168.617188 109.542969 C 167.550781 110.089844 166.609375 110.742188 165.789062 111.460938 C 165.613281 111.609375 165.441406 111.769531 165.277344 111.925781 C 165.109375 112.085938 164.949219 112.25 164.792969 112.417969 C 162.75 114.582031 161.617188 117.148438 161.21875 119.253906 C 160.738281 121.785156 161.152344 124.019531 162.355469 125.390625 C 163.035156 126.183594 163.792969 126.765625 164.574219 127.183594 C 164.777344 127.203125 165.265625 127.246094 165.933594 127.253906 L 165.9375 127.253906 C 166.316406 127.261719 166.75 127.253906 167.230469 127.226562 C 169.636719 127.097656 173.054688 126.441406 175.136719 124 C 175.332031 123.773438 175.515625 123.527344 175.683594 123.269531 C 175.875 122.976562 176.269531 122.894531 176.5625 123.085938 C 176.859375 123.277344 176.941406 123.671875 176.75 123.964844 C 175.214844 126.320312 172.8125 127.488281 170.523438 128.050781 C 171.902344 127.851562 173.3125 127.417969 174.648438 126.773438 C 177.523438 125.300781 180.59375 124.464844 183.753906 124.292969 C 186.917969 124.117188 190.058594 124.613281 193.09375 125.769531 C 194.851562 126.386719 196.695312 126.667969 198.417969 126.574219 C 200.464844 126.460938 203.292969 125.757812 205.144531 123.050781 C 206.195312 121.550781 206.363281 119.285156 205.609375 116.820312 Z M 179.015625 121.519531 C 178.464844 122.132812 177.523438 122.183594 176.910156 121.636719 C 176.296875 121.085938 176.246094 120.144531 176.796875 119.53125 C 177.34375 118.917969 178.285156 118.867188 178.898438 119.414062 C 179.511719 119.964844 179.5625 120.910156 179.015625 121.519531 Z M 185.289062 118.464844 C 185.339844 119.402344 184.554688 120.207031 183.535156 120.261719 C 182.515625 120.316406 181.648438 119.605469 181.59375 118.667969 L 181.46875 116.363281 L 179.164062 116.488281 C 178.226562 116.539062 177.421875 115.753906 177.367188 114.734375 C 177.308594 113.714844 178.023438 112.847656 178.960938 112.796875 L 181.265625 112.667969 L 181.140625 110.363281 C 181.089844 109.425781 181.875 108.621094 182.894531 108.566406 C 183.914062 108.507812 184.78125 109.222656 184.832031 110.160156 L 184.960938 112.464844 L 187.265625 112.339844 C 188.203125 112.289062 189.003906 113.074219 189.0625 114.09375 C 189.117188 115.113281 188.402344 115.980469 187.46875 116.03125 L 185.160156 116.160156 Z M 185.289062 118.464844 " fill-opacity="1" fill-rule="nonzero"/></g></g></g><g clip-path="url(#45b46e3d17)"><g clip-path="url(#689a78fb6c)"><g clip-path="url(#c8154f19e5)"><path fill="#002d75" d="M 175.136719 124 C 173.054688 126.441406 169.632812 127.097656 167.230469 127.226562 C 166.75 127.253906 166.316406 127.261719 165.9375 127.253906 Z M 175.136719 124 " fill-opacity="1" fill-rule="nonzero"/></g></g></g></svg>