<svg xmlns="http://www.w3.org/2000/svg" xmlns:xlink="http://www.w3.org/1999/xlink" width="500" zoomAndPan="magnify" viewBox="0 0 375 374.999991" height="500" preserveAspectRatio="xMidYMid meet" version="1.0"><defs><clipPath id="722a5326b3"><path d="M 233 141 L 248.21875 141 L 248.21875 174 L 233 174 Z M 233 141 " clip-rule="nonzero"/></clipPath><clipPath id="8caa11764b"><path d="M 185 231 L 212 231 L 212 262.5 L 185 262.5 Z M 185 231 " clip-rule="nonzero"/></clipPath><clipPath id="e8f685c2a1"><path d="M 150 231 L 177 231 L 177 262.5 L 150 262.5 Z M 150 231 " clip-rule="nonzero"/></clipPath><clipPath id="a98b182417"><path d="M 169 98 L 205 98 L 205 109 L 169 109 Z M 169 98 " clip-rule="nonzero"/></clipPath><clipPath id="0e25dbab4f"><path d="M 164.125 99.53125 L 209.84375 97.796875 L 210.894531 125.527344 L 165.175781 127.261719 Z M 164.125 99.53125 " clip-rule="nonzero"/></clipPath><clipPath id="81ed0f521b"><path d="M 164.125 99.53125 L 209.84375 97.796875 L 210.894531 125.527344 L 165.175781 127.261719 Z M 164.125 99.53125 " clip-rule="nonzero"/></clipPath><clipPath id="98586520b6"><path d="M 169 104 L 206 104 L 206 117 L 169 117 Z M 169 104 " clip-rule="nonzero"/></clipPath><clipPath id="1cec30cb68"><path d="M 164.125 99.53125 L 209.84375 97.796875 L 210.894531 125.527344 L 165.175781 127.261719 Z M 164.125 99.53125 " clip-rule="nonzero"/></clipPath><clipPath id="619c1691db"><path d="M 164.125 99.53125 L 209.84375 97.796875 L 210.894531 125.527344 L 165.175781 127.261719 Z M 164.125 99.53125 " clip-rule="nonzero"/></clipPath><clipPath id="10362785ef"><path d="M 169 108 L 206 108 L 206 118 L 169 118 Z M 169 108 " clip-rule="nonzero"/></clipPath><clipPath id="740b2afcbb"><path d="M 164.125 99.53125 L 209.84375 97.796875 L 210.894531 125.527344 L 165.175781 127.261719 Z M 164.125 99.53125 " clip-rule="nonzero"/></clipPath><clipPath id="4de147c9f4"><path d="M 164.125 99.53125 L 209.84375 97.796875 L 210.894531 125.527344 L 165.175781 127.261719 Z M 164.125 99.53125 " clip-rule="nonzero"/></clipPath><clipPath id="dc52a117f6"><path d="M 165 104 L 211 104 L 211 127 L 165 127 Z M 165 104 " clip-rule="nonzero"/></clipPath><clipPath id="f68e92ea5b"><path d="M 164.125 99.53125 L 209.84375 97.796875 L 210.894531 125.527344 L 165.175781 127.261719 Z M 164.125 99.53125 " clip-rule="nonzero"/></clipPath><clipPath id="3dadf1b249"><path d="M 164.125 99.53125 L 209.84375 97.796875 L 210.894531 125.527344 L 165.175781 127.261719 Z M 164.125 99.53125 " clip-rule="nonzero"/></clipPath><clipPath id="cf1f3a5728"><path d="M 170 122 L 180 122 L 180 126 L 170 126 Z M 170 122 " clip-rule="nonzero"/></clipPath><clipPath id="28848a2e87"><path d="M 164.125 99.53125 L 209.84375 97.796875 L 210.894531 125.527344 L 165.175781 127.261719 Z M 164.125 99.53125 " clip-rule="nonzero"/></clipPath><clipPath id="8487887b9a"><path d="M 164.125 99.53125 L 209.84375 97.796875 L 210.894531 125.527344 L 165.175781 127.261719 Z M 164.125 99.53125 " clip-rule="nonzero"/></clipPath></defs><path fill="#f6f6f6" d="M 198.027344 194.132812 C 199.054688 196.007812 209.871094 210.574219 205.277344 226.71875 C 200.683594 242.859375 180.140625 242.316406 170.230469 239.714844 C 160.320312 237.117188 153.855469 228.652344 156.273438 218.132812 C 158.6875 207.613281 166 188.449219 167.148438 189.054688 C 168.296875 189.660156 197.964844 193.890625 197.964844 193.890625 Z M 198.027344 194.132812 " fill-opacity="1" fill-rule="nonzero"/><path fill="#f6f6f6" d="M 158.265625 232.21875 C 158.703125 232.90625 159.207031 233.566406 159.765625 234.195312 C 163.558594 238.457031 169.988281 241.378906 176.867188 242.445312 C 179.769531 242.898438 182.75 243.015625 185.644531 242.765625 C 192.589844 242.167969 199.042969 239.449219 202.734375 234.070312 C 203.28125 233.273438 203.769531 232.414062 204.191406 231.492188 C 205.3125 229.03125 206.011719 226.453125 206.382812 223.84375 C 206.53125 222.800781 206.628906 221.75 206.679688 220.699219 C 207.371094 206.609375 199.839844 192.679688 199.839844 192.679688 C 199.476562 190.503906 170.472656 189.417969 165.03125 192.199219 C 161.523438 193.992188 156.359375 204.839844 155.304688 215.722656 C 155.199219 216.800781 155.136719 217.878906 155.117188 218.949219 C 155.035156 223.824219 155.910156 228.523438 158.265625 232.21875 Z M 158.265625 232.21875 " fill-opacity="1" fill-rule="nonzero"/><path fill="#54a3e6" d="M 155.117188 218.949219 C 156.355469 219.367188 157.605469 219.753906 158.863281 220.113281 C 161.128906 220.757812 163.417969 221.308594 165.726562 221.777344 C 168.035156 222.242188 170.359375 222.628906 172.691406 222.945312 C 175.15625 223.28125 177.628906 223.554688 180.109375 223.757812 C 182.464844 223.953125 184.828125 224.09375 187.191406 224.1875 C 189.808594 224.292969 192.425781 224.351562 195.046875 224.339844 C 197.679688 224.332031 200.316406 224.253906 202.945312 224.097656 C 204.089844 224.027344 205.238281 223.949219 206.382812 223.84375 C 206.53125 222.800781 206.628906 221.75 206.679688 220.699219 C 204.84375 220.878906 203.003906 220.988281 201.160156 221.074219 C 198.703125 221.1875 196.238281 221.234375 193.773438 221.222656 C 191.34375 221.210938 188.914062 221.148438 186.484375 221.042969 C 184.285156 220.945312 182.089844 220.808594 179.894531 220.625 C 177.734375 220.441406 175.578125 220.214844 173.429688 219.925781 C 173.414062 219.925781 173.398438 219.921875 173.382812 219.921875 C 171.777344 219.699219 170.175781 219.449219 168.582031 219.160156 C 165.558594 218.609375 162.558594 217.925781 159.601562 217.082031 C 158.15625 216.667969 156.722656 216.214844 155.304688 215.722656 C 155.199219 216.800781 155.136719 217.878906 155.117188 218.949219 Z M 155.117188 218.949219 " fill-opacity="1" fill-rule="nonzero"/><g clip-path="url(#722a5326b3)"><path fill="#54a3e6" d="M 235.429688 142.960938 C 235.734375 142.84375 239.859375 140.132812 244.230469 143.886719 C 248.601562 147.636719 249.875 161.199219 245.519531 169.152344 C 241.167969 177.105469 233.265625 172.945312 233.273438 172.484375 C 233.285156 172.019531 235.429688 142.960938 235.429688 142.960938 Z M 235.429688 142.960938 " fill-opacity="1" fill-rule="nonzero"/></g><path fill="#f6f6f6" d="M 238.328125 142.859375 C 238.554688 143.097656 245.070312 148.066406 243.699219 159.742188 C 242.328125 171.417969 237.664062 174.476562 231.464844 172.269531 C 225.269531 170.066406 225.597656 157.226562 226.59375 152.710938 C 227.589844 148.195312 230.644531 145.714844 230.644531 145.714844 L 228.070312 124.992188 L 232.414062 123.816406 Z M 238.328125 142.859375 " fill-opacity="1" fill-rule="nonzero"/><path fill="#f6f6f6" d="M 232.507812 118.570312 C 232.703125 118.765625 232.878906 118.980469 233.03125 119.210938 C 233.1875 119.441406 233.316406 119.683594 233.421875 119.9375 C 233.527344 120.195312 233.605469 120.457031 233.660156 120.730469 C 233.714844 121 233.742188 121.273438 233.742188 121.550781 C 233.742188 121.828125 233.714844 122.101562 233.660156 122.375 C 233.605469 122.644531 233.527344 122.910156 233.421875 123.164062 C 233.316406 123.421875 233.1875 123.664062 233.03125 123.894531 C 232.878906 124.125 232.703125 124.339844 232.507812 124.535156 C 232.3125 124.730469 232.097656 124.90625 231.867188 125.058594 C 231.640625 125.210938 231.394531 125.34375 231.140625 125.449219 C 230.882812 125.554688 230.621094 125.632812 230.351562 125.6875 C 230.078125 125.742188 229.804688 125.769531 229.527344 125.769531 C 229.25 125.769531 228.976562 125.742188 228.707031 125.6875 C 228.433594 125.632812 228.171875 125.554688 227.914062 125.449219 C 227.660156 125.34375 227.414062 125.210938 227.1875 125.058594 C 226.957031 124.90625 226.742188 124.730469 226.546875 124.535156 C 226.351562 124.339844 226.175781 124.125 226.023438 123.894531 C 225.871094 123.664062 225.738281 123.421875 225.632812 123.164062 C 225.527344 122.910156 225.449219 122.644531 225.394531 122.375 C 225.339844 122.101562 225.3125 121.828125 225.3125 121.550781 C 225.3125 121.273438 225.339844 121 225.394531 120.730469 C 225.449219 120.457031 225.527344 120.195312 225.632812 119.9375 C 225.738281 119.683594 225.871094 119.441406 226.023438 119.210938 C 226.175781 118.980469 226.351562 118.765625 226.546875 118.570312 C 226.742188 118.375 226.957031 118.199219 227.1875 118.046875 C 227.414062 117.890625 227.660156 117.761719 227.914062 117.65625 C 228.171875 117.550781 228.433594 117.46875 228.707031 117.417969 C 228.976562 117.363281 229.25 117.335938 229.527344 117.335938 C 229.804688 117.335938 230.078125 117.363281 230.351562 117.417969 C 230.621094 117.46875 230.882812 117.550781 231.140625 117.65625 C 231.394531 117.761719 231.640625 117.890625 231.867188 118.046875 C 232.097656 118.199219 232.3125 118.375 232.507812 118.570312 Z M 232.507812 118.570312 " fill-opacity="1" fill-rule="nonzero"/><path fill="#4ac95b" d="M 141.589844 140.976562 C 141.523438 140.964844 141.546875 140.863281 141.609375 140.875 C 141.675781 140.890625 141.652344 140.992188 141.589844 140.976562 Z M 141.589844 140.976562 " fill-opacity="1" fill-rule="nonzero"/><path fill="#f6f6f6" d="M 230.609375 181.613281 C 230.621094 181.601562 230.6875 181.449219 230.789062 181.171875 C 232.253906 177.304688 241.558594 149.027344 223.910156 130.109375 C 204.996094 109.832031 174.214844 110.210938 156.074219 121.1875 C 137.933594 132.160156 128.035156 161.300781 143.933594 180.664062 C 159.835938 200.027344 197.527344 200.523438 209.945312 197.851562 C 228.398438 193.878906 230.609375 181.613281 230.609375 181.613281 Z M 230.609375 181.613281 " fill-opacity="1" fill-rule="nonzero"/><path fill="#1e1915" d="M 227.84375 181.25 C 230.667969 176.304688 236.78125 148.058594 224.476562 141.007812 C 212.167969 133.953125 177.992188 130.117188 169.742188 138.324219 C 161.496094 146.53125 158.273438 177.394531 170.773438 184.117188 C 183.273438 190.84375 219.046875 196.660156 227.84375 181.25 Z M 227.84375 181.25 " fill-opacity="1" fill-rule="nonzero"/><path fill="#54a3e6" d="M 183.671875 150.40625 C 184.105469 150.417969 184.53125 150.484375 184.953125 150.613281 C 185.371094 150.738281 185.777344 150.917969 186.171875 151.15625 C 186.566406 151.394531 186.9375 151.679688 187.289062 152.019531 C 187.640625 152.359375 187.960938 152.742188 188.257812 153.171875 C 188.550781 153.597656 188.8125 154.0625 189.042969 154.5625 C 189.269531 155.0625 189.460938 155.589844 189.613281 156.144531 C 189.765625 156.695312 189.875 157.265625 189.945312 157.851562 C 190.015625 158.4375 190.042969 159.027344 190.03125 159.621094 C 190.015625 160.214844 189.960938 160.804688 189.863281 161.386719 C 189.765625 161.96875 189.625 162.53125 189.449219 163.078125 C 189.269531 163.621094 189.054688 164.140625 188.804688 164.628906 C 188.554688 165.117188 188.269531 165.570312 187.957031 165.984375 C 187.640625 166.394531 187.300781 166.765625 186.933594 167.085938 C 186.566406 167.40625 186.179688 167.679688 185.777344 167.894531 C 185.375 168.113281 184.957031 168.277344 184.53125 168.382812 C 184.105469 168.488281 183.679688 168.535156 183.246094 168.527344 C 182.816406 168.515625 182.390625 168.449219 181.96875 168.320312 C 181.546875 168.195312 181.140625 168.015625 180.75 167.777344 C 180.355469 167.539062 179.984375 167.253906 179.632812 166.914062 C 179.28125 166.574219 178.957031 166.191406 178.664062 165.761719 C 178.367188 165.335938 178.105469 164.871094 177.878906 164.371094 C 177.652344 163.871094 177.460938 163.34375 177.308594 162.789062 C 177.15625 162.238281 177.042969 161.667969 176.972656 161.082031 C 176.902344 160.496094 176.875 159.90625 176.890625 159.3125 C 176.902344 158.71875 176.960938 158.128906 177.058594 157.546875 C 177.15625 156.964844 177.292969 156.402344 177.472656 155.855469 C 177.648438 155.3125 177.863281 154.792969 178.117188 154.304688 C 178.367188 153.816406 178.648438 153.363281 178.964844 152.953125 C 179.28125 152.539062 179.621094 152.171875 179.988281 151.847656 C 180.355469 151.527344 180.738281 151.257812 181.144531 151.039062 C 181.546875 150.820312 181.960938 150.65625 182.386719 150.550781 C 182.8125 150.445312 183.242188 150.398438 183.671875 150.40625 Z M 183.671875 150.40625 " fill-opacity="1" fill-rule="nonzero"/><path fill="#54a3e6" d="M 214.425781 153.667969 C 214.84375 153.722656 215.25 153.832031 215.648438 153.996094 C 216.042969 154.164062 216.417969 154.382812 216.777344 154.65625 C 217.136719 154.933594 217.46875 155.253906 217.773438 155.625 C 218.082031 155.996094 218.355469 156.410156 218.597656 156.863281 C 218.84375 157.320312 219.050781 157.804688 219.222656 158.324219 C 219.390625 158.847656 219.523438 159.390625 219.617188 159.953125 C 219.707031 160.519531 219.757812 161.097656 219.765625 161.6875 C 219.777344 162.277344 219.746094 162.867188 219.671875 163.457031 C 219.597656 164.046875 219.484375 164.625 219.328125 165.195312 C 219.175781 165.765625 218.984375 166.3125 218.757812 166.835938 C 218.527344 167.363281 218.269531 167.855469 217.976562 168.316406 C 217.683594 168.78125 217.359375 169.199219 217.011719 169.582031 C 216.667969 169.960938 216.296875 170.296875 215.910156 170.578125 C 215.519531 170.863281 215.121094 171.09375 214.707031 171.273438 C 214.292969 171.449219 213.871094 171.570312 213.449219 171.636719 C 213.023438 171.699219 212.601562 171.707031 212.183594 171.652344 C 211.765625 171.601562 211.359375 171.492188 210.964844 171.324219 C 210.570312 171.160156 210.191406 170.941406 209.832031 170.664062 C 209.476562 170.390625 209.144531 170.070312 208.835938 169.695312 C 208.53125 169.324219 208.253906 168.914062 208.011719 168.457031 C 207.769531 168.003906 207.5625 167.515625 207.390625 166.996094 C 207.21875 166.476562 207.085938 165.933594 206.996094 165.367188 C 206.902344 164.804688 206.851562 164.226562 206.84375 163.636719 C 206.835938 163.046875 206.867188 162.457031 206.941406 161.867188 C 207.015625 161.277344 207.128906 160.695312 207.28125 160.128906 C 207.433594 159.558594 207.625 159.011719 207.855469 158.488281 C 208.082031 157.960938 208.34375 157.46875 208.636719 157.003906 C 208.929688 156.542969 209.25 156.121094 209.597656 155.742188 C 209.945312 155.359375 210.3125 155.027344 210.703125 154.742188 C 211.089844 154.457031 211.492188 154.226562 211.90625 154.050781 C 212.320312 153.871094 212.738281 153.75 213.164062 153.6875 C 213.585938 153.621094 214.007812 153.617188 214.425781 153.667969 Z M 214.425781 153.667969 " fill-opacity="1" fill-rule="nonzero"/><path fill="#54a3e6" d="M 138.578125 139.886719 C 138.882812 139.769531 143.011719 137.058594 147.378906 140.8125 C 151.75 144.5625 153.027344 158.125 148.671875 166.078125 C 144.316406 174.03125 136.417969 169.871094 136.425781 169.410156 C 136.433594 168.945312 138.578125 139.886719 138.578125 139.886719 Z M 138.578125 139.886719 " fill-opacity="1" fill-rule="nonzero"/><path fill="#f6f6f6" d="M 141.480469 139.785156 C 141.707031 140.023438 148.222656 144.992188 146.851562 156.667969 C 145.480469 168.34375 140.8125 171.402344 134.617188 169.195312 C 128.417969 166.992188 128.746094 154.152344 129.742188 149.636719 C 130.742188 145.121094 133.796875 142.640625 133.796875 142.640625 L 131.222656 121.917969 L 135.566406 120.742188 Z M 141.480469 139.785156 " fill-opacity="1" fill-rule="nonzero"/><path fill="#f6f6f6" d="M 135.660156 115.496094 C 135.855469 115.691406 136.027344 115.90625 136.183594 116.136719 C 136.335938 116.363281 136.464844 116.609375 136.570312 116.863281 C 136.679688 117.121094 136.757812 117.382812 136.8125 117.65625 C 136.867188 117.925781 136.894531 118.199219 136.894531 118.476562 C 136.894531 118.753906 136.867188 119.027344 136.8125 119.300781 C 136.757812 119.570312 136.679688 119.835938 136.570312 120.089844 C 136.464844 120.347656 136.335938 120.589844 136.183594 120.820312 C 136.027344 121.050781 135.855469 121.261719 135.660156 121.460938 C 135.460938 121.65625 135.25 121.828125 135.019531 121.984375 C 134.789062 122.136719 134.546875 122.265625 134.289062 122.375 C 134.035156 122.480469 133.773438 122.558594 133.5 122.613281 C 133.230469 122.667969 132.953125 122.695312 132.679688 122.695312 C 132.402344 122.695312 132.128906 122.667969 131.855469 122.613281 C 131.585938 122.558594 131.320312 122.480469 131.066406 122.375 C 130.808594 122.265625 130.566406 122.136719 130.335938 121.984375 C 130.105469 121.828125 129.894531 121.65625 129.699219 121.460938 C 129.503906 121.261719 129.328125 121.050781 129.171875 120.820312 C 129.019531 120.589844 128.890625 120.347656 128.785156 120.089844 C 128.679688 119.835938 128.597656 119.570312 128.542969 119.300781 C 128.488281 119.027344 128.464844 118.753906 128.464844 118.476562 C 128.464844 118.199219 128.488281 117.925781 128.542969 117.65625 C 128.597656 117.382812 128.679688 117.121094 128.785156 116.863281 C 128.890625 116.609375 129.019531 116.363281 129.171875 116.136719 C 129.328125 115.90625 129.503906 115.691406 129.699219 115.496094 C 129.894531 115.300781 130.105469 115.125 130.335938 114.972656 C 130.566406 114.816406 130.808594 114.6875 131.066406 114.582031 C 131.320312 114.476562 131.585938 114.394531 131.855469 114.34375 C 132.128906 114.289062 132.402344 114.261719 132.679688 114.261719 C 132.953125 114.261719 133.230469 114.289062 133.5 114.34375 C 133.773438 114.394531 134.035156 114.476562 134.289062 114.582031 C 134.546875 114.6875 134.789062 114.816406 135.019531 114.972656 C 135.25 115.125 135.460938 115.300781 135.660156 115.496094 Z M 135.660156 115.496094 " fill-opacity="1" fill-rule="nonzero"/><path fill="#f6f6f6" d="M 203.886719 209.667969 C 203.828125 209.546875 195.851562 201.144531 192.226562 202.597656 C 188.601562 204.046875 189.324219 207.613281 189.324219 207.613281 C 189.324219 207.613281 185.09375 210.578125 185.640625 215.835938 C 186.183594 221.097656 193.011719 226.355469 198.871094 227.324219 C 204.734375 228.289062 207.996094 222.425781 208.359375 218.253906 C 208.722656 214.082031 203.886719 209.667969 203.886719 209.667969 Z M 203.886719 209.667969 " fill-opacity="1" fill-rule="nonzero"/><path fill="#f6f6f6" d="M 201.46875 227.019531 C 205.699219 228.835938 211.804688 228.046875 213.496094 217.226562 C 213.679688 216.039062 213.679688 214.871094 213.523438 213.734375 C 213.523438 213.730469 213.523438 213.730469 213.523438 213.730469 C 213.222656 211.503906 212.347656 209.398438 211.195312 207.476562 C 207.582031 201.445312 201.246094 197.257812 201.410156 197.09375 C 201.652344 196.851562 196.394531 199.816406 195.550781 204.46875 C 194.703125 209.125 197.242188 225.207031 201.46875 227.019531 Z M 201.46875 227.019531 " fill-opacity="1" fill-rule="nonzero"/><path fill="#1e1915" d="M 198.8125 227.683594 C 197.355469 227.445312 195.777344 226.925781 194.25 226.191406 C 192.75 225.464844 191.292969 224.527344 190.027344 223.46875 C 188.699219 222.363281 187.617188 221.167969 186.804688 219.914062 C 185.925781 218.558594 185.410156 217.199219 185.273438 215.875 C 185.144531 214.625 185.265625 213.394531 185.636719 212.222656 C 185.929688 211.285156 186.382812 210.382812 186.980469 209.539062 C 187.757812 208.4375 188.574219 207.734375 188.929688 207.453125 C 188.890625 207.097656 188.851562 206.378906 189.058594 205.558594 C 189.328125 204.496094 190.074219 203.0625 192.089844 202.253906 C 193.730469 201.597656 196.261719 202.609375 199.621094 205.253906 C 200.917969 206.277344 202.070312 207.335938 202.804688 208.046875 C 202.816406 208.058594 204.121094 209.316406 204.214844 209.503906 C 204.308594 209.695312 204.234375 209.90625 204.050781 210 C 203.886719 210.078125 203.695312 210.027344 203.589844 209.882812 C 203.433594 209.703125 201.464844 207.625 199.054688 205.742188 C 197.675781 204.664062 196.429688 203.871094 195.359375 203.378906 C 194.089844 202.796875 193.082031 202.648438 192.363281 202.9375 C 190.984375 203.488281 190.113281 204.421875 189.777344 205.710938 C 189.523438 206.695312 189.683594 207.535156 189.683594 207.542969 C 189.714844 207.683594 189.65625 207.832031 189.535156 207.914062 C 189.527344 207.921875 188.519531 208.632812 187.578125 209.964844 C 186.316406 211.746094 185.789062 213.707031 186.003906 215.796875 C 186.25 218.167969 187.84375 220.695312 190.496094 222.90625 C 192.984375 224.984375 196.136719 226.5 198.933594 226.960938 C 199.132812 226.992188 199.265625 227.183594 199.234375 227.382812 C 199.203125 227.5625 199.050781 227.691406 198.875 227.691406 C 198.851562 227.691406 198.832031 227.6875 198.8125 227.683594 Z M 203.558594 209.835938 Z M 203.558594 209.835938 C 203.558594 209.835938 203.558594 209.832031 203.558594 209.832031 C 203.558594 209.832031 203.558594 209.832031 203.558594 209.835938 Z M 203.558594 209.835938 " fill-opacity="1" fill-rule="nonzero"/><g clip-path="url(#8caa11764b)"><path fill="#f6f6f6" d="M 186.183594 260.875 C 187.269531 262.691406 210.476562 263.234375 211.621094 261.117188 C 212.769531 259 211.078125 252.773438 206.910156 250.355469 C 204.195312 248.785156 202.316406 249.207031 202.316406 249.207031 C 202.316406 249.207031 202.402344 248.019531 202.5 246.257812 C 202.554688 245.292969 202.613281 244.160156 202.664062 242.953125 C 202.792969 239.90625 202.878906 236.40625 202.734375 234.070312 C 202.652344 232.792969 202.503906 231.867188 202.257812 231.554688 C 201.046875 230.042969 186.605469 236.148438 185.878906 238.265625 C 185.8125 238.464844 185.71875 240.261719 185.644531 242.765625 C 185.628906 243.347656 185.613281 243.964844 185.597656 244.613281 C 185.578125 245.601562 185.558594 246.652344 185.546875 247.726562 C 185.484375 253.472656 185.589844 259.886719 186.183594 260.875 Z M 186.183594 260.875 " fill-opacity="1" fill-rule="nonzero"/></g><g clip-path="url(#e8f685c2a1)"><path fill="#f6f6f6" d="M 150.894531 260.9375 C 152.042969 263.050781 175.246094 262.507812 176.335938 260.695312 C 176.929688 259.699219 177.035156 253.191406 176.96875 247.410156 C 176.957031 246.332031 176.9375 245.277344 176.914062 244.289062 C 176.902344 243.644531 176.886719 243.027344 176.867188 242.445312 C 176.792969 240.015625 176.703125 238.28125 176.636719 238.082031 C 175.910156 235.96875 161.46875 229.863281 160.261719 231.371094 C 159.992188 231.707031 159.839844 232.757812 159.765625 234.195312 C 159.671875 236.042969 159.703125 238.53125 159.78125 240.9375 C 159.820312 242.113281 159.871094 243.269531 159.921875 244.320312 C 160.054688 247.003906 160.199219 249.027344 160.199219 249.027344 C 160.199219 249.027344 158.320312 248.601562 155.609375 250.175781 C 151.4375 252.59375 149.746094 258.820312 150.894531 260.9375 Z M 150.894531 260.9375 " fill-opacity="1" fill-rule="nonzero"/></g><path fill="#1e1915" d="M 197.363281 214.269531 C 197.511719 214.269531 197.652344 214.175781 197.707031 214.027344 C 197.777344 213.839844 197.679688 213.628906 197.488281 213.558594 C 194.953125 212.621094 192.933594 210.949219 191.683594 209.710938 C 190.332031 208.367188 189.578125 207.242188 189.570312 207.230469 C 189.457031 207.0625 189.230469 207.015625 189.0625 207.128906 C 188.894531 207.238281 188.847656 207.46875 188.960938 207.636719 C 188.992188 207.683594 189.761719 208.835938 191.167969 210.230469 C 192.46875 211.519531 194.574219 213.261719 197.234375 214.246094 C 197.277344 214.261719 197.320312 214.269531 197.363281 214.269531 Z M 197.363281 214.269531 " fill-opacity="1" fill-rule="nonzero"/><path fill="#f6f6f6" d="M 165.273438 194.011719 C 164.914062 194.011719 159.351562 192.984375 155.605469 200.660156 C 151.859375 208.339844 152.949219 220.492188 160.199219 225.027344 C 167.449219 229.558594 177.058594 228.957031 182.316406 226.234375 C 187.574219 223.515625 193.207031 215.988281 191.683594 212.511719 C 189.324219 207.128906 184.671875 208.582031 184.671875 208.582031 C 184.671875 208.582031 186.71875 203.84375 183.101562 203.441406 C 174.945312 202.535156 176.878906 209.066406 171.558594 210.152344 C 166.242188 211.242188 161.832031 204.894531 161.527344 202.414062 L 165.277344 194.011719 Z M 165.273438 194.011719 " fill-opacity="1" fill-rule="nonzero"/><path fill="#f6f6f6" d="M 160.472656 225.027344 C 160.847656 225.261719 161.226562 225.480469 161.613281 225.6875 C 162.488281 226.15625 163.390625 226.558594 164.3125 226.894531 C 170.839844 229.296875 178.21875 228.496094 182.585938 226.234375 C 187.84375 223.515625 193.476562 215.988281 191.953125 212.511719 C 189.597656 207.128906 184.945312 208.582031 184.945312 208.582031 C 184.945312 208.582031 186.988281 203.84375 183.371094 203.441406 C 175.214844 202.535156 177.148438 209.066406 171.832031 210.152344 C 171.476562 210.226562 171.125 210.265625 170.777344 210.273438 C 169.773438 210.304688 168.8125 210.082031 167.917969 209.691406 C 164.496094 208.199219 162.023438 204.246094 161.800781 202.414062 L 165.546875 194.011719 C 165.183594 194.011719 159.625 192.984375 155.878906 200.660156 C 152.132812 208.339844 153.21875 220.492188 160.46875 225.023438 Z M 160.472656 225.027344 " fill-opacity="1" fill-rule="nonzero"/><path fill="#54a3e6" d="M 164.3125 226.894531 C 164.285156 225.980469 164.332031 225.066406 164.441406 224.15625 C 164.722656 222.214844 165.285156 220.320312 166.035156 218.507812 C 166.335938 217.804688 166.664062 217.113281 167.011719 216.433594 C 168.113281 214.289062 168.992188 213.109375 170.351562 211.121094 C 169.347656 211.148438 168.8125 210.082031 167.917969 209.691406 C 167.445312 210.394531 166.980469 211.109375 166.53125 211.828125 C 164.984375 214.316406 163.617188 216.941406 162.710938 219.734375 C 162.089844 221.648438 161.6875 223.664062 161.613281 225.6875 C 162.488281 226.15625 163.390625 226.558594 164.3125 226.898438 Z M 164.3125 226.894531 " fill-opacity="1" fill-rule="nonzero"/><path fill="#1e1915" d="M 184.71875 209.023438 C 183.769531 209.496094 182.808594 209.96875 181.929688 210.566406 C 181.070312 211.152344 180.339844 211.921875 179.789062 212.800781 C 179.46875 213.3125 179.21875 213.855469 179.050781 214.4375 C 178.929688 214.847656 178.285156 214.671875 178.402344 214.257812 C 178.726562 213.144531 179.332031 212.140625 180.101562 211.285156 C 180.847656 210.449219 181.765625 209.832031 182.738281 209.289062 C 183.277344 208.992188 183.832031 208.71875 184.382812 208.441406 C 184.542969 208.363281 184.746094 208.398438 184.839844 208.5625 C 184.925781 208.710938 184.882812 208.941406 184.71875 209.023438 Z M 184.71875 209.023438 " fill-opacity="1" fill-rule="nonzero"/><path fill="#1e1915" d="M 172.789062 228.722656 C 176.597656 228.722656 180.164062 227.902344 182.757812 226.558594 C 184.050781 225.890625 185.425781 224.902344 186.730469 223.703125 C 187.988281 222.546875 189.15625 221.222656 190.113281 219.867188 C 192.253906 216.832031 193.050781 214.097656 192.289062 212.363281 C 191.726562 211.082031 190.988281 210.066406 190.09375 209.34375 C 189.371094 208.757812 188.542969 208.363281 187.640625 208.167969 C 186.710938 207.972656 185.894531 208.03125 185.386719 208.113281 C 185.429688 207.667969 185.457031 207.003906 185.332031 206.292969 C 185.039062 204.605469 184.050781 203.476562 182.476562 203.03125 C 180.691406 202.523438 178.90625 202.851562 177.3125 203.984375 C 176.363281 204.65625 175.53125 205.585938 174.910156 206.664062 C 174.324219 207.679688 173.96875 208.761719 173.914062 209.707031 C 173.910156 209.722656 173.910156 209.738281 173.914062 209.75 C 173.914062 209.8125 173.96875 211.320312 172.429688 211.734375 C 171.796875 211.902344 170.550781 211.664062 169.183594 210.742188 C 167.378906 209.527344 166.203125 207.6875 165.957031 205.695312 C 165.933594 205.496094 165.75 205.351562 165.546875 205.375 C 165.347656 205.402344 165.203125 205.585938 165.230469 205.785156 C 165.5 207.988281 166.792969 210.015625 168.773438 211.351562 C 170.144531 212.273438 171.652344 212.703125 172.621094 212.441406 C 173.730469 212.144531 174.222656 211.417969 174.441406 210.855469 C 174.648438 210.328125 174.648438 209.851562 174.644531 209.734375 C 174.746094 208.191406 175.835938 205.929688 177.738281 204.582031 C 178.714844 203.886719 180.300781 203.175781 182.277344 203.734375 C 183.574219 204.105469 184.359375 205 184.609375 206.398438 C 184.804688 207.492188 184.589844 208.492188 184.585938 208.503906 C 184.558594 208.628906 184.601562 208.765625 184.695312 208.851562 C 184.792969 208.941406 184.929688 208.972656 185.054688 208.933594 C 185.0625 208.929688 186.167969 208.597656 187.519531 208.894531 C 189.316406 209.289062 190.695312 210.554688 191.617188 212.660156 C 192.261719 214.128906 191.476562 216.667969 189.515625 219.445312 C 187.597656 222.160156 184.878906 224.636719 182.417969 225.910156 C 177.15625 228.632812 167.742188 229.140625 160.664062 224.714844 C 157.394531 222.667969 155.171875 218.851562 154.414062 213.964844 C 153.714844 209.472656 154.386719 204.558594 156.207031 200.824219 C 159.175781 194.746094 163.234375 194.171875 165.394531 194.367188 C 165.464844 194.375 165.507812 194.378906 165.546875 194.378906 C 165.75 194.378906 165.914062 194.214844 165.914062 194.011719 C 165.914062 193.808594 165.75 193.644531 165.550781 193.644531 C 165.535156 193.644531 165.496094 193.640625 165.460938 193.636719 C 164.097656 193.511719 162.761719 193.71875 161.488281 194.257812 C 160.40625 194.714844 159.390625 195.402344 158.472656 196.304688 C 157.359375 197.394531 156.378906 198.804688 155.550781 200.5 C 154.617188 202.414062 153.953125 204.667969 153.632812 207.019531 C 153.316406 209.359375 153.335938 211.800781 153.6875 214.078125 C 154.066406 216.496094 154.792969 218.679688 155.847656 220.566406 C 156.996094 222.609375 158.484375 224.214844 160.277344 225.335938 C 164.105469 227.730469 168.597656 228.722656 172.789062 228.722656 Z M 172.789062 228.722656 " fill-opacity="1" fill-rule="nonzero"/><path fill="#54a3e6" d="M 159.78125 240.941406 C 159.820312 242.113281 159.871094 243.269531 159.921875 244.320312 C 161.058594 244.75 162.207031 245.152344 163.363281 245.527344 C 165.328125 246.167969 167.328125 246.710938 169.363281 247.0625 C 171.859375 247.496094 174.441406 247.667969 176.96875 247.410156 C 176.957031 246.332031 176.9375 245.277344 176.917969 244.289062 C 174.996094 244.5 173.054688 244.449219 171.140625 244.207031 C 170.214844 244.074219 169.296875 243.902344 168.382812 243.695312 C 166.667969 243.304688 164.980469 242.796875 163.316406 242.230469 C 162.128906 241.828125 160.949219 241.398438 159.785156 240.941406 Z M 159.78125 240.941406 " fill-opacity="1" fill-rule="nonzero"/><path fill="#54a3e6" d="M 185.546875 247.726562 C 186.375 247.742188 187.203125 247.753906 188.03125 247.757812 C 191.0625 247.777344 194.105469 247.707031 197.117188 247.316406 C 198.722656 247.105469 200.316406 246.835938 201.882812 246.425781 C 202.089844 246.375 202.296875 246.316406 202.5 246.257812 C 202.554688 245.292969 202.613281 244.15625 202.664062 242.953125 C 200.847656 243.539062 198.972656 243.9375 197.082031 244.203125 C 197.082031 244.203125 197.078125 244.203125 197.074219 244.203125 C 196.226562 244.3125 195.375 244.398438 194.523438 244.460938 C 192.851562 244.585938 191.175781 244.632812 189.5 244.640625 C 188.65625 244.648438 187.8125 244.640625 186.96875 244.632812 C 186.554688 244.625 186.136719 244.621094 185.722656 244.613281 C 185.679688 244.613281 185.640625 244.613281 185.597656 244.613281 C 185.574219 245.601562 185.558594 246.652344 185.546875 247.726562 Z M 185.546875 247.726562 " fill-opacity="1" fill-rule="nonzero"/><path fill="#54a3e6" d="M 201.050781 204.929688 C 201.773438 205.15625 202.488281 205.414062 203.1875 205.703125 C 203.609375 205.886719 204.023438 206.078125 204.433594 206.277344 C 205.980469 207.042969 207.453125 207.960938 208.824219 209.007812 C 209.175781 209.285156 209.523438 209.566406 209.859375 209.859375 C 211.175781 211 212.378906 212.265625 213.453125 213.636719 C 213.453125 213.636719 213.453125 213.640625 213.453125 213.640625 C 213.476562 213.671875 213.5 213.703125 213.523438 213.734375 C 213.523438 213.730469 213.523438 213.730469 213.523438 213.730469 C 213.535156 213.746094 213.546875 213.757812 213.558594 213.773438 C 213.546875 213.757812 213.535156 213.746094 213.523438 213.730469 C 213.222656 211.503906 212.347656 209.398438 211.195312 207.476562 C 210.714844 207.074219 210.214844 206.6875 209.707031 206.316406 C 207.304688 204.5625 204.421875 203.664062 201.769531 202.324219 C 201.472656 202.171875 200.71875 204.824219 201.050781 204.929688 Z M 201.050781 204.929688 " fill-opacity="1" fill-rule="nonzero"/><path fill="#54a3e6" d="M 184.125 178.007812 C 185.296875 181.933594 191.890625 178.09375 196.230469 179.429688 C 198.28125 180.058594 201.015625 181.007812 203.351562 181.347656 C 205.96875 181.730469 208.082031 181.351562 208.171875 178.925781 C 208.203125 178.039062 206.847656 169.941406 197.316406 168.738281 C 192.058594 168.074219 187.460938 170.640625 185.300781 173.589844 C 184.203125 175.085938 183.734375 176.6875 184.125 178.007812 Z M 184.125 178.007812 " fill-opacity="1" fill-rule="nonzero"/><path fill="#f6f6f6" d="M 184.125 178.007812 C 185.296875 181.933594 191.890625 178.09375 196.230469 179.429688 C 198.28125 180.058594 201.015625 181.007812 203.351562 181.347656 C 200.382812 177.316406 194.789062 172.601562 185.300781 173.589844 C 184.203125 175.085938 183.734375 176.6875 184.125 178.007812 Z M 184.125 178.007812 " fill-opacity="1" fill-rule="nonzero"/><g clip-path="url(#a98b182417)"><g clip-path="url(#0e25dbab4f)"><g clip-path="url(#81ed0f521b)"><path fill="#002d75" d="M 204.867188 106.429688 C 204.878906 106.769531 204.871094 107.105469 204.84375 107.433594 C 203.980469 106.859375 203.058594 106.371094 202.09375 105.984375 C 197.261719 104.054688 192.234375 103.171875 187.160156 103.363281 C 182.082031 103.558594 177.140625 104.816406 172.464844 107.109375 C 171.53125 107.566406 170.648438 108.125 169.832031 108.761719 C 169.78125 108.433594 169.746094 108.101562 169.734375 107.765625 C 169.558594 103.113281 173.199219 99.183594 177.851562 99.007812 L 196.109375 98.3125 C 200.761719 98.136719 204.691406 101.777344 204.867188 106.429688 Z M 204.867188 106.429688 " fill-opacity="1" fill-rule="nonzero"/></g></g></g><g clip-path="url(#98586520b6)"><g clip-path="url(#1cec30cb68)"><g clip-path="url(#619c1691db)"><path fill="#002d75" d="M 204.617188 108.8125 C 203.730469 108.171875 202.734375 107.609375 201.625 107.164062 C 196.957031 105.300781 192.105469 104.449219 187.207031 104.636719 C 182.3125 104.820312 177.539062 106.035156 173.023438 108.25 C 171.949219 108.777344 171 109.414062 170.164062 110.117188 C 169.984375 110.265625 169.8125 110.417969 169.648438 110.574219 C 170.964844 114.167969 174.484375 116.671875 178.515625 116.519531 L 185.796875 116.242188 L 185.761719 115.28125 L 183.453125 115.371094 C 182.515625 115.40625 181.722656 114.605469 181.683594 113.585938 C 181.648438 112.566406 182.375 111.710938 183.3125 111.675781 L 185.621094 111.585938 L 185.535156 109.28125 C 185.496094 108.34375 186.296875 107.550781 187.316406 107.511719 C 188.335938 107.472656 189.191406 108.203125 189.230469 109.140625 L 189.316406 111.445312 L 191.625 111.359375 C 192.5625 111.324219 193.351562 112.121094 193.390625 113.140625 C 193.429688 114.164062 192.703125 115.019531 191.765625 115.054688 L 189.457031 115.140625 L 189.492188 116.101562 L 196.773438 115.824219 C 200.808594 115.671875 204.125 112.910156 205.167969 109.226562 C 204.988281 109.082031 204.804688 108.945312 204.617188 108.8125 Z M 204.617188 108.8125 " fill-opacity="1" fill-rule="nonzero"/></g></g></g><g clip-path="url(#10362785ef)"><g clip-path="url(#740b2afcbb)"><g clip-path="url(#4de147c9f4)"><path fill="#ffffff" d="M 205.167969 109.226562 C 204.988281 109.082031 204.804688 108.945312 204.617188 108.8125 C 203.726562 112.351562 200.582031 115.042969 196.75 115.1875 L 189.46875 115.464844 L 189.515625 116.738281 L 196.796875 116.460938 C 201.003906 116.300781 204.496094 113.472656 205.695312 109.671875 C 205.523438 109.519531 205.347656 109.371094 205.167969 109.226562 Z M 178.492188 115.882812 C 174.660156 116.027344 171.320312 113.582031 170.164062 110.117188 C 169.984375 110.265625 169.8125 110.417969 169.648438 110.574219 C 169.476562 110.734375 169.3125 110.894531 169.152344 111.058594 C 170.636719 114.757812 174.332031 117.3125 178.539062 117.152344 L 185.820312 116.878906 L 185.773438 115.605469 Z M 178.492188 115.882812 " fill-opacity="1" fill-rule="nonzero"/></g></g></g><g clip-path="url(#dc52a117f6)"><g clip-path="url(#f68e92ea5b)"><g clip-path="url(#3dadf1b249)"><path fill="#002d75" d="M 209.890625 116.148438 C 209.296875 114.089844 207.933594 111.640625 205.695312 109.671875 C 205.523438 109.519531 205.347656 109.371094 205.167969 109.226562 C 204.988281 109.082031 204.804688 108.945312 204.617188 108.8125 C 203.730469 108.171875 202.734375 107.609375 201.625 107.164062 C 196.957031 105.300781 192.105469 104.449219 187.207031 104.636719 C 182.3125 104.820312 177.539062 106.035156 173.023438 108.25 C 171.949219 108.777344 171 109.414062 170.164062 110.117188 C 169.984375 110.265625 169.8125 110.417969 169.648438 110.574219 C 169.476562 110.734375 169.3125 110.894531 169.152344 111.058594 C 167.074219 113.191406 165.902344 115.738281 165.464844 117.832031 C 164.941406 120.355469 165.316406 122.597656 166.5 123.988281 C 167.167969 124.792969 167.914062 125.386719 168.6875 125.816406 C 168.890625 125.84375 169.378906 125.894531 170.046875 125.914062 C 170.425781 125.925781 170.863281 125.925781 171.339844 125.90625 C 173.746094 125.816406 177.179688 125.222656 179.300781 122.8125 C 179.5 122.589844 179.6875 122.347656 179.859375 122.09375 C 180.058594 121.804688 180.453125 121.726562 180.742188 121.921875 C 181.035156 122.121094 181.113281 122.515625 180.914062 122.804688 C 179.339844 125.136719 176.917969 126.261719 174.621094 126.789062 C 176.003906 126.609375 177.417969 126.199219 178.765625 125.578125 C 181.667969 124.15625 184.746094 123.371094 187.914062 123.25 C 191.078125 123.128906 194.210938 123.679688 197.226562 124.882812 C 198.972656 125.53125 200.8125 125.84375 202.535156 125.777344 C 204.582031 125.699219 207.421875 125.046875 209.320312 122.367188 C 210.394531 120.890625 210.601562 118.625 209.890625 116.148438 Z M 183.21875 120.398438 C 182.660156 121.003906 181.71875 121.039062 181.117188 120.480469 C 180.511719 119.917969 180.476562 118.976562 181.035156 118.375 C 181.59375 117.769531 182.539062 117.734375 183.140625 118.292969 C 183.742188 118.851562 183.78125 119.796875 183.21875 120.398438 Z M 189.542969 117.449219 C 189.578125 118.386719 188.78125 119.179688 187.761719 119.214844 C 186.742188 119.253906 185.882812 118.527344 185.847656 117.589844 L 185.761719 115.28125 L 183.453125 115.371094 C 182.515625 115.40625 181.722656 114.605469 181.683594 113.585938 C 181.648438 112.566406 182.375 111.710938 183.3125 111.675781 L 185.621094 111.585938 L 185.535156 109.28125 C 185.496094 108.34375 186.296875 107.550781 187.316406 107.511719 C 188.335938 107.472656 189.191406 108.203125 189.230469 109.140625 L 189.316406 111.445312 L 191.625 111.359375 C 192.5625 111.324219 193.351562 112.121094 193.390625 113.140625 C 193.429688 114.164062 192.703125 115.019531 191.765625 115.054688 L 189.457031 115.140625 Z M 189.542969 117.449219 " fill-opacity="1" fill-rule="nonzero"/><path fill="#002d75" d="M 209.890625 116.148438 C 209.296875 114.089844 207.933594 111.640625 205.695312 109.671875 C 205.523438 109.519531 205.347656 109.371094 205.167969 109.226562 C 204.988281 109.082031 204.804688 108.945312 204.617188 108.8125 C 203.730469 108.171875 202.734375 107.609375 201.625 107.164062 C 196.957031 105.300781 192.105469 104.449219 187.207031 104.636719 C 182.3125 104.820312 177.539062 106.035156 173.023438 108.25 C 171.949219 108.777344 171 109.414062 170.164062 110.117188 C 169.984375 110.265625 169.8125 110.417969 169.648438 110.574219 C 169.476562 110.734375 169.3125 110.894531 169.152344 111.058594 C 167.074219 113.191406 165.902344 115.738281 165.464844 117.832031 C 164.941406 120.355469 165.316406 122.597656 166.5 123.988281 C 167.167969 124.792969 167.914062 125.386719 168.6875 125.816406 C 168.890625 125.84375 169.378906 125.894531 170.046875 125.914062 C 170.425781 125.925781 170.863281 125.925781 171.339844 125.90625 C 173.746094 125.816406 177.179688 125.222656 179.300781 122.8125 C 179.5 122.589844 179.6875 122.347656 179.859375 122.09375 C 180.058594 121.804688 180.453125 121.726562 180.742188 121.921875 C 181.035156 122.121094 181.113281 122.515625 180.914062 122.804688 C 179.339844 125.136719 176.917969 126.261719 174.621094 126.789062 C 176.003906 126.609375 177.417969 126.199219 178.765625 125.578125 C 181.667969 124.15625 184.746094 123.371094 187.914062 123.25 C 191.078125 123.128906 194.210938 123.679688 197.226562 124.882812 C 198.972656 125.53125 200.8125 125.84375 202.535156 125.777344 C 204.582031 125.699219 207.421875 125.046875 209.320312 122.367188 C 210.394531 120.890625 210.601562 118.625 209.890625 116.148438 Z M 183.21875 120.398438 C 182.660156 121.003906 181.71875 121.039062 181.117188 120.480469 C 180.511719 119.917969 180.476562 118.976562 181.035156 118.375 C 181.59375 117.769531 182.539062 117.734375 183.140625 118.292969 C 183.742188 118.851562 183.78125 119.796875 183.21875 120.398438 Z M 189.542969 117.449219 C 189.578125 118.386719 188.78125 119.179688 187.761719 119.214844 C 186.742188 119.253906 185.882812 118.527344 185.847656 117.589844 L 185.761719 115.28125 L 183.453125 115.371094 C 182.515625 115.40625 181.722656 114.605469 181.683594 113.585938 C 181.648438 112.566406 182.375 111.710938 183.3125 111.675781 L 185.621094 111.585938 L 185.535156 109.28125 C 185.496094 108.34375 186.296875 107.550781 187.316406 107.511719 C 188.335938 107.472656 189.191406 108.203125 189.230469 109.140625 L 189.316406 111.445312 L 191.625 111.359375 C 192.5625 111.324219 193.351562 112.121094 193.390625 113.140625 C 193.429688 114.164062 192.703125 115.019531 191.765625 115.054688 L 189.457031 115.140625 Z M 189.542969 117.449219 " fill-opacity="1" fill-rule="nonzero"/></g></g></g><g clip-path="url(#cf1f3a5728)"><g clip-path="url(#28848a2e87)"><g clip-path="url(#8487887b9a)"><path fill="#002d75" d="M 179.300781 122.8125 C 177.179688 125.222656 173.746094 125.816406 171.339844 125.90625 C 170.863281 125.925781 170.425781 125.925781 170.046875 125.914062 Z M 179.300781 122.8125 " fill-opacity="1" fill-rule="nonzero"/></g></g></g></svg>